<svg xmlns="http://www.w3.org/2000/svg"
width="232" height="232"   >
<rect width="232" height="232" fill="#ffffff" />
<rect x="32" y="32" width="8.3" height="8.3" fill="#000000" />
<rect x="40" y="32" width="8.3" height="8.3" fill="#000000" />
<rect x="48" y="32" width="8.3" height="8.3" fill="#000000" />
<rect x="56" y="32" width="8.3" height="8.3" fill="#000000" />
<rect x="64" y="32" width="8.3" height="8.3" fill="#000000" />
<rect x="72" y="32" width="8.3" height="8.3" fill="#000000" />
<rect x="80" y="32" width="8.3" height="8.3" fill="#000000" />
<rect x="96" y="32" width="8.3" height="8.3" fill="#000000" />
<rect x="120" y="32" width="8.3" height="8.3" fill="#000000" />
<rect x="128" y="32" width="8.3" height="8.3" fill="#000000" />
<rect x="144" y="32" width="8.3" height="8.3" fill="#000000" />
<rect x="152" y="32" width="8.3" height="8.3" fill="#000000" />
<rect x="160" y="32" width="8.3" height="8.3" fill="#000000" />
<rect x="168" y="32" width="8.3" height="8.3" fill="#000000" />
<rect x="176" y="32" width="8.3" height="8.3" fill="#000000" />
<rect x="184" y="32" width="8.3" height="8.3" fill="#000000" />
<rect x="192" y="32" width="8.3" height="8.3" fill="#000000" />
<rect x="32" y="40" width="8.3" height="8.3" fill="#000000" />
<rect x="80" y="40" width="8.3" height="8.3" fill="#000000" />
<rect x="104" y="40" width="8.3" height="8.3" fill="#000000" />
<rect x="128" y="40" width="8.3" height="8.3" fill="#000000" />
<rect x="144" y="40" width="8.3" height="8.3" fill="#000000" />
<rect x="192" y="40" width="8.3" height="8.3" fill="#000000" />
<rect x="32" y="48" width="8.3" height="8.3" fill="#000000" />
<rect x="48" y="48" width="8.3" height="8.3" fill="#000000" />
<rect x="56" y="48" width="8.3" height="8.3" fill="#000000" />
<rect x="64" y="48" width="8.3" height="8.3" fill="#000000" />
<rect x="80" y="48" width="8.3" height="8.3" fill="#000000" />
<rect x="96" y="48" width="8.3" height="8.3" fill="#000000" />
<rect x="120" y="48" width="8.3" height="8.3" fill="#000000" />
<rect x="144" y="48" width="8.3" height="8.3" fill="#000000" />
<rect x="160" y="48" width="8.3" height="8.3" fill="#000000" />
<rect x="168" y="48" width="8.3" height="8.3" fill="#000000" />
<rect x="176" y="48" width="8.3" height="8.3" fill="#000000" />
<rect x="192" y="48" width="8.3" height="8.3" fill="#000000" />
<rect x="32" y="56" width="8.3" height="8.3" fill="#000000" />
<rect x="48" y="56" width="8.3" height="8.3" fill="#000000" />
<rect x="56" y="56" width="8.3" height="8.3" fill="#000000" />
<rect x="64" y="56" width="8.3" height="8.3" fill="#000000" />
<rect x="80" y="56" width="8.3" height="8.3" fill="#000000" />
<rect x="104" y="56" width="8.3" height="8.3" fill="#000000" />
<rect x="120" y="56" width="8.3" height="8.3" fill="#000000" />
<rect x="128" y="56" width="8.3" height="8.3" fill="#000000" />
<rect x="144" y="56" width="8.3" height="8.3" fill="#000000" />
<rect x="160" y="56" width="8.3" height="8.3" fill="#000000" />
<rect x="168" y="56" width="8.3" height="8.3" fill="#000000" />
<rect x="176" y="56" width="8.3" height="8.3" fill="#000000" />
<rect x="192" y="56" width="8.3" height="8.3" fill="#000000" />
<rect x="32" y="64" width="8.3" height="8.3" fill="#000000" />
<rect x="48" y="64" width="8.3" height="8.3" fill="#000000" />
<rect x="56" y="64" width="8.3" height="8.3" fill="#000000" />
<rect x="64" y="64" width="8.3" height="8.3" fill="#000000" />
<rect x="80" y="64" width="8.3" height="8.3" fill="#000000" />
<rect x="120" y="64" width="8.3" height="8.3" fill="#000000" />
<rect x="128" y="64" width="8.3" height="8.3" fill="#000000" />
<rect x="144" y="64" width="8.3" height="8.3" fill="#000000" />
<rect x="160" y="64" width="8.3" height="8.3" fill="#000000" />
<rect x="168" y="64" width="8.3" height="8.3" fill="#000000" />
<rect x="176" y="64" width="8.3" height="8.3" fill="#000000" />
<rect x="192" y="64" width="8.3" height="8.3" fill="#000000" />
<rect x="32" y="72" width="8.3" height="8.3" fill="#000000" />
<rect x="80" y="72" width="8.3" height="8.3" fill="#000000" />
<rect x="96" y="72" width="8.3" height="8.3" fill="#000000" />
<rect x="104" y="72" width="8.3" height="8.3" fill="#000000" />
<rect x="120" y="72" width="8.3" height="8.3" fill="#000000" />
<rect x="128" y="72" width="8.3" height="8.3" fill="#000000" />
<rect x="144" y="72" width="8.3" height="8.3" fill="#000000" />
<rect x="192" y="72" width="8.3" height="8.3" fill="#000000" />
<rect x="32" y="80" width="8.3" height="8.3" fill="#000000" />
<rect x="40" y="80" width="8.3" height="8.3" fill="#000000" />
<rect x="48" y="80" width="8.3" height="8.3" fill="#000000" />
<rect x="56" y="80" width="8.3" height="8.3" fill="#000000" />
<rect x="64" y="80" width="8.3" height="8.3" fill="#000000" />
<rect x="72" y="80" width="8.3" height="8.3" fill="#000000" />
<rect x="80" y="80" width="8.3" height="8.3" fill="#000000" />
<rect x="96" y="80" width="8.3" height="8.3" fill="#000000" />
<rect x="112" y="80" width="8.3" height="8.3" fill="#000000" />
<rect x="128" y="80" width="8.3" height="8.3" fill="#000000" />
<rect x="144" y="80" width="8.3" height="8.3" fill="#000000" />
<rect x="152" y="80" width="8.3" height="8.3" fill="#000000" />
<rect x="160" y="80" width="8.3" height="8.3" fill="#000000" />
<rect x="168" y="80" width="8.3" height="8.3" fill="#000000" />
<rect x="176" y="80" width="8.3" height="8.3" fill="#000000" />
<rect x="184" y="80" width="8.3" height="8.3" fill="#000000" />
<rect x="192" y="80" width="8.3" height="8.3" fill="#000000" />
<rect x="128" y="88" width="8.3" height="8.3" fill="#000000" />
<rect x="32" y="96" width="8.3" height="8.3" fill="#000000" />
<rect x="48" y="96" width="8.3" height="8.3" fill="#000000" />
<rect x="80" y="96" width="8.3" height="8.3" fill="#000000" />
<rect x="88" y="96" width="8.3" height="8.3" fill="#000000" />
<rect x="112" y="96" width="8.3" height="8.3" fill="#000000" />
<rect x="152" y="96" width="8.3" height="8.3" fill="#000000" />
<rect x="176" y="96" width="8.3" height="8.3" fill="#000000" />
<rect x="192" y="96" width="8.3" height="8.3" fill="#000000" />
<rect x="32" y="104" width="8.3" height="8.3" fill="#000000" />
<rect x="48" y="104" width="8.3" height="8.3" fill="#000000" />
<rect x="64" y="104" width="8.3" height="8.3" fill="#000000" />
<rect x="96" y="104" width="8.3" height="8.3" fill="#000000" />
<rect x="104" y="104" width="8.3" height="8.3" fill="#000000" />
<rect x="112" y="104" width="8.3" height="8.3" fill="#000000" />
<rect x="120" y="104" width="8.3" height="8.3" fill="#000000" />
<rect x="136" y="104" width="8.3" height="8.3" fill="#000000" />
<rect x="144" y="104" width="8.3" height="8.3" fill="#000000" />
<rect x="152" y="104" width="8.3" height="8.3" fill="#000000" />
<rect x="168" y="104" width="8.3" height="8.3" fill="#000000" />
<rect x="184" y="104" width="8.3" height="8.3" fill="#000000" />
<rect x="192" y="104" width="8.3" height="8.3" fill="#000000" />
<rect x="32" y="112" width="8.3" height="8.3" fill="#000000" />
<rect x="40" y="112" width="8.3" height="8.3" fill="#000000" />
<rect x="48" y="112" width="8.3" height="8.3" fill="#000000" />
<rect x="64" y="112" width="8.3" height="8.3" fill="#000000" />
<rect x="80" y="112" width="8.3" height="8.3" fill="#000000" />
<rect x="96" y="112" width="8.3" height="8.3" fill="#000000" />
<rect x="104" y="112" width="8.3" height="8.3" fill="#000000" />
<rect x="120" y="112" width="8.3" height="8.3" fill="#000000" />
<rect x="128" y="112" width="8.3" height="8.3" fill="#000000" />
<rect x="136" y="112" width="8.3" height="8.3" fill="#000000" />
<rect x="152" y="112" width="8.3" height="8.3" fill="#000000" />
<rect x="160" y="112" width="8.3" height="8.3" fill="#000000" />
<rect x="184" y="112" width="8.3" height="8.3" fill="#000000" />
<rect x="32" y="120" width="8.3" height="8.3" fill="#000000" />
<rect x="40" y="120" width="8.3" height="8.3" fill="#000000" />
<rect x="56" y="120" width="8.3" height="8.3" fill="#000000" />
<rect x="64" y="120" width="8.3" height="8.3" fill="#000000" />
<rect x="72" y="120" width="8.3" height="8.3" fill="#000000" />
<rect x="88" y="120" width="8.3" height="8.3" fill="#000000" />
<rect x="104" y="120" width="8.3" height="8.3" fill="#000000" />
<rect x="120" y="120" width="8.3" height="8.3" fill="#000000" />
<rect x="136" y="120" width="8.3" height="8.3" fill="#000000" />
<rect x="144" y="120" width="8.3" height="8.3" fill="#000000" />
<rect x="152" y="120" width="8.3" height="8.3" fill="#000000" />
<rect x="184" y="120" width="8.3" height="8.3" fill="#000000" />
<rect x="192" y="120" width="8.3" height="8.3" fill="#000000" />
<rect x="32" y="128" width="8.3" height="8.3" fill="#000000" />
<rect x="40" y="128" width="8.3" height="8.3" fill="#000000" />
<rect x="56" y="128" width="8.3" height="8.3" fill="#000000" />
<rect x="64" y="128" width="8.3" height="8.3" fill="#000000" />
<rect x="72" y="128" width="8.3" height="8.3" fill="#000000" />
<rect x="80" y="128" width="8.3" height="8.3" fill="#000000" />
<rect x="88" y="128" width="8.3" height="8.3" fill="#000000" />
<rect x="104" y="128" width="8.3" height="8.3" fill="#000000" />
<rect x="120" y="128" width="8.3" height="8.3" fill="#000000" />
<rect x="128" y="128" width="8.3" height="8.3" fill="#000000" />
<rect x="136" y="128" width="8.3" height="8.3" fill="#000000" />
<rect x="144" y="128" width="8.3" height="8.3" fill="#000000" />
<rect x="152" y="128" width="8.3" height="8.3" fill="#000000" />
<rect x="160" y="128" width="8.3" height="8.3" fill="#000000" />
<rect x="168" y="128" width="8.3" height="8.3" fill="#000000" />
<rect x="192" y="128" width="8.3" height="8.3" fill="#000000" />
<rect x="96" y="136" width="8.3" height="8.3" fill="#000000" />
<rect x="112" y="136" width="8.3" height="8.3" fill="#000000" />
<rect x="32" y="144" width="8.3" height="8.3" fill="#000000" />
<rect x="40" y="144" width="8.3" height="8.3" fill="#000000" />
<rect x="48" y="144" width="8.3" height="8.3" fill="#000000" />
<rect x="56" y="144" width="8.3" height="8.3" fill="#000000" />
<rect x="64" y="144" width="8.3" height="8.3" fill="#000000" />
<rect x="72" y="144" width="8.3" height="8.3" fill="#000000" />
<rect x="80" y="144" width="8.3" height="8.3" fill="#000000" />
<rect x="96" y="144" width="8.3" height="8.3" fill="#000000" />
<rect x="104" y="144" width="8.3" height="8.3" fill="#000000" />
<rect x="112" y="144" width="8.3" height="8.3" fill="#000000" />
<rect x="144" y="144" width="8.3" height="8.3" fill="#000000" />
<rect x="184" y="144" width="8.3" height="8.3" fill="#000000" />
<rect x="32" y="152" width="8.3" height="8.3" fill="#000000" />
<rect x="80" y="152" width="8.3" height="8.3" fill="#000000" />
<rect x="128" y="152" width="8.3" height="8.3" fill="#000000" />
<rect x="160" y="152" width="8.3" height="8.3" fill="#000000" />
<rect x="192" y="152" width="8.3" height="8.3" fill="#000000" />
<rect x="32" y="160" width="8.3" height="8.3" fill="#000000" />
<rect x="48" y="160" width="8.3" height="8.3" fill="#000000" />
<rect x="56" y="160" width="8.3" height="8.3" fill="#000000" />
<rect x="64" y="160" width="8.3" height="8.3" fill="#000000" />
<rect x="80" y="160" width="8.3" height="8.3" fill="#000000" />
<rect x="104" y="160" width="8.3" height="8.3" fill="#000000" />
<rect x="112" y="160" width="8.3" height="8.3" fill="#000000" />
<rect x="144" y="160" width="8.3" height="8.3" fill="#000000" />
<rect x="176" y="160" width="8.3" height="8.3" fill="#000000" />
<rect x="184" y="160" width="8.3" height="8.3" fill="#000000" />
<rect x="192" y="160" width="8.3" height="8.3" fill="#000000" />
<rect x="32" y="168" width="8.3" height="8.3" fill="#000000" />
<rect x="48" y="168" width="8.3" height="8.3" fill="#000000" />
<rect x="56" y="168" width="8.3" height="8.3" fill="#000000" />
<rect x="64" y="168" width="8.3" height="8.3" fill="#000000" />
<rect x="80" y="168" width="8.3" height="8.3" fill="#000000" />
<rect x="104" y="168" width="8.3" height="8.3" fill="#000000" />
<rect x="112" y="168" width="8.3" height="8.3" fill="#000000" />
<rect x="120" y="168" width="8.3" height="8.3" fill="#000000" />
<rect x="136" y="168" width="8.3" height="8.3" fill="#000000" />
<rect x="144" y="168" width="8.3" height="8.3" fill="#000000" />
<rect x="168" y="168" width="8.3" height="8.3" fill="#000000" />
<rect x="32" y="176" width="8.3" height="8.3" fill="#000000" />
<rect x="48" y="176" width="8.3" height="8.3" fill="#000000" />
<rect x="56" y="176" width="8.3" height="8.3" fill="#000000" />
<rect x="64" y="176" width="8.3" height="8.3" fill="#000000" />
<rect x="80" y="176" width="8.3" height="8.3" fill="#000000" />
<rect x="96" y="176" width="8.3" height="8.3" fill="#000000" />
<rect x="104" y="176" width="8.3" height="8.3" fill="#000000" />
<rect x="120" y="176" width="8.3" height="8.3" fill="#000000" />
<rect x="128" y="176" width="8.3" height="8.3" fill="#000000" />
<rect x="136" y="176" width="8.3" height="8.3" fill="#000000" />
<rect x="152" y="176" width="8.3" height="8.3" fill="#000000" />
<rect x="160" y="176" width="8.3" height="8.3" fill="#000000" />
<rect x="176" y="176" width="8.3" height="8.3" fill="#000000" />
<rect x="184" y="176" width="8.3" height="8.3" fill="#000000" />
<rect x="192" y="176" width="8.3" height="8.3" fill="#000000" />
<rect x="32" y="184" width="8.3" height="8.3" fill="#000000" />
<rect x="80" y="184" width="8.3" height="8.3" fill="#000000" />
<rect x="120" y="184" width="8.3" height="8.3" fill="#000000" />
<rect x="136" y="184" width="8.3" height="8.3" fill="#000000" />
<rect x="144" y="184" width="8.3" height="8.3" fill="#000000" />
<rect x="184" y="184" width="8.3" height="8.3" fill="#000000" />
<rect x="32" y="192" width="8.3" height="8.3" fill="#000000" />
<rect x="40" y="192" width="8.3" height="8.3" fill="#000000" />
<rect x="48" y="192" width="8.3" height="8.3" fill="#000000" />
<rect x="56" y="192" width="8.3" height="8.3" fill="#000000" />
<rect x="64" y="192" width="8.3" height="8.3" fill="#000000" />
<rect x="72" y="192" width="8.3" height="8.3" fill="#000000" />
<rect x="80" y="192" width="8.3" height="8.3" fill="#000000" />
<rect x="96" y="192" width="8.3" height="8.3" fill="#000000" />
<rect x="112" y="192" width="8.3" height="8.3" fill="#000000" />
<rect x="120" y="192" width="8.3" height="8.3" fill="#000000" />
<rect x="128" y="192" width="8.3" height="8.3" fill="#000000" />
<rect x="136" y="192" width="8.3" height="8.3" fill="#000000" />
<rect x="144" y="192" width="8.3" height="8.3" fill="#000000" />
<rect x="152" y="192" width="8.3" height="8.3" fill="#000000" />
<rect x="160" y="192" width="8.3" height="8.3" fill="#000000" />
<rect x="168" y="192" width="8.3" height="8.3" fill="#000000" />
<rect x="176" y="192" width="8.3" height="8.3" fill="#000000" />
<rect x="184" y="192" width="8.3" height="8.3" fill="#000000" />
<rect x="192" y="192" width="8.3" height="8.3" fill="#000000" />
</svg>