<svg xmlns="http://www.w3.org/2000/svg" width="232" height="232" viewBox="0 0 29 29" shape-rendering="crispEdges"><path fill="#ffffff" d="M0 0h29v29H0z"/><path fill="#000000" fill-rule="evenodd" d="M4 4h7v1h-7ZM13 4h1v1h-1ZM16 4h1v1h-1ZM18 4h7v1h-7ZM4 5h1v5h-1ZM10 5h1v5h-1ZM13 5h4v1h-4ZM18 5h1v5h-1ZM24 5h1v5h-1ZM6 6h3v3h-3ZM12 6h2v1h-2ZM16 6h1v1h-1ZM20 6h3v3h-3ZM12 7h1v1h-1ZM14 7h2v1h-2ZM12 8h2v1h-2ZM15 8h2v1h-2ZM12 9h3v1h-3ZM16 9h1v2h-1ZM4 10h7v1h-7ZM12 10h1v2h-1ZM14 10h1v1h-1ZM18 10h7v1h-7ZM15 11h2v1h-2ZM4 12h1v2h-1ZM6 12h5v1h-5ZM14 12h1v1h-1ZM16 12h1v1h-1ZM18 12h5v1h-5ZM6 13h4v1h-4ZM11 13h2v1h-2ZM16 13h2v1h-2ZM20 13h5v1h-5ZM6 14h1v1h-1ZM9 14h3v1h-3ZM14 14h2v1h-2ZM19 14h1v2h-1ZM21 14h1v1h-1ZM24 14h1v1h-1ZM6 15h2v1h-2ZM12 15h1v1h-1ZM5 16h3v1h-3ZM9 16h4v1h-4ZM14 16h2v1h-2ZM22 16h1v1h-1ZM12 17h1v1h-1ZM14 17h5v1h-5ZM21 17h1v1h-1ZM23 17h2v1h-2ZM4 18h7v1h-7ZM13 18h2v1h-2ZM16 18h1v1h-1ZM18 18h1v1h-1ZM20 18h3v1h-3ZM24 18h1v1h-1ZM4 19h1v5h-1ZM10 19h1v5h-1ZM12 19h8v1h-8ZM22 19h2v1h-2ZM6 20h3v3h-3ZM12 20h1v3h-1ZM14 20h1v2h-1ZM16 20h1v2h-1ZM21 20h3v1h-3ZM19 21h1v1h-1ZM21 21h2v1h-2ZM15 22h1v1h-1ZM17 22h1v1h-1ZM20 22h2v1h-2ZM22 23h1v1h-1ZM24 23h1v1h-1ZM4 24h7v1h-7ZM12 24h1v1h-1ZM14 24h2v1h-2ZM17 24h1v1h-1ZM20 24h1v1h-1Z"/></svg>