<svg xmlns="http://www.w3.org/2000/svg" width="264" height="264" viewBox="0 0 33 33" shape-rendering="crispEdges"><path fill="#ffffff" d="M0 0h33v33H0z"/><path fill="#000000" fill-rule="evenodd" d="M4 4h7v1h-7ZM18 4h1v1h-1ZM22 4h7v1h-7ZM4 5h1v5h-1ZM10 5h1v5h-1ZM12 5h6v1h-6ZM22 5h1v5h-1ZM28 5h1v5h-1ZM6 6h3v3h-3ZM14 6h3v1h-3ZM19 6h1v1h-1ZM24 6h3v3h-3ZM13 7h2v1h-2ZM17 7h1v1h-1ZM20 7h1v2h-1ZM12 8h1v1h-1ZM15 8h3v1h-3ZM13 9h2v1h-2ZM18 9h3v1h-3ZM4 10h7v1h-7ZM12 10h1v1h-1ZM14 10h1v1h-1ZM16 10h1v1h-1ZM18 10h1v1h-1ZM20 10h1v1h-1ZM22 10h7v1h-7ZM15 11h1v1h-1ZM19 11h1v1h-1ZM4 12h1v1h-1ZM6 12h1v1h-1ZM8 12h1v1h-1ZM10 12h1v1h-1ZM14 12h1v1h-1ZM16 12h1v1h-1ZM20 12h1v1h-1ZM24 12h1v2h-1ZM27 12h1v1h-1ZM5 13h1v1h-1ZM7 13h1v2h-1ZM9 13h1v1h-1ZM13 13h1v1h-1ZM16 13h2v1h-2ZM19 13h4v1h-4ZM26 13h1v1h-1ZM28 13h1v1h-1ZM9 14h2v1h-2ZM12 14h3v1h-3ZM18 14h4v1h-4ZM23 14h2v1h-2ZM4 15h1v1h-1ZM6 15h1v1h-1ZM11 15h3v1h-3ZM17 15h2v1h-2ZM20 15h1v1h-1ZM22 15h4v1h-4ZM27 15h1v2h-1ZM4 16h2v1h-2ZM10 16h3v1h-3ZM15 16h1v2h-1ZM18 16h2v2h-2ZM21 16h1v1h-1ZM5 17h2v1h-2ZM13 17h1v1h-1ZM21 17h2v1h-2ZM24 17h2v1h-2ZM28 17h1v2h-1ZM4 18h1v1h-1ZM7 18h4v1h-4ZM12 18h3v1h-3ZM17 18h1v1h-1ZM21 18h3v1h-3ZM26 18h1v1h-1ZM5 19h1v1h-1ZM8 19h1v1h-1ZM11 19h2v1h-2ZM15 19h1v1h-1ZM19 19h1v1h-1ZM23 19h2v1h-2ZM26 19h2v1h-2ZM4 20h1v1h-1ZM7 20h1v1h-1ZM10 20h2v1h-2ZM13 20h1v1h-1ZM16 20h1v1h-1ZM20 20h8v1h-8ZM12 21h1v1h-1ZM15 21h3v1h-3ZM19 21h2v1h-2ZM24 21h2v1h-2ZM4 22h7v1h-7ZM13 22h4v1h-4ZM18 22h1v1h-1ZM20 22h1v2h-1ZM22 22h1v1h-1ZM24 22h1v2h-1ZM26 22h1v1h-1ZM4 23h1v5h-1ZM10 23h1v5h-1ZM13 23h2v1h-2ZM16 23h3v1h-3ZM26 23h2v1h-2ZM6 24h3v3h-3ZM12 24h4v1h-4ZM18 24h8v1h-8ZM13 25h1v1h-1ZM15 25h1v1h-1ZM18 25h5v1h-5ZM26 25h2v1h-2ZM12 26h2v1h-2ZM17 26h1v1h-1ZM19 26h1v2h-1ZM22 26h1v2h-1ZM24 26h2v1h-2ZM28 26h1v1h-1ZM13 27h3v1h-3ZM24 27h1v1h-1ZM27 27h2v1h-2ZM4 28h7v1h-7ZM12 28h3v1h-3ZM16 28h1v1h-1ZM20 28h1v1h-1ZM22 28h2v1h-2ZM28 28h1v1h-1Z"/></svg>