<svg xmlns="http://www.w3.org/2000/svg" width="296" height="296" viewBox="0 0 37 37" role="img" shape-rendering="crispEdges"><path fill="#ffffff" d="M0 0h37v37H0z"/><path fill="#000000" fill-rule="evenodd" d="M4 4h7v1h-7ZM13 4h2v1h-2ZM16 4h2v1h-2ZM20 4h2v1h-2ZM24 4h1v2h-1ZM26 4h7v1h-7ZM4 5h1v5h-1ZM10 5h1v5h-1ZM17 5h3v1h-3ZM22 5h1v2h-1ZM26 5h1v5h-1ZM32 5h1v5h-1ZM6 6h3v3h-3ZM14 6h4v1h-4ZM20 6h1v1h-1ZM28 6h3v3h-3ZM13 7h1v1h-1ZM16 7h4v1h-4ZM21 7h3v1h-3ZM16 8h3v1h-3ZM20 8h1v1h-1ZM22 8h2v1h-2ZM12 9h1v2h-1ZM14 9h1v2h-1ZM17 9h2v1h-2ZM24 9h1v2h-1ZM4 10h7v1h-7ZM16 10h1v1h-1ZM18 10h1v2h-1ZM20 10h1v1h-1ZM22 10h1v1h-1ZM26 10h7v1h-7ZM13 11h1v1h-1ZM15 11h2v1h-2ZM21 11h4v1h-4ZM4 12h1v1h-1ZM7 12h1v1h-1ZM9 12h2v1h-2ZM12 12h3v1h-3ZM16 12h1v1h-1ZM19 12h1v1h-1ZM21 12h5v1h-5ZM27 12h1v2h-1ZM8 13h2v1h-2ZM11 13h4v1h-4ZM18 13h2v1h-2ZM22 13h2v1h-2ZM25 13h1v1h-1ZM29 13h1v1h-1ZM31 13h2v1h-2ZM6 14h1v1h-1ZM10 14h2v1h-2ZM14 14h2v1h-2ZM20 14h2v1h-2ZM23 14h1v1h-1ZM25 14h2v1h-2ZM28 14h2v1h-2ZM4 15h1v1h-1ZM8 15h1v3h-1ZM11 15h3v1h-3ZM18 15h2v1h-2ZM21 15h1v1h-1ZM23 15h4v1h-4ZM29 15h2v1h-2ZM5 16h2v1h-2ZM10 16h1v1h-1ZM13 16h3v2h-3ZM20 16h1v1h-1ZM24 16h2v1h-2ZM28 16h1v1h-1ZM30 16h3v1h-3ZM6 17h1v1h-1ZM11 17h1v1h-1ZM19 17h1v1h-1ZM21 17h1v1h-1ZM24 17h4v1h-4ZM29 17h2v1h-2ZM32 17h1v2h-1ZM6 18h2v1h-2ZM9 18h2v1h-2ZM12 18h3v1h-3ZM16 18h1v1h-1ZM19 18h5v1h-5ZM26 18h3v1h-3ZM30 18h1v1h-1ZM4 19h1v1h-1ZM11 19h4v1h-4ZM17 19h2v1h-2ZM20 19h3v1h-3ZM24 19h1v1h-1ZM27 19h3v1h-3ZM8 20h5v1h-5ZM14 20h1v1h-1ZM16 20h5v1h-5ZM22 20h1v1h-1ZM29 20h1v1h-1ZM31 20h1v1h-1ZM5 21h1v1h-1ZM9 21h1v1h-1ZM12 21h1v1h-1ZM15 21h2v1h-2ZM19 21h1v1h-1ZM21 21h4v1h-4ZM28 21h2v1h-2ZM31 21h2v1h-2ZM4 22h1v1h-1ZM7 22h1v1h-1ZM10 22h3v1h-3ZM16 22h2v1h-2ZM21 22h1v1h-1ZM25 22h1v2h-1ZM27 22h4v1h-4ZM7 23h3v1h-3ZM11 23h2v1h-2ZM14 23h2v1h-2ZM17 23h1v1h-1ZM19 23h2v1h-2ZM27 23h6v1h-6ZM4 24h1v1h-1ZM6 24h1v1h-1ZM10 24h1v1h-1ZM18 24h1v1h-1ZM20 24h2v1h-2ZM24 24h5v1h-5ZM32 24h1v1h-1ZM12 25h1v1h-1ZM15 25h3v1h-3ZM19 25h3v1h-3ZM23 25h2v1h-2ZM28 25h4v2h-4ZM4 26h7v1h-7ZM17 26h3v1h-3ZM22 26h3v1h-3ZM26 26h1v1h-1ZM4 27h1v5h-1ZM10 27h1v5h-1ZM12 27h1v1h-1ZM15 27h1v1h-1ZM17 27h1v1h-1ZM20 27h1v1h-1ZM22 27h1v1h-1ZM24 27h1v1h-1ZM28 27h1v1h-1ZM30 27h3v1h-3ZM6 28h3v3h-3ZM13 28h4v1h-4ZM18 28h2v1h-2ZM22 28h9v1h-9ZM12 29h1v1h-1ZM16 29h1v1h-1ZM18 29h3v1h-3ZM22 29h1v1h-1ZM24 29h1v1h-1ZM28 29h3v1h-3ZM32 29h1v3h-1ZM13 30h1v2h-1ZM18 30h1v1h-1ZM23 30h2v1h-2ZM26 30h1v1h-1ZM29 30h2v1h-2ZM15 31h1v1h-1ZM19 31h1v1h-1ZM25 31h1v1h-1ZM29 31h1v1h-1ZM4 32h7v1h-7ZM12 32h1v1h-1ZM15 32h2v1h-2ZM18 32h1v1h-1ZM23 32h3v1h-3ZM29 32h3v1h-3Z"/></svg>