<svg xmlns="http://www.w3.org/2000/svg" width="232" height="232" viewBox="0 0 29 29" shape-rendering="crispEdges"><path fill="#ffffff" d="M0 0h29v29H0z"/><path fill="#000000" fill-rule="evenodd" d="M4 4h7v1h-7ZM12 4h1v1h-1ZM15 4h2v1h-2ZM18 4h7v1h-7ZM4 5h1v5h-1ZM10 5h1v5h-1ZM13 5h1v1h-1ZM16 5h1v1h-1ZM18 5h1v5h-1ZM24 5h1v5h-1ZM6 6h3v3h-3ZM12 6h1v1h-1ZM15 6h1v1h-1ZM20 6h3v3h-3ZM13 7h1v1h-1ZM15 7h2v3h-2ZM12 9h2v1h-2ZM4 10h7v1h-7ZM12 10h1v1h-1ZM14 10h1v1h-1ZM16 10h1v2h-1ZM18 10h7v1h-7ZM4 12h1v2h-1ZM6 12h1v2h-1ZM10 12h2v1h-2ZM14 12h1v1h-1ZM19 12h1v1h-1ZM22 12h1v1h-1ZM24 12h1v1h-1ZM8 13h1v2h-1ZM12 13h4v1h-4ZM17 13h3v1h-3ZM21 13h1v1h-1ZM23 13h2v1h-2ZM4 14h3v1h-3ZM10 14h1v1h-1ZM12 14h2v1h-2ZM15 14h3v1h-3ZM19 14h2v1h-2ZM23 14h1v1h-1ZM4 15h2v2h-2ZM7 15h3v1h-3ZM11 15h1v1h-1ZM13 15h1v2h-1ZM15 15h1v1h-1ZM17 15h3v1h-3ZM23 15h2v1h-2ZM7 16h5v1h-5ZM15 16h7v1h-7ZM24 16h1v1h-1ZM12 17h1v1h-1ZM14 17h1v1h-1ZM4 18h7v1h-7ZM12 18h3v1h-3ZM18 18h1v1h-1ZM23 18h1v1h-1ZM4 19h1v5h-1ZM10 19h1v5h-1ZM16 19h1v1h-1ZM20 19h1v1h-1ZM24 19h1v1h-1ZM6 20h3v3h-3ZM13 20h2v1h-2ZM18 20h1v1h-1ZM22 20h3v1h-3ZM13 21h3v1h-3ZM17 21h2v1h-2ZM21 21h1v1h-1ZM12 22h2v1h-2ZM15 22h3v1h-3ZM19 22h2v1h-2ZM22 22h3v1h-3ZM15 23h1v1h-1ZM17 23h2v1h-2ZM23 23h1v1h-1ZM4 24h7v1h-7ZM12 24h1v1h-1ZM14 24h11v1h-11Z"/></svg>