<svg xmlns="http://www.w3.org/2000/svg" width="1480" height="1480" viewBox="0 0 185 185" shape-rendering="crispEdges"><path fill="#ffffff" d="M0 0h185v185H0z"/><path stroke="#000000" d="M4 4.5h7m2 0h1m3 0h1m1 0h1m1 0h2m3 0h4m1 0h1m1 0h1m2 0h2m2 0h4m1 0h2m4 0h1m1 0h2m2 0h1m2 0h2m3 0h2m1 0h2m3 0h2m1 0h2m3 0h2m1 0h2m4 0h1m3 0h2m1 0h1m3 0h2m1 0h2m3 0h2m1 0h2m4 0h2m2 0h2m1 0h1m3 0h2m1 0h2m5 0h3m4 0h2m1 0h1m1 0h1m1 0h2m2 0h1m1 0h1m1 0h2m2 0h1m1 0h1m1 0h2m3 0h7M4 5.5h1m5 0h1m3 0h2m1 0h1m3 0h4m2 0h1m1 0h1m3 0h1m2 0h1m2 0h8m3 0h1m1 0h3m3 0h1m1 0h1m4 0h2m3 0h1m1 0h3m3 0h1m1 0h3m3 0h1m1 0h1m7 0h1m1 0h1m2 0h2m1 0h1m1 0h1m2 0h2m1 0h1m1 0h1m4 0h1m2 0h1m1 0h3m3 0h1m1 0h3m2 0h1m1 0h1m1 0h2m5 0h1m1 0h1m1 0h3m3 0h1m1 0h3m3 0h1m1 0h1m1 0h1m1 0h1m1 0h1m5 0h1M4 6.5h1m1 0h3m1 0h1m1 0h1m1 0h1m2 0h1m9 0h1m1 0h1m1 0h1m2 0h5m2 0h1m1 0h3m2 0h2m3 0h1m2 0h1m1 0h2m4 0h2m2 0h1m1 0h1m2 0h1m2 0h1m1 0h1m2 0h1m2 0h1m1 0h2m4 0h2m2 0h2m4 0h1m1 0h2m3 0h2m1 0h2m5 0h1m2 0h1m2 0h1m2 0h1m1 0h2m1 0h1m2 0h4m1 0h1m2 0h1m1 0h2m2 0h1m2 0h1m2 0h1m1 0h1m2 0h1m2 0h1m1 0h1m2 0h2m3 0h1m1 0h3m1 0h1M4 7.5h1m1 0h3m1 0h1m2 0h2m2 0h1m4 0h1m1 0h1m1 0h2m2 0h2m1 0h2m1 0h1m1 0h3m1 0h2m2 0h1m1 0h2m4 0h1m1 0h1m2 0h2m1 0h1m2 0h2m1 0h1m1 0h1m2 0h2m1 0h1m1 0h1m2 0h2m1 0h1m1 0h3m1 0h1m1 0h2m2 0h1m1 0h1m5 0h1m1 0h1m2 0h2m1 0h1m1 0h1m5 0h1m3 0h1m1 0h1m4 0h1m2 0h1m2 0h2m3 0h1m5 0h1m5 0h1m1 0h1m5 0h1m1 0h1m6 0h2m1 0h1m1 0h3m1 0h1M4 8.5h1m1 0h3m1 0h1m4 0h1m2 0h3m1 0h2m2 0h2m1 0h1m2 0h5m1 0h3m4 0h1m2 0h2m1 0h1m1 0h1m2 0h2m1 0h7m1 0h1m2 0h1m1 0h2m1 0h1m2 0h1m1 0h2m1 0h1m2 0h10m2 0h1m1 0h1m2 0h1m2 0h1m1 0h2m1 0h1m2 0h1m1 0h5m2 0h1m2 0h1m1 0h1m2 0h1m2 0h1m1 0h2m2 0h1m1 0h1m1 0h5m1 0h1m2 0h1m2 0h1m1 0h1m2 0h1m2 0h1m1 0h1m2 0h1m4 0h1m1 0h3m1 0h1M4 9.5h1m5 0h1m2 0h4m2 0h1m5 0h1m2 0h1m1 0h1m1 0h1m3 0h3m1 0h1m1 0h1m3 0h1m1 0h1m1 0h3m1 0h1m1 0h2m2 0h1m3 0h1m1 0h1m1 0h1m5 0h1m1 0h1m2 0h2m1 0h1m1 0h1m2 0h2m3 0h5m3 0h1m1 0h3m3 0h1m1 0h3m2 0h2m3 0h1m2 0h2m1 0h1m1 0h1m3 0h1m1 0h1m1 0h1m3 0h1m1 0h3m3 0h1m5 0h1m1 0h1m5 0h1m1 0h1m5 0h1m1 0h1m1 0h1m5 0h1M4 10.5h7m1 0h1m1 0h1m1 0h1m1 0h1m1 0h1m1 0h1m1 0h1m1 0h1m1 0h1m1 0h1m1 0h1m1 0h1m1 0h1m1 0h1m1 0h1m1 0h1m1 0h1m1 0h1m1 0h1m1 0h1m1 0h1m1 0h1m1 0h1m1 0h1m1 0h1m1 0h1m1 0h1m1 0h1m1 0h1m1 0h1m1 0h1m1 0h1m1 0h1m1 0h1m1 0h1m1 0h1m1 0h1m1 0h1m1 0h1m1 0h1m1 0h1m1 0h1m1 0h1m1 0h1m1 0h1m1 0h1m1 0h1m1 0h1m1 0h1m1 0h1m1 0h1m1 0h1m1 0h1m1 0h1m1 0h1m1 0h1m1 0h1m1 0h1m1 0h1m1 0h1m1 0h1m1 0h1m1 0h1m1 0h1m1 0h1m1 0h1m1 0h1m1 0h1m1 0h1m1 0h1m1 0h1m1 0h1m1 0h1m1 0h1m1 0h1m1 0h1m1 0h1m1 0h1m1 0h1m1 0h1m1 0h1m1 0h7M12 11.5h2m1 0h1m5 0h3m1 0h1m1 0h1m1 0h1m1 0h2m3 0h1m2 0h2m1 0h2m1 0h1m2 0h2m3 0h1m2 0h1m2 0h2m3 0h2m2 0h4m1 0h1m2 0h3m2 0h1m2 0h3m1 0h1m3 0h2m2 0h2m1 0h1m4 0h2m1 0h1m1 0h2m1 0h2m2 0h1m3 0h3m2 0h1m2 0h6m2 0h3m1 0h2m2 0h1m3 0h4m1 0h1m2 0h4m1 0h1m2 0h4m1 0h1m2 0h1M4 12.5h3m1 0h5m1 0h1m3 0h1m4 0h3m3 0h1m2 0h7m3 0h2m1 0h2m2 0h2m1 0h3m4 0h7m3 0h3m1 0h1m3 0h2m1 0h2m3 0h10m2 0h3m5 0h3m1 0h1m3 0h9m1 0h1m1 0h3m1 0h1m1 0h1m1 0h3m1 0h1m2 0h10m1 0h1m1 0h2m2 0h1m1 0h1m1 0h2m2 0h1m1 0h1m1 0h2m2 0h2m3 0h1M6 13.5h1m2 0h1m3 0h1m4 0h1m1 0h2m2 0h1m1 0h2m2 0h1m2 0h1m2 0h1m2 0h2m1 0h1m2 0h1m2 0h1m1 0h1m2 0h1m2 0h2m4 0h2m1 0h1m3 0h2m1 0h2m3 0h2m1 0h2m3 0h6m2 0h2m2 0h2m1 0h1m1 0h1m2 0h2m1 0h1m1 0h1m2 0h3m1 0h4m1 0h5m1 0h1m1 0h1m1 0h3m1 0h1m1 0h1m1 0h3m1 0h8m2 0h1m1 0h4m1 0h1m2 0h4m1 0h1m3 0h1m2 0h1m1 0h2M10 14.5h3m1 0h1m2 0h1m2 0h2m4 0h3m1 0h1m1 0h1m4 0h3m1 0h1m2 0h3m3 0h1m1 0h3m2 0h2m1 0h1m2 0h1m1 0h2m2 0h1m2 0h3m2 0h1m1 0h4m2 0h1m1 0h3m2 0h2m2 0h2m3 0h1m2 0h2m4 0h1m1 0h2m1 0h1m1 0h1m1 0h1m1 0h1m1 0h4m2 0h1m3 0h2m2 0h1m1 0h1m1 0h3m1 0h1m1 0h3m1 0h1m2 0h1m2 0h1m1 0h1m1 0h2m2 0h1m1 0h1m1 0h2m2 0h3m2 0h2M6 15.5h2m4 0h4m2 0h2m1 0h2m1 0h1m2 0h1m1 0h1m1 0h2m2 0h2m1 0h1m2 0h1m2 0h3m5 0h3m2 0h2m3 0h1m1 0h3m3 0h1m1 0h3m3 0h2m1 0h2m3 0h2m2 0h1m1 0h1m4 0h2m1 0h3m2 0h2m1 0h1m1 0h1m2 0h2m1 0h1m1 0h3m1 0h2m1 0h2m3 0h1m2 0h2m3 0h5m1 0h5m1 0h1m1 0h1m5 0h1m1 0h3m3 0h1m1 0h3m2 0h1m2 0h1m3 0h1M4 16.5h5m1 0h1m2 0h2m1 0h1m1 0h2m1 0h1m2 0h1m1 0h3m3 0h1m1 0h3m2 0h5m1 0h1m2 0h1m2 0h1m1 0h1m2 0h2m2 0h2m1 0h1m1 0h2m1 0h2m1 0h1m1 0h2m1 0h2m1 0h1m1 0h2m1 0h2m4 0h2m4 0h2m3 0h1m2 0h2m3 0h1m2 0h2m3 0h1m1 0h2m1 0h1m2 0h1m4 0h2m1 0h1m4 0h2m1 0h1m3 0h1m1 0h2m1 0h1m5 0h1m1 0h1m2 0h1m2 0h1m1 0h1m2 0h1m2 0h4M6 17.5h1m1 0h1m2 0h5m3 0h1m3 0h4m2 0h1m1 0h1m5 0h3m2 0h1m1 0h3m2 0h1m2 0h3m5 0h2m2 0h3m1 0h1m1 0h5m1 0h1m1 0h1m1 0h3m1 0h1m1 0h1m3 0h2m2 0h1m1 0h1m1 0h1m3 0h1m1 0h1m1 0h1m2 0h1m2 0h1m1 0h1m1 0h1m1 0h2m6 0h1m4 0h2m1 0h1m5 0h1m1 0h1m3 0h2m2 0h1m1 0h2m4 0h1m1 0h1m5 0h1m1 0h3m1 0h5m3 0h1M4 18.5h2m2 0h5m1 0h1m1 0h1m1 0h3m1 0h1m4 0h5m1 0h1m2 0h1m2 0h1m2 0h2m1 0h1m2 0h4m1 0h1m2 0h1m2 0h1m1 0h1m3 0h1m2 0h1m1 0h2m1 0h1m2 0h1m1 0h1m1 0h2m2 0h1m1 0h1m1 0h1m1 0h2m1 0h1m1 0h1m2 0h1m1 0h1m1 0h2m2 0h1m1 0h4m2 0h1m3 0h3m1 0h1m1 0h2m2 0h1m1 0h4m2 0h1m1 0h1m2 0h1m4 0h2m2 0h1m2 0h2m1 0h1m1 0h1m5 0h1m1 0h1m2 0h1m2 0h2m1 0h2M4 19.5h1m3 0h1m4 0h4m8 0h2m1 0h2m2 0h2m2 0h1m1 0h3m2 0h2m1 0h1m1 0h5m1 0h1m1 0h1m1 0h1m1 0h1m1 0h1m3 0h1m1 0h1m3 0h1m1 0h1m1 0h1m3 0h1m1 0h1m1 0h1m3 0h1m3 0h3m1 0h1m1 0h1m3 0h1m1 0h1m1 0h1m3 0h1m1 0h1m1 0h1m4 0h1m4 0h1m1 0h1m1 0h1m2 0h1m2 0h1m1 0h1m5 0h1m3 0h2m5 0h2m1 0h1m5 0h1m1 0h1m5 0h1m1 0h1m2 0h2m1 0h1M4 20.5h1m1 0h1m1 0h1m1 0h1m2 0h1m3 0h2m1 0h2m2 0h5m3 0h9m2 0h2m1 0h2m1 0h1m1 0h2m1 0h2m1 0h1m1 0h1m2 0h1m2 0h1m1 0h1m2 0h1m2 0h1m1 0h1m2 0h2m1 0h1m1 0h1m2 0h3m4 0h1m1 0h1m2 0h1m1 0h2m1 0h1m2 0h1m1 0h1m1 0h2m2 0h1m1 0h1m1 0h2m3 0h2m1 0h1m1 0h1m5 0h1m1 0h1m2 0h1m2 0h1m1 0h1m1 0h2m4 0h2m1 0h1m4 0h2m1 0h1m4 0h1m1 0h2m3 0h3m2 0h1M9 21.5h1m5 0h2m2 0h1m2 0h1m1 0h1m1 0h2m1 0h1m2 0h1m2 0h1m1 0h4m2 0h2m1 0h1m1 0h1m2 0h2m1 0h1m1 0h5m5 0h3m5 0h3m2 0h2m1 0h3m2 0h1m4 0h1m1 0h3m3 0h2m1 0h2m3 0h1m2 0h2m7 0h1m1 0h2m4 0h1m1 0h1m5 0h1m1 0h3m3 0h1m3 0h1m7 0h1m4 0h2m1 0h1m2 0h2m1 0h3m1 0h2m2 0h1M4 22.5h1m1 0h1m2 0h2m5 0h2m1 0h1m7 0h1m1 0h1m1 0h1m3 0h2m3 0h1m2 0h2m1 0h2m3 0h2m1 0h2m1 0h1m1 0h3m2 0h1m1 0h2m3 0h1m2 0h2m3 0h1m2 0h2m3 0h1m3 0h1m2 0h3m2 0h1m1 0h4m2 0h1m3 0h2m3 0h1m2 0h1m3 0h1m2 0h2m4 0h1m1 0h2m3 0h2m1 0h1m1 0h1m7 0h1m2 0h1m4 0h2m1 0h1m3 0h3m1 0h1m1 0h1m1 0h1m1 0h1m2 0h1M5 23.5h1m1 0h1m4 0h2m2 0h1m1 0h11m3 0h9m1 0h2m3 0h2m1 0h2m3 0h2m1 0h4m2 0h1m2 0h2m1 0h3m2 0h2m1 0h1m1 0h1m2 0h2m1 0h1m1 0h1m1 0h3m1 0h3m3 0h1m1 0h3m3 0h2m1 0h2m3 0h1m1 0h1m1 0h1m1 0h1m1 0h1m2 0h2m1 0h1m1 0h1m2 0h2m1 0h2m4 0h1m3 0h1m1 0h1m1 0h1m1 0h3m1 0h1m1 0h1m1 0h3m1 0h2m1 0h1m1 0h5m1 0h1m2 0h1M4 24.5h4m2 0h1m1 0h1m2 0h1m3 0h2m2 0h7m1 0h1m1 0h1m2 0h1m1 0h1m2 0h1m1 0h1m3 0h3m1 0h1m3 0h2m1 0h5m1 0h2m1 0h2m2 0h2m1 0h3m5 0h3m3 0h2m1 0h3m1 0h2m2 0h1m2 0h3m2 0h1m1 0h4m2 0h1m5 0h1m2 0h1m2 0h1m1 0h1m1 0h2m2 0h1m1 0h1m1 0h2m2 0h1m5 0h1m1 0h1m1 0h1m1 0h3m1 0h1m2 0h4m1 0h1m1 0h5m1 0h1m1 0h3M5 25.5h1m1 0h1m3 0h1m2 0h4m1 0h1m3 0h2m5 0h2m2 0h3m1 0h1m3 0h2m3 0h2m1 0h2m3 0h2m1 0h2m1 0h2m1 0h2m1 0h1m2 0h2m3 0h1m2 0h1m4 0h1m2 0h1m1 0h1m1 0h1m1 0h2m1 0h1m2 0h3m2 0h1m2 0h6m2 0h1m1 0h1m1 0h1m2 0h1m2 0h1m1 0h4m1 0h1m2 0h4m1 0h1m2 0h3m1 0h1m3 0h1m1 0h5m1 0h2m2 0h3m1 0h1m3 0h2m2 0h1m1 0h1m1 0h1m1 0h1M4 26.5h2m1 0h1m2 0h2m1 0h1m2 0h1m1 0h1m7 0h1m1 0h1m1 0h2m1 0h2m1 0h6m1 0h1m3 0h3m1 0h1m3 0h3m1 0h1m2 0h2m1 0h5m5 0h3m1 0h1m3 0h3m1 0h1m1 0h1m3 0h3m1 0h1m1 0h2m2 0h1m1 0h1m1 0h3m1 0h1m1 0h1m1 0h1m1 0h1m3 0h1m1 0h1m3 0h3m1 0h1m3 0h3m1 0h1m3 0h1m1 0h1m2 0h2m1 0h1m1 0h1m1 0h3m1 0h1m1 0h1m1 0h3m2 0h1m1 0h3m1 0h1m3 0h2M4 27.5h2m2 0h2m1 0h3m1 0h2m3 0h5m2 0h2m1 0h1m1 0h1m1 0h2m5 0h1m2 0h1m1 0h2m1 0h1m2 0h1m1 0h2m1 0h1m1 0h1m3 0h5m1 0h1m4 0h2m1 0h1m1 0h2m1 0h2m1 0h1m1 0h3m3 0h1m1 0h1m2 0h4m1 0h1m2 0h3m2 0h1m2 0h4m3 0h1m1 0h2m1 0h2m1 0h1m2 0h1m1 0h2m1 0h1m2 0h1m1 0h3m1 0h1m2 0h1m1 0h2m1 0h2m1 0h1m2 0h2m1 0h1m1 0h1m2 0h1m2 0h1m2 0h1m1 0h1m2 0h2M5 28.5h7m3 0h2m4 0h1m1 0h1m4 0h2m1 0h2m1 0h2m1 0h1m1 0h4m2 0h1m1 0h1m1 0h2m2 0h1m1 0h1m1 0h3m3 0h1m2 0h2m1 0h1m2 0h4m1 0h1m1 0h2m2 0h1m1 0h1m1 0h1m1 0h2m1 0h4m1 0h1m1 0h5m1 0h1m1 0h2m2 0h1m1 0h1m1 0h3m2 0h4m1 0h1m1 0h5m1 0h1m1 0h5m1 0h1m1 0h3m2 0h5m1 0h2m1 0h2m2 0h3m1 0h3m3 0h1m1 0h1m5 0h2M11 29.5h1m1 0h2m1 0h3m1 0h2m2 0h1m1 0h1m1 0h1m1 0h1m1 0h1m1 0h2m1 0h1m2 0h2m2 0h1m1 0h2m1 0h1m2 0h1m1 0h2m1 0h1m2 0h1m1 0h3m3 0h2m2 0h3m1 0h2m1 0h1m2 0h1m1 0h2m2 0h2m1 0h4m1 0h2m1 0h1m1 0h2m1 0h2m1 0h1m2 0h1m1 0h2m2 0h2m2 0h3m1 0h2m1 0h1m1 0h2m1 0h2m1 0h1m1 0h2m1 0h2m1 0h1m1 0h1m2 0h2m2 0h1m1 0h2m1 0h1m2 0h1m1 0h2m1 0h1m1 0h1m1 0h1m2 0h2m3 0h1m1 0h2M6 30.5h2m1 0h2m6 0h1m1 0h1m1 0h4m1 0h1m2 0h1m2 0h1m1 0h2m3 0h4m2 0h1m1 0h1m1 0h2m2 0h1m1 0h1m1 0h2m2 0h4m2 0h1m1 0h5m1 0h1m1 0h2m2 0h1m1 0h1m1 0h2m2 0h5m3 0h3m1 0h1m3 0h3m1 0h1m3 0h2m2 0h6m2 0h1m1 0h1m1 0h2m2 0h1m1 0h1m1 0h2m2 0h1m1 0h5m1 0h2m2 0h1m1 0h1m1 0h3m2 0h2m1 0h3m1 0h3m1 0h2m1 0h5M4 31.5h6m3 0h1m1 0h1m4 0h4m3 0h3m1 0h3m5 0h4m2 0h1m2 0h3m2 0h1m2 0h3m1 0h4m2 0h1m1 0h4m2 0h1m1 0h3m2 0h1m2 0h3m2 0h3m1 0h2m1 0h2m1 0h1m1 0h2m1 0h2m3 0h2m1 0h2m3 0h3m1 0h2m2 0h1m2 0h3m2 0h1m2 0h3m2 0h1m1 0h1m1 0h1m2 0h3m2 0h1m2 0h5m3 0h3m1 0h3m1 0h1m1 0h1m2 0h3M5 32.5h8m1 0h1m5 0h1m2 0h2m1 0h4m2 0h7m2 0h1m2 0h3m2 0h1m2 0h3m2 0h1m2 0h7m2 0h3m5 0h2m1 0h2m3 0h2m1 0h6m3 0h3m1 0h1m3 0h2m1 0h2m3 0h2m1 0h6m3 0h3m1 0h1m3 0h3m1 0h1m3 0h9m2 0h3m2 0h1m1 0h2m4 0h1m3 0h1m2 0h6m1 0h1M6 33.5h1m1 0h1m3 0h2m3 0h2m1 0h2m2 0h1m3 0h1m1 0h3m3 0h1m2 0h4m2 0h1m2 0h3m2 0h1m2 0h3m1 0h1m3 0h3m2 0h2m1 0h1m1 0h1m2 0h2m1 0h1m1 0h1m2 0h2m1 0h1m3 0h1m1 0h1m2 0h2m1 0h1m1 0h1m2 0h2m1 0h1m1 0h1m2 0h4m3 0h1m1 0h1m2 0h2m1 0h1m1 0h1m2 0h2m1 0h1m1 0h1m2 0h2m1 0h1m3 0h5m1 0h1m1 0h3m1 0h2m2 0h3m1 0h1m3 0h1m3 0h1m2 0h1M8 34.5h1m1 0h1m1 0h1m1 0h1m2 0h2m2 0h1m3 0h2m3 0h3m1 0h1m1 0h4m1 0h1m2 0h3m2 0h1m2 0h3m2 0h1m1 0h2m1 0h1m1 0h2m3 0h1m2 0h2m3 0h1m2 0h1m1 0h1m2 0h1m1 0h2m1 0h1m1 0h1m1 0h1m1 0h2m4 0h1m1 0h2m1 0h1m2 0h1m1 0h2m2 0h1m1 0h1m1 0h2m2 0h1m1 0h1m2 0h1m2 0h3m2 0h1m2 0h5m1 0h1m1 0h2m1 0h2m1 0h1m2 0h1m3 0h2m2 0h1m1 0h1m3 0h2m1 0h1m1 0h1m2 0h1M6 35.5h3m3 0h4m1 0h2m1 0h3m1 0h2m3 0h1m1 0h2m3 0h1m1 0h2m2 0h1m1 0h3m3 0h1m1 0h3m3 0h3m3 0h1m1 0h1m3 0h1m1 0h2m4 0h1m1 0h1m5 0h3m3 0h1m1 0h1m2 0h2m1 0h1m1 0h1m2 0h3m2 0h1m2 0h2m1 0h1m3 0h1m1 0h1m1 0h1m5 0h1m1 0h3m3 0h1m1 0h3m1 0h1m3 0h1m1 0h2m6 0h1m2 0h2m3 0h3m1 0h3m3 0h1m1 0h1m1 0h1M4 36.5h11m1 0h1m1 0h4m2 0h5m3 0h5m2 0h1m2 0h2m1 0h1m2 0h1m1 0h2m1 0h1m2 0h1m1 0h1m1 0h5m3 0h2m1 0h1m1 0h1m2 0h2m1 0h1m1 0h1m2 0h2m2 0h5m1 0h1m1 0h2m1 0h1m2 0h1m1 0h2m1 0h1m2 0h1m1 0h2m1 0h6m1 0h1m1 0h1m5 0h1m1 0h2m4 0h1m1 0h2m1 0h6m1 0h2m4 0h1m1 0h1m1 0h2m2 0h1m1 0h4m2 0h6M6 37.5h1m1 0h2m1 0h1m1 0h3m1 0h4m2 0h2m4 0h1m1 0h1m1 0h2m1 0h5m1 0h1m1 0h3m3 0h1m1 0h5m1 0h3m1 0h1m3 0h1m1 0h1m1 0h3m1 0h1m1 0h1m1 0h4m2 0h1m1 0h3m1 0h1m1 0h1m3 0h1m1 0h3m3 0h1m1 0h1m1 0h1m3 0h1m1 0h2m4 0h1m3 0h1m1 0h1m5 0h1m1 0h1m5 0h1m1 0h1m1 0h1m3 0h1m1 0h1m7 0h3m5 0h1m1 0h3m1 0h2m1 0h1m1 0h2m1 0h1M4 38.5h2m2 0h1m1 0h4m2 0h1m1 0h1m3 0h1m4 0h6m1 0h2m3 0h2m1 0h2m1 0h1m2 0h1m1 0h2m1 0h1m1 0h2m1 0h1m1 0h2m2 0h2m2 0h1m1 0h2m2 0h1m1 0h1m1 0h2m1 0h2m1 0h1m1 0h3m3 0h1m2 0h1m2 0h3m2 0h1m2 0h1m4 0h1m2 0h1m4 0h1m2 0h2m1 0h2m1 0h1m1 0h2m4 0h1m1 0h2m1 0h1m1 0h2m5 0h1m1 0h1m3 0h1m1 0h3m3 0h1m1 0h1m2 0h1m2 0h4m1 0h1M4 39.5h1m3 0h2m3 0h1m1 0h2m3 0h1m7 0h2m1 0h1m1 0h4m1 0h1m4 0h2m1 0h1m1 0h1m2 0h2m1 0h2m3 0h2m1 0h1m1 0h2m2 0h1m2 0h2m3 0h1m2 0h4m1 0h1m2 0h2m1 0h1m1 0h1m3 0h1m1 0h1m1 0h1m3 0h1m1 0h1m1 0h1m3 0h1m1 0h1m1 0h1m1 0h2m3 0h4m1 0h1m2 0h2m1 0h1m1 0h1m2 0h2m1 0h1m1 0h1m1 0h1m5 0h1m1 0h1m1 0h1m2 0h1m2 0h1m1 0h1m5 0h5m1 0h1m1 0h1M4 40.5h1m1 0h1m1 0h4m5 0h2m1 0h2m1 0h1m1 0h4m4 0h2m2 0h2m4 0h2m1 0h2m3 0h2m1 0h2m3 0h1m1 0h1m1 0h1m1 0h1m1 0h1m2 0h4m1 0h1m2 0h3m1 0h2m2 0h2m1 0h1m1 0h1m3 0h1m2 0h1m4 0h1m2 0h2m3 0h1m2 0h1m1 0h2m1 0h1m3 0h1m1 0h1m2 0h1m2 0h1m1 0h1m2 0h1m2 0h1m2 0h1m1 0h1m6 0h1m1 0h1m1 0h1m3 0h1m1 0h1m1 0h1m4 0h1m1 0h3m1 0h2m2 0h1m1 0h1M9 41.5h1m1 0h2m2 0h2m2 0h1m2 0h2m1 0h3m1 0h1m1 0h1m1 0h1m3 0h4m2 0h2m1 0h2m3 0h2m1 0h1m5 0h2m2 0h1m1 0h3m2 0h1m1 0h1m1 0h2m2 0h1m3 0h2m4 0h1m1 0h2m1 0h3m5 0h3m2 0h2m1 0h3m2 0h2m1 0h1m1 0h1m1 0h3m1 0h1m1 0h1m1 0h4m2 0h1m1 0h3m3 0h1m1 0h1m4 0h1m2 0h1m1 0h1m5 0h1m1 0h1m2 0h2m1 0h3m3 0h1m1 0h1M4 42.5h1m1 0h1m1 0h3m5 0h2m1 0h1m7 0h1m1 0h1m2 0h5m3 0h1m2 0h2m1 0h2m3 0h2m1 0h1m1 0h1m2 0h1m1 0h3m2 0h2m3 0h5m3 0h2m2 0h1m3 0h1m1 0h1m1 0h1m1 0h1m1 0h2m3 0h2m1 0h2m2 0h3m1 0h2m2 0h1m1 0h1m5 0h2m2 0h1m3 0h3m1 0h1m3 0h3m2 0h2m2 0h1m2 0h1m1 0h1m1 0h1m4 0h2m1 0h1m3 0h3m1 0h1m5 0h1m2 0h1M5 43.5h1m1 0h3m6 0h1m1 0h5m1 0h5m2 0h1m2 0h2m1 0h4m1 0h2m4 0h1m1 0h2m4 0h1m1 0h1m2 0h1m1 0h2m2 0h2m1 0h2m1 0h4m1 0h2m2 0h3m1 0h1m2 0h1m1 0h2m1 0h3m2 0h2m1 0h3m3 0h1m1 0h3m4 0h1m2 0h1m1 0h2m2 0h3m1 0h2m2 0h3m1 0h2m1 0h1m1 0h3m2 0h1m1 0h1m1 0h2m1 0h2m1 0h1m1 0h2m1 0h2m1 0h2m1 0h1m4 0h1m2 0h1m2 0h1M4 44.5h4m2 0h3m1 0h3m2 0h2m1 0h2m1 0h5m4 0h1m1 0h1m1 0h1m2 0h1m1 0h1m5 0h1m1 0h1m3 0h1m1 0h1m1 0h1m1 0h5m1 0h2m2 0h1m2 0h3m2 0h1m1 0h4m2 0h1m1 0h5m1 0h2m2 0h3m1 0h2m4 0h1m1 0h2m4 0h3m1 0h1m1 0h3m1 0h1m1 0h1m1 0h2m1 0h2m1 0h1m1 0h7m2 0h2m3 0h5m1 0h1m1 0h5m1 0h1m1 0h3m1 0h2m2 0h3M5 45.5h1m1 0h2m2 0h3m1 0h3m1 0h1m1 0h2m7 0h1m1 0h1m5 0h2m2 0h2m4 0h1m1 0h2m3 0h1m2 0h2m1 0h5m1 0h1m2 0h1m1 0h1m2 0h1m2 0h1m1 0h4m2 0h2m1 0h3m1 0h1m1 0h1m2 0h2m1 0h1m1 0h1m2 0h1m2 0h1m1 0h1m2 0h1m1 0h2m1 0h3m1 0h1m1 0h1m1 0h3m1 0h1m3 0h3m1 0h1m1 0h5m2 0h1m1 0h1m1 0h2m1 0h2m1 0h2m1 0h1m1 0h2m1 0h2m1 0h1m3 0h2m5 0h1M4 46.5h2m1 0h2m1 0h5m3 0h1m2 0h3m2 0h1m1 0h1m1 0h2m1 0h6m2 0h1m1 0h1m3 0h1m1 0h1m1 0h1m3 0h1m1 0h1m1 0h1m1 0h1m1 0h7m1 0h1m3 0h3m1 0h1m1 0h1m1 0h3m3 0h7m1 0h1m1 0h1m1 0h3m1 0h1m2 0h4m1 0h1m1 0h7m1 0h1m1 0h1m1 0h3m1 0h1m1 0h1m1 0h3m1 0h1m2 0h2m1 0h3m1 0h1m1 0h1m1 0h5m1 0h1m1 0h5m1 0h1m1 0h3m1 0h1m2 0h1m1 0h2M9 47.5h1m1 0h2m7 0h1m1 0h1m1 0h1m2 0h8m1 0h1m2 0h1m1 0h1m2 0h1m1 0h4m2 0h1m1 0h1m1 0h2m1 0h1m1 0h3m1 0h3m1 0h1m2 0h1m1 0h2m1 0h1m2 0h1m1 0h2m1 0h1m1 0h1m1 0h3m1 0h1m1 0h1m2 0h1m2 0h1m1 0h1m2 0h4m1 0h1m2 0h1m1 0h3m1 0h2m2 0h1m1 0h2m1 0h1m2 0h2m1 0h1m1 0h1m2 0h1m4 0h5m1 0h5m1 0h1m2 0h4m1 0h1m2 0h4m2 0h1m1 0h1m2 0h2M4 48.5h8m9 0h1m1 0h2m3 0h1m6 0h3m3 0h2m2 0h1m1 0h4m2 0h1m3 0h2m2 0h1m1 0h1m1 0h3m1 0h1m3 0h3m1 0h1m5 0h1m1 0h1m3 0h1m1 0h1m1 0h3m1 0h1m2 0h4m1 0h1m1 0h5m1 0h1m1 0h1m1 0h1m3 0h3m2 0h6m1 0h7m3 0h1m1 0h3m1 0h5m1 0h1m1 0h2m2 0h1m1 0h1m1 0h2m2 0h1m3 0h1m2 0h1m2 0h2M4 49.5h1m4 0h1m1 0h1m2 0h1m1 0h3m1 0h2m4 0h1m1 0h1m5 0h1m1 0h2m3 0h1m2 0h3m1 0h2m2 0h1m1 0h1m1 0h2m4 0h2m1 0h2m1 0h2m3 0h2m1 0h2m4 0h1m1 0h2m2 0h1m1 0h1m1 0h3m1 0h2m2 0h3m1 0h2m1 0h1m1 0h2m1 0h2m3 0h2m2 0h2m1 0h1m2 0h1m1 0h2m1 0h4m1 0h2m1 0h1m1 0h1m2 0h5m2 0h4m1 0h1m2 0h4m1 0h1m2 0h4m2 0h1m1 0h1m2 0h2M4 50.5h4m1 0h2m1 0h6m1 0h1m1 0h1m1 0h1m2 0h1m4 0h3m1 0h1m3 0h1m1 0h2m2 0h1m3 0h2m2 0h1m1 0h1m1 0h2m3 0h2m1 0h1m1 0h1m1 0h2m2 0h1m1 0h1m1 0h2m2 0h1m1 0h1m1 0h3m1 0h1m1 0h1m1 0h1m3 0h3m1 0h1m3 0h3m1 0h1m3 0h3m1 0h1m2 0h3m2 0h1m1 0h1m1 0h2m3 0h2m1 0h2m2 0h3m1 0h1m1 0h4m2 0h1m1 0h1m1 0h2m2 0h1m1 0h1m1 0h2m2 0h1m4 0h2m3 0h2M5 51.5h4m3 0h1m3 0h1m3 0h2m2 0h1m2 0h2m1 0h2m7 0h4m3 0h1m2 0h2m2 0h1m1 0h4m1 0h1m1 0h1m1 0h1m1 0h1m1 0h3m3 0h1m1 0h3m2 0h1m2 0h3m1 0h1m1 0h1m1 0h3m1 0h2m1 0h1m1 0h2m1 0h2m3 0h2m1 0h2m1 0h2m1 0h5m2 0h1m2 0h3m5 0h3m2 0h3m2 0h2m1 0h2m3 0h1m1 0h3m3 0h1m1 0h3m3 0h1m1 0h1m2 0h2m1 0h2M4 52.5h2m3 0h2m2 0h2m5 0h1m3 0h1m1 0h8m2 0h6m2 0h1m1 0h1m1 0h2m2 0h6m1 0h2m1 0h1m2 0h1m3 0h2m1 0h2m3 0h2m1 0h2m3 0h4m1 0h1m2 0h1m3 0h3m1 0h1m3 0h2m1 0h2m3 0h4m1 0h4m3 0h3m1 0h1m6 0h2m3 0h1m2 0h1m2 0h3m2 0h1m1 0h1m2 0h1m2 0h1m1 0h1m2 0h1m2 0h1m1 0h2m2 0h2m1 0h1m1 0h1M4 53.5h2m2 0h1m3 0h1m1 0h1m1 0h3m1 0h1m2 0h2m3 0h1m2 0h3m1 0h1m3 0h1m1 0h2m3 0h5m3 0h1m1 0h3m1 0h1m3 0h1m1 0h1m2 0h2m1 0h1m1 0h1m2 0h2m1 0h1m1 0h1m2 0h2m1 0h1m5 0h1m2 0h2m1 0h1m1 0h1m2 0h2m1 0h1m1 0h1m2 0h2m1 0h1m1 0h2m2 0h1m2 0h2m1 0h1m1 0h1m3 0h1m1 0h1m1 0h1m3 0h1m1 0h1m1 0h2m1 0h2m3 0h1m1 0h3m3 0h1m1 0h3m3 0h1m1 0h1m2 0h2m1 0h2M4 54.5h1m2 0h1m1 0h2m1 0h1m4 0h2m2 0h2m1 0h3m2 0h1m3 0h1m1 0h4m1 0h2m2 0h2m1 0h3m2 0h1m1 0h1m2 0h1m1 0h2m5 0h1m2 0h1m2 0h1m1 0h1m2 0h1m2 0h1m1 0h1m2 0h1m2 0h1m1 0h1m3 0h1m1 0h2m4 0h1m1 0h2m1 0h1m2 0h1m1 0h2m2 0h1m1 0h2m1 0h1m2 0h1m1 0h1m2 0h1m2 0h4m1 0h1m2 0h1m3 0h2m1 0h1m1 0h1m2 0h1m1 0h1m2 0h1m2 0h1m1 0h1m2 0h1m2 0h1m1 0h3m2 0h3m1 0h1M4 55.5h1m1 0h2m1 0h1m1 0h2m1 0h5m1 0h2m1 0h3m7 0h1m1 0h1m2 0h1m3 0h1m1 0h2m1 0h1m2 0h1m1 0h1m5 0h1m1 0h1m9 0h1m1 0h1m5 0h1m1 0h1m5 0h1m1 0h1m5 0h1m5 0h1m1 0h1m2 0h2m1 0h1m1 0h1m2 0h4m5 0h1m1 0h1m5 0h1m1 0h5m1 0h1m1 0h1m1 0h4m2 0h1m1 0h1m1 0h1m5 0h1m1 0h1m5 0h1m1 0h1m3 0h1m1 0h2m1 0h1m2 0h1M5 56.5h3m2 0h3m2 0h1m2 0h5m1 0h8m1 0h1m1 0h1m6 0h2m1 0h3m2 0h2m4 0h1m1 0h1m1 0h1m3 0h1m1 0h1m1 0h2m1 0h1m2 0h1m1 0h2m1 0h1m2 0h1m1 0h2m2 0h1m3 0h1m1 0h1m1 0h1m2 0h1m2 0h1m1 0h2m1 0h1m2 0h1m1 0h2m2 0h1m3 0h1m1 0h1m1 0h1m2 0h1m2 0h1m1 0h2m1 0h1m2 0h1m1 0h2m1 0h1m1 0h1m2 0h1m1 0h2m4 0h1m1 0h2m4 0h1m1 0h2m4 0h1m2 0h4M4 57.5h1m4 0h1m1 0h1m1 0h8m1 0h1m1 0h1m4 0h1m1 0h2m1 0h5m3 0h1m1 0h1m1 0h1m3 0h1m1 0h2m1 0h2m1 0h3m1 0h1m5 0h1m1 0h3m3 0h1m1 0h3m3 0h1m1 0h3m1 0h1m1 0h1m3 0h1m1 0h3m3 0h1m1 0h3m3 0h1m1 0h3m3 0h1m3 0h1m1 0h3m3 0h1m1 0h1m1 0h1m3 0h2m1 0h1m2 0h1m1 0h1m1 0h1m1 0h1m5 0h1m1 0h1m5 0h1m1 0h1m3 0h1m1 0h2m1 0h1m2 0h1M5 58.5h2m1 0h1m1 0h4m1 0h1m2 0h1m4 0h2m2 0h2m1 0h1m2 0h1m2 0h1m2 0h2m1 0h2m2 0h1m1 0h1m1 0h2m1 0h4m1 0h1m1 0h2m2 0h1m3 0h1m1 0h2m4 0h1m1 0h2m3 0h2m1 0h3m3 0h1m2 0h1m1 0h1m1 0h2m2 0h1m2 0h3m2 0h1m2 0h2m3 0h1m2 0h2m3 0h2m1 0h2m6 0h2m1 0h1m4 0h2m2 0h2m4 0h1m1 0h2m4 0h1m1 0h2m4 0h2m1 0h1m1 0h2M4 59.5h1m1 0h1m6 0h1m1 0h2m3 0h5m3 0h2m3 0h1m1 0h1m2 0h2m3 0h2m3 0h1m2 0h5m3 0h2m1 0h1m1 0h1m1 0h1m1 0h1m2 0h2m1 0h1m1 0h1m2 0h2m1 0h2m3 0h2m1 0h1m1 0h1m3 0h5m3 0h1m1 0h3m3 0h1m1 0h1m1 0h1m1 0h1m1 0h1m2 0h2m1 0h2m3 0h2m1 0h1m4 0h2m1 0h1m1 0h1m2 0h2m2 0h2m1 0h1m1 0h1m2 0h2m1 0h1m1 0h1m2 0h2m1 0h4m2 0h3M4 60.5h3m1 0h5m2 0h4m1 0h3m1 0h6m2 0h7m4 0h2m2 0h1m3 0h3m1 0h1m3 0h6m2 0h1m2 0h3m2 0h1m2 0h3m2 0h1m2 0h7m2 0h1m1 0h1m1 0h2m2 0h1m1 0h1m1 0h2m2 0h1m2 0h7m2 0h1m1 0h1m5 0h1m1 0h1m1 0h1m3 0h1m2 0h7m2 0h3m1 0h1m3 0h3m1 0h1m3 0h3m1 0h7m2 0h1M5 61.5h1m1 0h2m3 0h1m2 0h2m2 0h1m1 0h1m1 0h5m1 0h2m1 0h1m3 0h3m1 0h1m2 0h3m1 0h1m3 0h2m2 0h1m4 0h1m3 0h1m1 0h3m2 0h1m2 0h3m2 0h1m2 0h1m1 0h1m3 0h1m3 0h1m1 0h3m1 0h2m2 0h4m1 0h1m2 0h3m3 0h1m3 0h1m1 0h4m4 0h4m1 0h2m1 0h3m2 0h2m3 0h2m1 0h2m1 0h1m1 0h1m2 0h2m1 0h1m1 0h1m2 0h2m1 0h3m3 0h3M4 62.5h2m1 0h2m1 0h1m1 0h1m1 0h1m1 0h2m1 0h1m4 0h1m2 0h1m3 0h2m1 0h1m1 0h1m2 0h1m3 0h5m3 0h2m2 0h1m3 0h2m1 0h1m1 0h2m1 0h1m3 0h3m1 0h1m3 0h3m2 0h1m2 0h2m1 0h1m1 0h2m1 0h2m1 0h2m1 0h1m1 0h5m1 0h1m1 0h2m2 0h2m1 0h1m1 0h1m2 0h3m2 0h1m2 0h3m1 0h2m2 0h3m2 0h1m1 0h1m1 0h6m1 0h1m3 0h3m1 0h1m3 0h3m2 0h1m1 0h1m1 0h2m2 0h1M6 63.5h3m3 0h1m1 0h2m2 0h6m1 0h5m2 0h1m3 0h3m3 0h2m1 0h2m1 0h1m1 0h2m2 0h1m1 0h1m1 0h1m1 0h1m3 0h2m1 0h2m1 0h2m1 0h1m2 0h1m1 0h2m1 0h1m2 0h1m1 0h3m3 0h1m1 0h3m1 0h2m2 0h3m1 0h2m2 0h4m1 0h2m3 0h1m1 0h2m1 0h1m2 0h1m1 0h2m1 0h1m1 0h1m2 0h2m1 0h1m2 0h1m3 0h4m1 0h1m1 0h2m1 0h2m1 0h1m1 0h2m1 0h2m1 0h1m2 0h1m3 0h1m1 0h1m1 0h1M4 64.5h2m2 0h7m1 0h1m2 0h2m1 0h2m1 0h5m1 0h6m1 0h4m1 0h1m1 0h1m3 0h1m1 0h1m1 0h1m3 0h1m1 0h7m1 0h2m2 0h1m1 0h1m5 0h1m1 0h1m1 0h1m3 0h7m1 0h3m1 0h1m1 0h1m1 0h2m1 0h2m1 0h1m1 0h11m1 0h7m1 0h4m2 0h1m1 0h11m1 0h1m1 0h5m1 0h1m1 0h5m1 0h1m1 0h8m1 0h2M5 65.5h3m4 0h1m3 0h2m1 0h1m1 0h2m10 0h1m1 0h2m2 0h1m2 0h2m4 0h1m1 0h2m1 0h2m1 0h1m1 0h1m1 0h1m1 0h1m1 0h2m1 0h1m2 0h1m1 0h2m4 0h1m1 0h2m1 0h2m1 0h1m1 0h1m1 0h1m1 0h2m1 0h1m1 0h1m2 0h2m1 0h1m4 0h2m1 0h1m1 0h2m3 0h1m1 0h2m1 0h1m1 0h3m1 0h1m1 0h1m1 0h2m2 0h1m1 0h1m1 0h2m1 0h1m1 0h1m1 0h1m2 0h1m1 0h1m1 0h5m1 0h1m1 0h2m1 0h2m1 0h1m2 0h1m1 0h1m1 0h1m1 0h1m1 0h1M4 66.5h3m1 0h1m1 0h1m2 0h1m1 0h1m2 0h1m3 0h2m2 0h1m1 0h1m1 0h6m1 0h2m2 0h1m1 0h1m5 0h1m1 0h1m1 0h1m3 0h1m4 0h2m1 0h2m2 0h1m1 0h1m1 0h3m1 0h1m1 0h1m1 0h3m1 0h1m4 0h1m2 0h3m1 0h2m2 0h3m5 0h3m1 0h1m3 0h1m3 0h1m1 0h1m1 0h3m1 0h1m1 0h1m1 0h2m1 0h2m1 0h1m1 0h2m3 0h2m3 0h1m1 0h5m1 0h1m1 0h5m1 0h1m1 0h2m3 0h2m2 0h2M11 67.5h2m1 0h3m3 0h2m2 0h1m2 0h4m1 0h1m2 0h1m1 0h3m1 0h1m2 0h1m1 0h1m2 0h1m2 0h1m1 0h1m2 0h1m6 0h3m2 0h1m2 0h6m2 0h3m1 0h2m4 0h1m1 0h2m1 0h1m2 0h1m1 0h2m1 0h1m1 0h1m2 0h2m1 0h1m6 0h1m2 0h1m2 0h3m1 0h2m2 0h3m1 0h2m2 0h3m1 0h1m2 0h2m1 0h1m1 0h4m2 0h1m1 0h4m1 0h1m2 0h3m1 0h1m2 0h2m2 0h2M4 68.5h4m2 0h4m8 0h3m3 0h1m2 0h1m5 0h1m3 0h2m2 0h1m2 0h3m3 0h1m1 0h3m3 0h1m2 0h2m1 0h2m3 0h5m3 0h2m2 0h1m2 0h1m1 0h1m2 0h3m2 0h1m2 0h3m1 0h2m2 0h3m4 0h1m1 0h1m2 0h3m1 0h1m2 0h4m1 0h1m1 0h5m1 0h1m1 0h1m3 0h3m3 0h1m1 0h1m2 0h1m2 0h1m1 0h1m1 0h2m2 0h1m5 0h2m2 0h2M4 69.5h1m3 0h1m5 0h1m1 0h3m1 0h1m1 0h3m1 0h1m1 0h1m6 0h3m3 0h1m2 0h3m2 0h1m2 0h1m1 0h1m2 0h1m7 0h2m1 0h2m3 0h3m1 0h1m3 0h2m2 0h1m7 0h2m1 0h1m4 0h2m1 0h3m2 0h2m1 0h1m1 0h1m1 0h1m4 0h2m1 0h1m1 0h1m1 0h3m1 0h1m1 0h2m1 0h2m1 0h1m1 0h4m2 0h3m1 0h4m2 0h1m1 0h4m2 0h1m1 0h3m4 0h2m2 0h2M5 70.5h1m4 0h1m3 0h4m1 0h1m2 0h3m1 0h1m4 0h2m1 0h2m2 0h2m1 0h2m2 0h1m2 0h3m2 0h1m2 0h3m1 0h1m4 0h1m1 0h4m2 0h1m3 0h2m2 0h1m1 0h1m1 0h2m1 0h1m3 0h2m6 0h2m3 0h1m2 0h2m3 0h1m2 0h1m1 0h1m1 0h3m2 0h1m1 0h1m1 0h2m2 0h1m1 0h1m1 0h2m2 0h1m1 0h4m2 0h1m3 0h1m1 0h1m1 0h1m3 0h1m1 0h1m2 0h1m2 0h1m2 0h1m2 0h2m2 0h2M5 71.5h1m1 0h1m8 0h1m3 0h2m1 0h2m2 0h2m3 0h1m1 0h1m3 0h5m3 0h1m1 0h3m2 0h1m2 0h3m1 0h1m1 0h1m3 0h2m1 0h2m3 0h1m2 0h2m3 0h5m1 0h1m4 0h2m1 0h2m3 0h2m1 0h1m4 0h2m1 0h3m1 0h1m3 0h3m3 0h5m3 0h1m1 0h3m3 0h1m1 0h3m3 0h1m3 0h1m1 0h2m4 0h1m1 0h1m5 0h1m3 0h2m2 0h2M4 72.5h7m9 0h1m5 0h3m5 0h2m1 0h5m2 0h1m1 0h2m1 0h1m2 0h4m1 0h1m2 0h1m3 0h2m1 0h1m1 0h2m1 0h2m2 0h3m1 0h2m1 0h5m4 0h2m3 0h2m1 0h2m6 0h2m3 0h1m1 0h1m4 0h2m4 0h2m1 0h1m4 0h1m1 0h2m4 0h1m2 0h1m2 0h1m1 0h1m1 0h1m1 0h1m2 0h2m1 0h1m1 0h1m5 0h1m1 0h1m1 0h2m1 0h1m1 0h1m1 0h1M4 73.5h1m2 0h3m3 0h1m2 0h3m1 0h4m4 0h1m1 0h2m2 0h1m3 0h2m1 0h2m3 0h1m1 0h3m3 0h1m1 0h3m1 0h1m1 0h1m1 0h1m1 0h1m1 0h3m1 0h1m1 0h1m1 0h3m1 0h1m1 0h2m1 0h2m1 0h1m1 0h1m1 0h1m1 0h1m2 0h2m1 0h1m1 0h1m3 0h1m1 0h1m1 0h1m3 0h3m1 0h1m1 0h1m1 0h1m5 0h1m1 0h1m5 0h1m1 0h1m8 0h2m1 0h1m3 0h1m1 0h1m1 0h1m3 0h1m1 0h2m4 0h1m1 0h1m1 0h2m2 0h2M4 74.5h3m1 0h1m1 0h1m1 0h1m1 0h2m1 0h2m3 0h1m1 0h3m2 0h1m2 0h4m1 0h2m1 0h2m2 0h1m1 0h2m1 0h1m2 0h1m1 0h2m1 0h1m1 0h1m1 0h1m2 0h1m1 0h1m1 0h2m2 0h1m1 0h4m2 0h1m1 0h1m2 0h1m1 0h1m1 0h1m1 0h1m2 0h1m1 0h2m1 0h1m2 0h1m1 0h2m1 0h1m2 0h1m1 0h1m1 0h2m3 0h1m1 0h1m2 0h1m1 0h1m2 0h1m2 0h1m1 0h2m1 0h1m2 0h1m1 0h1m1 0h1m2 0h3m2 0h1m1 0h1m3 0h1m1 0h1m1 0h2m1 0h2m1 0h1m1 0h2m1 0h1m1 0h1m1 0h1m1 0h1M7 75.5h3m1 0h1m2 0h2m1 0h2m1 0h1m2 0h1m1 0h1m4 0h1m2 0h1m2 0h1m1 0h1m3 0h1m1 0h1m2 0h2m1 0h1m1 0h1m2 0h2m1 0h4m2 0h1m3 0h1m1 0h1m1 0h1m2 0h1m2 0h1m1 0h1m5 0h3m1 0h1m1 0h1m1 0h1m5 0h1m1 0h1m2 0h2m1 0h1m1 0h1m3 0h3m1 0h3m1 0h1m1 0h1m5 0h1m1 0h1m2 0h2m1 0h1m1 0h1m2 0h2m1 0h2m1 0h1m2 0h1m7 0h1m2 0h4m1 0h1m3 0h2m2 0h2m2 0h1M5 76.5h4m1 0h4m1 0h1m2 0h3m2 0h1m1 0h4m1 0h1m1 0h1m2 0h4m3 0h2m3 0h2m1 0h2m3 0h2m1 0h2m1 0h1m1 0h1m2 0h2m3 0h1m2 0h2m1 0h1m1 0h1m2 0h1m1 0h2m1 0h3m1 0h1m2 0h1m1 0h1m2 0h1m2 0h1m1 0h2m1 0h1m2 0h1m1 0h2m1 0h3m1 0h1m2 0h1m1 0h1m2 0h1m2 0h1m1 0h1m2 0h1m2 0h1m1 0h1m2 0h3m1 0h1m1 0h3m4 0h1m2 0h1m3 0h3m1 0h1m3 0h1m1 0h2m2 0h2M5 77.5h1m3 0h1m1 0h1m1 0h2m2 0h4m2 0h2m17 0h1m1 0h1m2 0h2m1 0h1m1 0h1m2 0h2m1 0h4m1 0h2m2 0h2m1 0h3m3 0h1m1 0h3m3 0h1m1 0h4m1 0h2m3 0h1m1 0h3m3 0h1m1 0h3m3 0h2m1 0h1m1 0h1m1 0h2m3 0h1m1 0h3m3 0h1m1 0h3m3 0h1m1 0h2m1 0h2m3 0h1m1 0h1m2 0h3m2 0h1m3 0h1m3 0h1m2 0h3m2 0h2m1 0h1M5 78.5h2m3 0h1m2 0h1m1 0h1m2 0h1m2 0h4m2 0h2m1 0h1m2 0h2m1 0h5m1 0h2m3 0h2m1 0h2m3 0h2m1 0h6m3 0h1m1 0h1m1 0h1m4 0h1m1 0h2m3 0h2m1 0h7m2 0h1m1 0h1m1 0h2m2 0h1m2 0h3m2 0h1m1 0h5m1 0h2m1 0h2m3 0h2m1 0h2m3 0h2m1 0h2m3 0h1m1 0h1m2 0h1m1 0h2m3 0h5m7 0h1m3 0h4m2 0h3M5 79.5h2m2 0h1m1 0h1m3 0h1m4 0h2m2 0h1m3 0h1m2 0h3m1 0h1m2 0h2m3 0h2m1 0h2m3 0h2m1 0h2m3 0h1m1 0h4m1 0h1m1 0h2m1 0h2m1 0h1m1 0h1m2 0h2m1 0h2m3 0h1m1 0h1m1 0h2m3 0h1m1 0h3m3 0h1m1 0h3m2 0h1m2 0h2m2 0h2m3 0h2m1 0h2m3 0h2m1 0h2m3 0h2m1 0h2m2 0h1m1 0h1m2 0h2m1 0h2m1 0h4m1 0h1m3 0h3m1 0h5m2 0h4M4 80.5h3m2 0h2m1 0h1m2 0h4m1 0h1m2 0h6m3 0h4m2 0h1m4 0h3m1 0h1m3 0h3m1 0h1m3 0h6m4 0h1m1 0h2m2 0h1m1 0h1m1 0h2m2 0h1m2 0h2m1 0h4m2 0h1m1 0h1m1 0h2m2 0h1m1 0h1m1 0h2m2 0h1m2 0h2m2 0h3m2 0h1m1 0h1m1 0h2m2 0h1m1 0h1m1 0h2m2 0h1m1 0h1m1 0h1m2 0h2m3 0h3m1 0h1m1 0h1m1 0h3m2 0h2m1 0h3m1 0h3m2 0h2m1 0h1M4 81.5h1m2 0h1m1 0h1m1 0h2m6 0h1m2 0h2m1 0h3m1 0h1m2 0h1m1 0h2m1 0h1m2 0h1m2 0h2m1 0h2m3 0h2m1 0h2m3 0h1m1 0h3m2 0h1m3 0h2m2 0h4m1 0h1m2 0h1m1 0h1m2 0h1m1 0h3m2 0h4m1 0h1m2 0h4m1 0h1m2 0h1m1 0h1m3 0h1m2 0h1m2 0h4m1 0h1m2 0h4m1 0h1m2 0h4m2 0h1m1 0h2m1 0h1m1 0h2m1 0h1m4 0h2m1 0h7m1 0h2m1 0h2m2 0h4M4 82.5h2m1 0h1m1 0h6m1 0h2m1 0h1m7 0h1m3 0h1m1 0h1m3 0h3m3 0h3m1 0h1m3 0h3m1 0h1m3 0h1m1 0h1m1 0h3m1 0h1m2 0h4m1 0h1m1 0h5m1 0h1m3 0h1m1 0h1m1 0h1m1 0h1m1 0h5m1 0h1m1 0h5m1 0h1m5 0h1m1 0h1m1 0h1m1 0h5m1 0h1m3 0h3m1 0h1m3 0h3m4 0h2m1 0h5m2 0h1m2 0h3m1 0h3m1 0h3m1 0h1m1 0h1m2 0h2m1 0h2M5 83.5h1m1 0h1m4 0h1m1 0h1m3 0h3m2 0h8m1 0h1m1 0h2m1 0h1m4 0h2m1 0h1m2 0h1m1 0h2m1 0h1m2 0h1m1 0h1m1 0h1m1 0h2m1 0h1m1 0h2m2 0h1m1 0h1m2 0h4m1 0h1m2 0h1m1 0h1m1 0h4m2 0h4m1 0h1m2 0h1m1 0h2m1 0h1m2 0h1m1 0h2m2 0h2m2 0h4m1 0h1m2 0h1m1 0h2m1 0h1m2 0h1m1 0h2m1 0h1m2 0h1m3 0h4m1 0h1m2 0h1m1 0h2m1 0h1m1 0h1m2 0h2m1 0h1m4 0h1m1 0h1m1 0h2M4 84.5h3m2 0h3m2 0h1m1 0h1m2 0h3m1 0h1m1 0h4m2 0h2m1 0h2m1 0h5m1 0h1m1 0h2m2 0h1m1 0h1m1 0h2m2 0h1m1 0h1m1 0h1m1 0h1m1 0h1m1 0h3m1 0h1m1 0h1m4 0h2m1 0h1m3 0h2m2 0h1m1 0h1m1 0h1m1 0h5m1 0h1m3 0h3m1 0h1m1 0h1m1 0h2m2 0h3m1 0h1m1 0h5m1 0h1m1 0h5m1 0h1m1 0h4m6 0h1m1 0h1m1 0h3m1 0h1m1 0h1m1 0h3m2 0h2m1 0h2m1 0h1m1 0h2m2 0h2M4 85.5h2m2 0h1m3 0h2m2 0h2m1 0h1m2 0h1m6 0h1m1 0h1m2 0h1m1 0h1m2 0h1m2 0h2m1 0h1m2 0h1m1 0h2m1 0h1m2 0h1m1 0h1m1 0h1m1 0h1m1 0h2m1 0h1m1 0h1m2 0h2m6 0h2m3 0h2m1 0h1m1 0h1m1 0h2m1 0h1m1 0h2m1 0h2m3 0h2m1 0h2m1 0h4m2 0h2m1 0h1m1 0h2m1 0h2m1 0h2m1 0h1m1 0h2m1 0h2m1 0h1m1 0h2m5 0h4m1 0h1m1 0h1m1 0h3m1 0h1m4 0h2m1 0h1m2 0h1m1 0h1m1 0h1m1 0h1M5 86.5h2m3 0h1m1 0h2m4 0h1m3 0h1m3 0h1m1 0h1m2 0h1m3 0h4m2 0h1m1 0h1m1 0h2m2 0h1m1 0h1m1 0h2m2 0h1m4 0h2m1 0h2m2 0h3m1 0h2m4 0h1m1 0h2m2 0h1m4 0h1m2 0h3m1 0h1m3 0h2m1 0h2m3 0h5m4 0h1m4 0h1m1 0h2m2 0h1m1 0h1m1 0h2m2 0h1m1 0h1m1 0h2m1 0h1m4 0h1m1 0h1m1 0h3m1 0h1m1 0h1m1 0h2m1 0h2m1 0h1m1 0h3m2 0h2m2 0h1m1 0h1M5 87.5h5m1 0h1m2 0h2m4 0h1m2 0h1m3 0h2m1 0h2m5 0h3m1 0h1m2 0h3m2 0h1m2 0h3m2 0h1m6 0h3m2 0h2m1 0h3m3 0h1m1 0h3m3 0h1m3 0h1m1 0h2m3 0h2m1 0h2m1 0h4m1 0h2m2 0h3m7 0h1m1 0h3m3 0h1m1 0h3m2 0h1m2 0h3m3 0h1m3 0h1m1 0h3m1 0h1m1 0h1m1 0h3m1 0h2m2 0h4m3 0h2m3 0h1M4 88.5h1m1 0h8m1 0h1m5 0h4m2 0h1m4 0h6m3 0h2m2 0h1m2 0h3m2 0h1m2 0h3m1 0h7m1 0h1m1 0h1m2 0h2m1 0h3m2 0h2m1 0h1m3 0h7m1 0h2m3 0h5m3 0h2m2 0h1m2 0h6m1 0h1m1 0h1m4 0h2m1 0h1m3 0h3m1 0h1m2 0h5m1 0h1m2 0h1m4 0h1m2 0h1m1 0h1m1 0h2m2 0h1m1 0h6m2 0h1M4 89.5h2m1 0h2m3 0h1m1 0h2m1 0h2m1 0h1m2 0h2m1 0h1m3 0h1m1 0h1m3 0h3m2 0h1m2 0h3m2 0h1m2 0h3m2 0h1m2 0h1m3 0h3m1 0h1m4 0h2m1 0h3m2 0h2m1 0h1m1 0h3m3 0h3m1 0h1m1 0h1m2 0h3m2 0h1m2 0h2m3 0h3m3 0h2m2 0h1m1 0h1m5 0h1m1 0h1m2 0h2m1 0h1m1 0h3m3 0h1m1 0h1m1 0h3m1 0h1m1 0h1m1 0h4m2 0h1m1 0h3m1 0h1m3 0h1m2 0h1M4 90.5h2m2 0h1m1 0h1m1 0h1m1 0h1m2 0h3m2 0h3m1 0h7m1 0h1m1 0h1m1 0h2m1 0h2m2 0h1m2 0h4m1 0h1m2 0h5m1 0h1m1 0h2m2 0h1m4 0h1m2 0h2m3 0h1m2 0h2m1 0h2m1 0h1m1 0h2m1 0h1m2 0h1m1 0h2m1 0h1m2 0h1m1 0h2m2 0h1m1 0h3m1 0h1m1 0h2m3 0h1m2 0h2m3 0h1m2 0h1m1 0h1m2 0h1m1 0h2m1 0h1m1 0h1m1 0h1m2 0h1m1 0h1m2 0h1m2 0h1m1 0h1m2 0h1m2 0h1m1 0h2m1 0h1m1 0h1m2 0h1M4 91.5h1m2 0h2m3 0h1m2 0h1m1 0h1m2 0h2m1 0h2m7 0h1m3 0h1m2 0h4m3 0h1m1 0h5m1 0h1m1 0h5m3 0h1m1 0h1m1 0h1m1 0h1m3 0h1m1 0h1m1 0h1m3 0h1m1 0h2m1 0h2m3 0h4m2 0h1m2 0h2m3 0h1m2 0h4m1 0h1m1 0h1m3 0h1m1 0h1m3 0h1m1 0h2m4 0h1m1 0h1m5 0h1m1 0h1m3 0h1m5 0h3m5 0h1m1 0h1m5 0h1m1 0h1m3 0h1m1 0h1m1 0h1M4 92.5h1m1 0h7m4 0h1m1 0h2m5 0h2m1 0h2m1 0h5m2 0h3m2 0h1m1 0h2m1 0h1m1 0h2m1 0h2m1 0h1m2 0h6m1 0h1m1 0h2m1 0h2m1 0h1m4 0h2m1 0h1m1 0h1m2 0h6m1 0h1m2 0h1m1 0h2m2 0h1m1 0h1m1 0h2m1 0h2m1 0h1m1 0h5m1 0h1m3 0h1m1 0h3m3 0h1m1 0h1m5 0h7m3 0h1m1 0h3m3 0h1m1 0h1m5 0h1m1 0h1m1 0h6M4 93.5h2m1 0h1m4 0h2m2 0h2m1 0h1m1 0h3m4 0h1m3 0h2m2 0h1m2 0h1m1 0h4m1 0h1m1 0h3m1 0h1m1 0h1m1 0h6m1 0h2m1 0h5m1 0h1m1 0h3m1 0h1m1 0h1m1 0h3m1 0h4m1 0h2m1 0h1m1 0h1m3 0h1m1 0h1m1 0h1m3 0h1m1 0h2m3 0h6m7 0h3m5 0h1m1 0h1m5 0h1m1 0h2m6 0h1m1 0h1m5 0h1m1 0h1m5 0h1m1 0h3m3 0h1m1 0h1M4 94.5h2m1 0h1m2 0h1m3 0h2m1 0h1m2 0h1m1 0h1m1 0h1m1 0h4m1 0h2m5 0h1m1 0h2m1 0h2m1 0h2m1 0h1m4 0h2m1 0h1m1 0h1m1 0h4m1 0h2m1 0h1m2 0h1m1 0h2m1 0h1m2 0h1m1 0h2m2 0h2m1 0h4m1 0h1m4 0h1m2 0h2m3 0h1m2 0h2m3 0h1m1 0h1m1 0h3m2 0h1m1 0h2m2 0h1m1 0h1m1 0h2m1 0h2m1 0h1m1 0h2m1 0h1m1 0h2m3 0h1m1 0h1m5 0h1m1 0h2m4 0h1m1 0h2m1 0h2m2 0h1m1 0h1M7 95.5h1m1 0h1m1 0h2m1 0h2m1 0h4m2 0h1m1 0h4m1 0h1m2 0h1m1 0h1m1 0h2m3 0h2m3 0h2m1 0h1m4 0h2m1 0h2m1 0h4m2 0h2m1 0h1m1 0h1m2 0h3m2 0h1m2 0h2m3 0h4m2 0h1m1 0h1m3 0h1m1 0h2m4 0h1m1 0h1m8 0h1m1 0h1m2 0h1m2 0h2m3 0h1m2 0h4m1 0h1m5 0h2m2 0h1m1 0h1m5 0h1m1 0h1m2 0h2m1 0h1m1 0h1m4 0h2m2 0h1m1 0h2M5 96.5h1m1 0h1m2 0h1m2 0h1m1 0h1m1 0h1m2 0h1m2 0h1m1 0h2m3 0h1m1 0h1m5 0h1m3 0h2m3 0h2m1 0h1m1 0h1m2 0h2m1 0h1m2 0h1m1 0h2m1 0h3m2 0h1m2 0h4m1 0h1m2 0h4m1 0h1m1 0h4m1 0h2m3 0h1m2 0h2m3 0h1m2 0h1m1 0h1m2 0h1m3 0h1m1 0h2m1 0h1m2 0h1m4 0h1m2 0h1m1 0h1m2 0h1m2 0h1m2 0h2m1 0h1m1 0h1m4 0h2m1 0h1m3 0h3m1 0h1m3 0h1m1 0h1m2 0h5M5 97.5h2m4 0h4m3 0h1m1 0h1m2 0h2m2 0h2m2 0h3m8 0h1m4 0h2m1 0h3m2 0h2m1 0h1m1 0h4m3 0h1m2 0h3m2 0h1m2 0h3m2 0h1m1 0h1m3 0h3m3 0h2m1 0h3m3 0h1m1 0h3m3 0h1m1 0h1m3 0h2m1 0h2m1 0h1m1 0h3m1 0h1m1 0h1m1 0h3m1 0h1m1 0h1m1 0h2m4 0h1m1 0h1m1 0h1m2 0h2m1 0h1m1 0h1m2 0h2m1 0h1m1 0h1m2 0h2m1 0h1m1 0h2m2 0h1M5 98.5h1m1 0h1m2 0h1m1 0h2m1 0h1m3 0h7m1 0h1m2 0h1m1 0h2m1 0h7m2 0h1m2 0h2m1 0h3m2 0h2m1 0h4m1 0h1m3 0h3m1 0h1m3 0h2m1 0h2m3 0h5m1 0h1m1 0h1m3 0h3m1 0h2m4 0h1m1 0h2m2 0h1m1 0h1m1 0h1m1 0h1m1 0h1m2 0h2m3 0h5m3 0h2m2 0h1m3 0h1m2 0h2m1 0h1m1 0h1m3 0h3m1 0h1m3 0h3m1 0h1m3 0h3m2 0h3M5 99.5h2m2 0h1m2 0h1m2 0h1m3 0h3m2 0h3m4 0h4m4 0h1m1 0h1m2 0h1m1 0h2m3 0h1m2 0h2m3 0h2m1 0h2m2 0h2m1 0h1m1 0h2m1 0h2m3 0h2m1 0h2m1 0h3m2 0h1m1 0h1m3 0h1m1 0h3m3 0h1m1 0h3m2 0h1m2 0h2m1 0h2m1 0h1m2 0h2m1 0h2m1 0h4m1 0h2m2 0h3m1 0h2m4 0h2m1 0h2m1 0h2m1 0h1m1 0h2m1 0h2m1 0h1m1 0h2m1 0h1m1 0h1m1 0h1m1 0h3M4 100.5h3m3 0h1m4 0h2m1 0h3m2 0h4m1 0h1m3 0h4m5 0h3m1 0h1m1 0h1m3 0h1m1 0h1m1 0h1m3 0h1m2 0h2m3 0h1m1 0h1m1 0h2m2 0h1m1 0h1m1 0h2m2 0h1m2 0h2m1 0h1m1 0h1m5 0h1m1 0h2m2 0h1m1 0h1m1 0h2m2 0h1m1 0h1m3 0h1m5 0h1m1 0h1m1 0h3m1 0h1m1 0h1m1 0h3m1 0h1m1 0h1m7 0h5m1 0h1m1 0h5m1 0h1m1 0h5m2 0h1m1 0h2m1 0h1m2 0h1M4 101.5h1m2 0h1m1 0h1m7 0h1m4 0h2m1 0h5m5 0h1m4 0h1m1 0h2m2 0h2m1 0h1m4 0h2m6 0h1m1 0h1m1 0h1m1 0h2m1 0h1m2 0h1m1 0h2m1 0h1m2 0h1m1 0h1m2 0h1m2 0h1m1 0h1m1 0h1m2 0h1m1 0h1m2 0h4m1 0h1m2 0h1m1 0h2m1 0h1m2 0h1m1 0h1m1 0h4m1 0h1m2 0h4m1 0h1m1 0h1m2 0h2m4 0h1m2 0h1m1 0h2m1 0h2m1 0h1m1 0h2m1 0h2m1 0h1m1 0h2m1 0h2m3 0h6M4 102.5h2m1 0h2m1 0h1m1 0h3m1 0h1m2 0h1m5 0h4m2 0h7m1 0h1m2 0h2m1 0h1m1 0h1m1 0h2m1 0h2m1 0h1m3 0h1m2 0h1m2 0h1m1 0h1m1 0h5m1 0h1m1 0h5m1 0h1m6 0h1m2 0h1m2 0h4m1 0h1m1 0h5m1 0h1m3 0h2m3 0h1m2 0h5m1 0h1m3 0h3m1 0h1m1 0h1m3 0h1m7 0h5m1 0h1m1 0h5m1 0h1m1 0h5m1 0h1m2 0h2m1 0h1m1 0h2M5 103.5h1m1 0h3m1 0h2m1 0h1m2 0h1m2 0h1m2 0h5m1 0h4m1 0h2m2 0h1m5 0h2m2 0h3m1 0h2m2 0h1m1 0h1m1 0h1m3 0h2m2 0h4m1 0h1m2 0h4m1 0h1m2 0h1m1 0h1m6 0h5m1 0h1m2 0h1m1 0h2m1 0h1m2 0h1m1 0h2m2 0h1m1 0h1m2 0h3m1 0h1m2 0h1m1 0h2m1 0h1m2 0h1m1 0h1m2 0h1m2 0h1m1 0h1m2 0h3m1 0h1m2 0h4m1 0h1m2 0h4m1 0h1m1 0h1m4 0h1m1 0h2M4 104.5h3m1 0h1m1 0h1m1 0h1m1 0h1m1 0h2m1 0h1m1 0h1m1 0h1m3 0h1m3 0h1m1 0h2m1 0h2m1 0h2m4 0h2m2 0h1m1 0h1m1 0h2m2 0h1m1 0h2m2 0h1m1 0h1m3 0h3m1 0h1m3 0h3m1 0h1m3 0h2m2 0h1m3 0h1m1 0h5m1 0h1m3 0h3m1 0h1m3 0h3m1 0h1m2 0h2m1 0h5m1 0h1m3 0h3m2 0h2m1 0h5m2 0h2m1 0h1m1 0h2m2 0h1m1 0h1m1 0h2m2 0h1m1 0h1m1 0h2m7 0h2M4 105.5h2m2 0h1m2 0h1m1 0h1m2 0h1m1 0h1m1 0h1m1 0h1m2 0h1m3 0h1m2 0h1m1 0h1m1 0h1m2 0h1m1 0h1m2 0h2m2 0h1m2 0h1m1 0h1m2 0h3m1 0h1m2 0h3m3 0h2m1 0h2m3 0h2m1 0h2m3 0h2m1 0h2m4 0h2m1 0h2m1 0h2m3 0h2m1 0h2m3 0h2m1 0h2m4 0h2m1 0h2m1 0h2m3 0h2m1 0h1m2 0h4m1 0h2m2 0h4m1 0h1m2 0h4m1 0h1m2 0h4m1 0h1m2 0h1m1 0h1m3 0h2M5 106.5h2m1 0h1m1 0h4m5 0h1m2 0h1m2 0h4m2 0h1m2 0h1m1 0h1m1 0h1m2 0h3m1 0h2m4 0h1m1 0h2m2 0h1m5 0h4m2 0h1m1 0h1m1 0h2m2 0h1m1 0h1m1 0h2m2 0h1m1 0h4m1 0h1m1 0h2m1 0h1m3 0h2m1 0h2m3 0h2m1 0h2m1 0h4m1 0h2m1 0h1m1 0h2m2 0h1m2 0h3m2 0h1m1 0h7m2 0h2m1 0h1m1 0h2m2 0h1m1 0h1m1 0h2m2 0h1m1 0h1m1 0h2m1 0h1m2 0h1m2 0h2M5 107.5h4m3 0h1m1 0h2m2 0h3m2 0h1m2 0h1m1 0h1m1 0h2m1 0h5m1 0h1m1 0h6m3 0h1m1 0h3m3 0h1m3 0h1m1 0h3m3 0h1m1 0h3m3 0h1m1 0h3m3 0h1m1 0h3m1 0h1m1 0h1m2 0h2m1 0h1m1 0h1m2 0h2m1 0h2m3 0h2m1 0h2m2 0h1m1 0h1m1 0h3m3 0h1m1 0h3m2 0h1m1 0h1m1 0h2m1 0h2m2 0h1m1 0h1m1 0h3m3 0h1m1 0h3m3 0h1m1 0h5m1 0h3m3 0h1M4 108.5h1m1 0h5m2 0h1m1 0h1m1 0h3m1 0h4m1 0h2m5 0h2m1 0h1m1 0h1m2 0h1m1 0h3m2 0h2m3 0h1m2 0h1m1 0h2m1 0h1m3 0h2m1 0h2m3 0h2m1 0h2m3 0h2m1 0h2m1 0h2m1 0h1m1 0h2m2 0h2m4 0h1m1 0h2m3 0h2m1 0h2m2 0h4m2 0h1m1 0h2m4 0h4m3 0h2m2 0h1m2 0h4m2 0h1m2 0h1m2 0h1m1 0h1m2 0h1m2 0h1m1 0h1m2 0h1m1 0h1m1 0h1m1 0h2M4 109.5h2m1 0h2m2 0h2m1 0h2m1 0h2m4 0h2m1 0h3m1 0h1m2 0h2m1 0h1m7 0h3m2 0h2m1 0h3m3 0h2m2 0h1m2 0h2m1 0h1m1 0h1m2 0h2m1 0h1m1 0h1m2 0h2m1 0h1m1 0h1m1 0h1m3 0h2m2 0h1m1 0h1m5 0h1m1 0h1m2 0h2m1 0h1m1 0h1m1 0h3m1 0h1m3 0h1m1 0h1m4 0h1m2 0h1m2 0h2m3 0h7m1 0h1m1 0h3m3 0h1m1 0h3m3 0h1m1 0h3m1 0h2m1 0h1m4 0h1M4 110.5h2m3 0h4m1 0h1m2 0h2m1 0h1m1 0h3m3 0h3m1 0h2m1 0h1m1 0h1m1 0h1m5 0h1m2 0h2m1 0h1m1 0h1m2 0h2m2 0h2m2 0h2m2 0h1m1 0h1m2 0h1m2 0h1m1 0h2m1 0h1m2 0h1m1 0h1m1 0h1m2 0h1m1 0h3m2 0h1m1 0h1m2 0h1m2 0h1m1 0h2m1 0h1m2 0h1m1 0h2m1 0h1m2 0h2m1 0h1m2 0h1m1 0h2m1 0h1m2 0h1m1 0h1m1 0h2m2 0h4m2 0h1m2 0h1m2 0h1m1 0h1m2 0h1m2 0h1m1 0h1m2 0h1m1 0h1m1 0h1M4 111.5h1m2 0h3m1 0h1m3 0h1m1 0h1m1 0h1m1 0h1m1 0h3m1 0h1m4 0h1m1 0h1m2 0h4m1 0h1m3 0h1m1 0h1m1 0h3m1 0h1m1 0h2m2 0h2m1 0h2m1 0h1m1 0h1m5 0h1m1 0h1m2 0h2m1 0h1m1 0h1m2 0h2m1 0h3m1 0h1m1 0h1m1 0h1m2 0h1m2 0h1m1 0h1m5 0h1m1 0h7m2 0h2m1 0h1m1 0h1m3 0h1m1 0h1m1 0h1m3 0h1m1 0h7m5 0h1m1 0h1m5 0h1m1 0h1m5 0h1m2 0h1m4 0h1M4 112.5h1m1 0h2m2 0h3m4 0h1m9 0h1m1 0h4m2 0h3m1 0h3m2 0h1m1 0h2m2 0h3m1 0h2m1 0h2m1 0h6m1 0h1m2 0h1m1 0h2m1 0h1m2 0h4m1 0h1m2 0h1m1 0h4m2 0h2m2 0h1m1 0h4m2 0h1m1 0h1m2 0h1m2 0h4m1 0h2m2 0h1m2 0h1m1 0h1m3 0h1m1 0h1m1 0h1m2 0h2m1 0h2m1 0h1m1 0h2m3 0h1m1 0h2m4 0h1m1 0h2m4 0h1m1 0h2m1 0h2m1 0h2m2 0h1M4 113.5h2m1 0h1m5 0h1m2 0h2m1 0h5m4 0h1m3 0h3m1 0h1m2 0h1m1 0h4m1 0h1m1 0h1m1 0h3m1 0h1m1 0h1m1 0h4m1 0h1m2 0h3m3 0h1m1 0h3m2 0h1m2 0h3m2 0h6m2 0h2m3 0h5m3 0h1m1 0h3m2 0h2m1 0h3m1 0h1m1 0h1m3 0h1m1 0h1m1 0h1m3 0h1m1 0h2m4 0h1m1 0h2m6 0h1m1 0h1m5 0h1m1 0h1m5 0h2m1 0h2m1 0h1m1 0h1M4 114.5h2m1 0h1m2 0h2m2 0h2m1 0h4m1 0h1m1 0h1m1 0h4m1 0h2m5 0h1m1 0h2m1 0h2m1 0h2m1 0h1m1 0h2m1 0h2m2 0h2m1 0h3m2 0h2m3 0h2m1 0h2m6 0h2m3 0h1m1 0h1m1 0h2m2 0h2m2 0h1m1 0h1m1 0h2m2 0h1m1 0h1m1 0h2m2 0h1m2 0h3m5 0h2m3 0h1m2 0h2m3 0h1m2 0h2m1 0h1m1 0h2m3 0h2m1 0h1m4 0h1m1 0h2m4 0h1m1 0h2m1 0h5m2 0h1M7 115.5h1m1 0h1m1 0h2m1 0h2m1 0h1m2 0h1m2 0h1m1 0h4m1 0h1m2 0h1m1 0h1m1 0h2m3 0h2m3 0h3m1 0h1m3 0h2m2 0h1m1 0h2m4 0h2m1 0h2m3 0h2m1 0h1m4 0h2m1 0h1m3 0h2m1 0h1m1 0h2m3 0h1m2 0h2m3 0h5m5 0h2m2 0h1m4 0h2m1 0h3m2 0h2m1 0h1m1 0h1m5 0h2m2 0h1m1 0h2m1 0h2m1 0h1m1 0h1m2 0h2m1 0h1m1 0h1m2 0h1m1 0h3m1 0h1m2 0h1M5 116.5h1m1 0h7m1 0h1m2 0h1m1 0h1m2 0h1m1 0h2m3 0h1m1 0h5m1 0h1m3 0h2m3 0h5m3 0h2m3 0h5m1 0h3m2 0h1m2 0h3m3 0h1m1 0h3m3 0h9m2 0h1m3 0h2m2 0h1m1 0h1m1 0h2m2 0h7m1 0h1m3 0h1m1 0h1m1 0h1m3 0h1m1 0h1m2 0h1m2 0h7m1 0h1m1 0h5m1 0h1m3 0h3m1 0h1m4 0h8M5 117.5h2m1 0h1m3 0h3m2 0h1m2 0h1m2 0h2m3 0h1m2 0h2m3 0h1m2 0h2m2 0h1m3 0h2m1 0h2m3 0h3m2 0h1m3 0h1m2 0h1m2 0h1m1 0h1m2 0h1m2 0h1m1 0h1m2 0h1m2 0h1m1 0h1m3 0h4m2 0h3m1 0h2m2 0h3m1 0h2m2 0h1m1 0h1m3 0h2m1 0h2m1 0h4m2 0h1m1 0h4m2 0h1m1 0h1m1 0h1m3 0h1m1 0h1m1 0h1m1 0h3m1 0h1m1 0h2m1 0h2m1 0h1m1 0h1m3 0h1m3 0h2m2 0h1M5 118.5h1m1 0h2m1 0h1m1 0h2m1 0h1m3 0h7m2 0h1m1 0h1m1 0h1m1 0h1m1 0h3m1 0h1m2 0h1m3 0h2m1 0h2m3 0h6m1 0h1m1 0h1m2 0h3m2 0h1m2 0h3m1 0h2m2 0h3m1 0h2m1 0h1m1 0h2m1 0h1m1 0h1m1 0h3m1 0h1m1 0h1m1 0h2m1 0h2m1 0h1m1 0h2m1 0h1m1 0h2m1 0h2m2 0h3m5 0h3m1 0h1m4 0h1m1 0h1m1 0h2m1 0h1m2 0h4m1 0h1m1 0h5m1 0h1m3 0h2m1 0h1m1 0h4M5 119.5h2m1 0h1m3 0h1m2 0h1m2 0h4m2 0h3m5 0h1m3 0h1m2 0h2m1 0h1m1 0h1m1 0h2m4 0h1m1 0h2m1 0h2m1 0h1m3 0h1m1 0h2m1 0h1m2 0h1m1 0h2m1 0h1m1 0h1m2 0h2m1 0h1m2 0h1m3 0h1m2 0h1m2 0h6m2 0h3m1 0h2m2 0h3m3 0h2m1 0h1m2 0h2m1 0h1m4 0h2m1 0h1m1 0h2m1 0h3m3 0h2m1 0h2m2 0h1m1 0h1m1 0h5m1 0h1m1 0h2m1 0h3m3 0h5M4 120.5h3m1 0h5m2 0h3m1 0h1m3 0h2m1 0h1m1 0h1m3 0h5m2 0h1m1 0h1m3 0h1m1 0h1m5 0h1m1 0h1m1 0h1m1 0h6m2 0h1m1 0h1m1 0h1m3 0h1m1 0h1m1 0h1m3 0h1m1 0h1m1 0h6m2 0h1m1 0h1m1 0h3m1 0h1m1 0h1m1 0h3m1 0h1m1 0h1m1 0h8m2 0h1m1 0h5m1 0h1m1 0h5m1 0h1m1 0h10m2 0h1m1 0h5m1 0h1m1 0h5m2 0h6m1 0h2M4 121.5h1m2 0h3m7 0h4m1 0h2m2 0h1m1 0h2m1 0h1m1 0h4m3 0h3m1 0h1m1 0h2m1 0h1m2 0h1m1 0h2m4 0h1m1 0h2m2 0h1m1 0h2m1 0h2m1 0h1m1 0h2m2 0h1m1 0h1m1 0h2m1 0h4m3 0h1m1 0h2m1 0h1m2 0h1m1 0h2m1 0h1m1 0h1m2 0h2m3 0h1m2 0h3m2 0h1m1 0h1m1 0h5m1 0h1m1 0h2m1 0h2m3 0h1m2 0h2m1 0h3m1 0h1m1 0h1m1 0h2m2 0h1m1 0h1m2 0h3m1 0h1m1 0h1m1 0h5M4 122.5h2m1 0h5m1 0h2m1 0h3m1 0h1m5 0h1m1 0h1m2 0h2m1 0h4m1 0h3m3 0h1m1 0h1m1 0h2m2 0h1m1 0h1m3 0h1m3 0h1m1 0h1m1 0h1m1 0h3m1 0h1m1 0h1m1 0h2m1 0h2m1 0h1m1 0h3m1 0h1m2 0h2m3 0h3m2 0h1m2 0h3m1 0h2m2 0h2m1 0h3m1 0h3m1 0h2m1 0h1m1 0h5m1 0h1m1 0h2m2 0h1m2 0h4m1 0h7m1 0h4m2 0h1m1 0h2m2 0h1m1 0h1m1 0h1m1 0h1m1 0h1m1 0h2M5 123.5h1m1 0h3m4 0h1m2 0h2m1 0h1m2 0h3m2 0h5m1 0h1m3 0h1m1 0h1m1 0h1m2 0h1m2 0h3m2 0h1m2 0h1m1 0h3m1 0h1m1 0h2m2 0h3m1 0h2m2 0h3m1 0h2m2 0h3m1 0h1m1 0h1m1 0h3m1 0h2m1 0h1m2 0h1m1 0h2m1 0h1m2 0h1m1 0h2m3 0h2m1 0h3m1 0h2m2 0h4m1 0h1m2 0h3m2 0h1m2 0h2m2 0h4m1 0h2m1 0h4m2 0h1m1 0h3m3 0h3m1 0h2m2 0h2M4 124.5h3m1 0h1m1 0h1m3 0h1m1 0h1m2 0h3m1 0h1m1 0h2m8 0h3m1 0h1m2 0h1m1 0h3m2 0h1m2 0h3m2 0h1m1 0h3m2 0h2m3 0h2m2 0h1m3 0h3m1 0h1m3 0h2m3 0h2m1 0h1m3 0h3m1 0h1m3 0h3m2 0h1m2 0h2m1 0h4m1 0h1m1 0h5m1 0h1m3 0h3m1 0h1m3 0h2m1 0h4m1 0h1m1 0h1m1 0h1m3 0h1m1 0h1m1 0h1m3 0h1m2 0h1m1 0h2m1 0h1m1 0h1m2 0h2M4 125.5h2m2 0h2m2 0h2m2 0h1m1 0h1m3 0h1m6 0h1m1 0h1m4 0h1m2 0h1m2 0h1m2 0h1m2 0h3m2 0h1m2 0h6m2 0h1m1 0h1m2 0h2m2 0h1m3 0h5m3 0h2m3 0h1m1 0h1m1 0h1m2 0h2m1 0h2m3 0h2m1 0h1m4 0h2m1 0h5m1 0h2m1 0h2m1 0h1m1 0h1m2 0h2m1 0h1m1 0h1m2 0h2m1 0h8m4 0h3m2 0h2m1 0h5m1 0h4m2 0h1m1 0h2M5 126.5h2m1 0h1m1 0h1m1 0h2m3 0h2m1 0h1m1 0h1m5 0h1m2 0h1m1 0h2m1 0h1m1 0h4m2 0h3m2 0h1m2 0h3m2 0h1m1 0h3m1 0h1m2 0h1m2 0h1m1 0h1m1 0h2m2 0h1m1 0h1m1 0h2m2 0h1m1 0h1m1 0h1m1 0h1m2 0h1m1 0h2m3 0h2m1 0h2m6 0h2m1 0h1m1 0h1m1 0h1m1 0h1m1 0h1m1 0h2m2 0h1m2 0h3m2 0h1m2 0h4m1 0h1m1 0h3m1 0h1m5 0h1m2 0h2m3 0h1m1 0h3m1 0h4m2 0h1m1 0h1M5 127.5h3m1 0h1m2 0h1m1 0h2m1 0h3m3 0h1m1 0h1m4 0h1m1 0h1m4 0h1m1 0h3m2 0h3m3 0h1m1 0h3m3 0h2m1 0h1m1 0h2m5 0h5m3 0h1m1 0h3m3 0h4m1 0h2m1 0h1m2 0h2m1 0h1m1 0h1m2 0h2m1 0h2m3 0h2m1 0h1m1 0h3m1 0h1m1 0h3m3 0h1m1 0h3m3 0h1m1 0h9m1 0h1m1 0h1m1 0h1m3 0h1m1 0h1m1 0h1m3 0h2m1 0h1m1 0h1m1 0h1m2 0h2m2 0h1M4 128.5h1m1 0h2m2 0h1m1 0h2m1 0h1m1 0h1m1 0h6m3 0h1m2 0h1m1 0h1m2 0h1m1 0h1m2 0h3m1 0h1m2 0h1m1 0h2m1 0h1m2 0h1m1 0h2m1 0h3m1 0h1m2 0h2m1 0h2m1 0h1m1 0h2m3 0h2m1 0h2m1 0h6m1 0h1m1 0h2m4 0h1m1 0h2m3 0h2m1 0h2m1 0h1m1 0h1m1 0h2m1 0h1m1 0h2m4 0h1m1 0h2m4 0h1m1 0h2m1 0h1m1 0h1m1 0h2m1 0h1m2 0h1m2 0h1m1 0h2m2 0h1m1 0h1m1 0h2m1 0h7m1 0h2M4 129.5h2m1 0h1m1 0h1m4 0h2m3 0h1m3 0h3m1 0h1m2 0h1m4 0h1m4 0h1m1 0h1m1 0h3m3 0h1m1 0h3m3 0h2m1 0h2m1 0h2m2 0h1m1 0h2m4 0h1m1 0h1m2 0h2m1 0h1m1 0h2m2 0h1m1 0h1m3 0h1m1 0h1m5 0h1m1 0h1m2 0h2m1 0h1m1 0h3m1 0h2m4 0h1m1 0h1m5 0h1m1 0h1m5 0h1m1 0h3m1 0h2m2 0h1m1 0h3m3 0h2m2 0h1m3 0h1m3 0h2m1 0h4m1 0h1m1 0h1M4 130.5h2m3 0h4m1 0h1m4 0h2m1 0h9m1 0h2m1 0h1m1 0h1m1 0h1m2 0h2m1 0h1m2 0h1m1 0h2m1 0h1m2 0h1m1 0h2m2 0h1m2 0h2m1 0h1m1 0h1m5 0h1m1 0h2m1 0h1m2 0h1m1 0h1m3 0h1m4 0h1m2 0h1m1 0h1m2 0h1m2 0h1m1 0h2m1 0h1m2 0h3m1 0h3m1 0h2m1 0h1m2 0h1m1 0h2m1 0h1m2 0h1m1 0h2m1 0h1m1 0h2m1 0h2m2 0h2m1 0h1m2 0h1m1 0h2m1 0h1m2 0h1m1 0h1m1 0h1m1 0h2m1 0h1m1 0h2m1 0h1M4 131.5h1m2 0h1m1 0h1m5 0h1m3 0h3m1 0h5m4 0h2m1 0h1m1 0h3m3 0h2m1 0h1m1 0h1m2 0h2m1 0h1m1 0h1m3 0h1m4 0h2m1 0h1m5 0h1m1 0h1m2 0h2m1 0h1m1 0h1m11 0h1m1 0h1m5 0h1m1 0h3m3 0h1m1 0h3m2 0h1m3 0h2m1 0h1m1 0h1m2 0h2m1 0h1m1 0h1m2 0h2m1 0h2m2 0h2m3 0h2m1 0h1m1 0h1m3 0h2m2 0h1m3 0h1m3 0h5M4 132.5h1m1 0h2m1 0h3m7 0h1m5 0h6m1 0h1m4 0h1m5 0h2m1 0h2m3 0h2m1 0h2m10 0h2m2 0h1m1 0h4m2 0h3m2 0h1m2 0h1m1 0h1m3 0h1m2 0h1m2 0h1m1 0h1m2 0h1m2 0h3m2 0h1m2 0h3m1 0h2m3 0h1m2 0h1m1 0h1m2 0h1m2 0h1m1 0h1m2 0h1m2 0h3m1 0h2m3 0h2m1 0h2m5 0h3m3 0h1m3 0h1m1 0h1m1 0h2m3 0h1M4 133.5h2m1 0h1m3 0h3m2 0h2m3 0h3m1 0h2m1 0h1m2 0h2m2 0h1m5 0h1m1 0h2m1 0h1m1 0h1m2 0h2m1 0h1m1 0h1m3 0h1m1 0h1m4 0h2m3 0h5m2 0h1m2 0h3m3 0h1m2 0h2m1 0h3m3 0h1m1 0h3m2 0h1m2 0h3m2 0h1m4 0h1m1 0h3m3 0h1m1 0h3m3 0h1m1 0h3m2 0h1m4 0h1m3 0h1m1 0h1m1 0h1m3 0h1m1 0h1m1 0h1m2 0h1m1 0h1m2 0h1m1 0h2m1 0h1M4 134.5h2m1 0h1m1 0h2m3 0h2m3 0h2m1 0h1m1 0h6m1 0h1m3 0h1m2 0h2m1 0h4m1 0h2m3 0h2m1 0h2m5 0h2m1 0h1m2 0h1m3 0h3m1 0h1m3 0h3m1 0h1m3 0h2m2 0h3m1 0h2m2 0h1m1 0h1m1 0h2m2 0h1m1 0h1m1 0h2m2 0h1m3 0h1m3 0h3m1 0h1m3 0h2m1 0h2m3 0h2m1 0h2m9 0h1m1 0h1m3 0h1m2 0h2m3 0h1m1 0h2m3 0h2m1 0h2m1 0h1M7 135.5h2m5 0h2m7 0h1m3 0h2m1 0h3m1 0h1m1 0h4m1 0h3m3 0h2m1 0h2m3 0h2m1 0h1m2 0h2m1 0h1m1 0h3m1 0h2m2 0h3m1 0h2m1 0h1m1 0h2m1 0h2m2 0h2m2 0h3m2 0h1m2 0h3m5 0h3m2 0h1m2 0h1m1 0h1m1 0h2m1 0h1m1 0h2m1 0h2m3 0h2m1 0h2m4 0h1m3 0h1m1 0h1m2 0h1m1 0h2m1 0h3m2 0h2m1 0h1m1 0h3m3 0h2m1 0h2m1 0h1M5 136.5h1m1 0h1m2 0h1m1 0h2m1 0h1m2 0h2m3 0h1m6 0h2m1 0h1m1 0h2m1 0h1m1 0h2m1 0h1m3 0h3m1 0h1m3 0h3m2 0h2m2 0h5m2 0h1m3 0h2m2 0h1m1 0h1m1 0h2m2 0h1m1 0h1m1 0h1m1 0h1m1 0h2m2 0h1m1 0h1m1 0h2m3 0h2m1 0h2m2 0h1m5 0h1m1 0h5m1 0h1m1 0h2m2 0h1m1 0h1m1 0h2m2 0h1m5 0h1m2 0h6m1 0h2m2 0h3m3 0h1m4 0h2m1 0h1m1 0h1M5 137.5h2m1 0h2m3 0h2m5 0h1m2 0h4m1 0h1m2 0h4m4 0h1m3 0h1m3 0h2m1 0h2m4 0h1m1 0h1m3 0h1m1 0h4m2 0h1m1 0h1m1 0h2m2 0h1m1 0h1m1 0h2m2 0h1m1 0h1m1 0h1m2 0h1m1 0h1m2 0h1m1 0h2m1 0h1m2 0h1m1 0h2m1 0h1m2 0h1m1 0h1m1 0h1m2 0h1m1 0h1m1 0h5m1 0h1m2 0h4m1 0h1m2 0h1m1 0h1m1 0h1m3 0h4m1 0h2m1 0h1m1 0h2m1 0h2m1 0h1m1 0h1m7 0h1m3 0h1M5 138.5h1m1 0h7m1 0h1m3 0h1m1 0h5m2 0h1m1 0h1m1 0h1m2 0h1m1 0h2m1 0h1m2 0h1m3 0h3m1 0h1m5 0h1m2 0h1m2 0h1m1 0h1m1 0h3m1 0h1m1 0h1m1 0h3m1 0h1m2 0h4m2 0h2m2 0h4m1 0h1m3 0h3m1 0h1m1 0h1m1 0h3m1 0h1m3 0h1m3 0h1m1 0h1m2 0h4m1 0h1m1 0h5m1 0h1m5 0h1m2 0h2m1 0h7m3 0h5m1 0h1m4 0h1m6 0h1M5 139.5h2m1 0h2m2 0h1m2 0h1m2 0h1m2 0h1m2 0h1m1 0h1m4 0h1m1 0h4m5 0h1m1 0h1m1 0h2m1 0h1m2 0h1m1 0h1m2 0h1m2 0h1m1 0h3m1 0h2m1 0h1m2 0h2m1 0h1m1 0h1m2 0h1m2 0h1m1 0h1m2 0h2m2 0h2m1 0h1m2 0h1m1 0h2m1 0h1m2 0h2m1 0h1m1 0h1m2 0h1m1 0h2m3 0h1m2 0h1m2 0h1m1 0h1m2 0h4m1 0h1m2 0h1m1 0h1m3 0h1m2 0h1m1 0h1m1 0h3m1 0h1m3 0h3m1 0h1m1 0h2m1 0h1m1 0h2m2 0h1m1 0h3M4 140.5h3m1 0h1m1 0h1m2 0h5m1 0h1m3 0h4m1 0h1m2 0h2m1 0h1m1 0h1m3 0h2m3 0h1m1 0h1m1 0h2m2 0h1m2 0h4m1 0h1m1 0h1m3 0h1m1 0h1m3 0h1m1 0h1m1 0h1m3 0h1m1 0h1m1 0h1m1 0h1m1 0h3m1 0h3m1 0h1m1 0h1m1 0h3m1 0h1m1 0h1m1 0h3m1 0h1m1 0h1m1 0h1m2 0h4m3 0h5m1 0h1m1 0h5m1 0h1m3 0h1m2 0h4m1 0h1m1 0h1m1 0h2m1 0h2m1 0h1m1 0h5m2 0h3m2 0h1m1 0h2M4 141.5h1m2 0h3m4 0h1m2 0h4m1 0h1m1 0h1m1 0h1m1 0h2m1 0h1m1 0h4m3 0h3m1 0h1m1 0h1m2 0h1m2 0h1m1 0h4m2 0h2m1 0h2m1 0h1m1 0h2m4 0h1m1 0h2m3 0h1m2 0h2m1 0h3m1 0h1m1 0h2m1 0h2m1 0h4m1 0h2m2 0h3m1 0h2m1 0h3m2 0h3m1 0h1m1 0h2m1 0h2m1 0h1m1 0h2m1 0h2m1 0h2m3 0h1m2 0h2m3 0h3m1 0h1m1 0h5m1 0h1m2 0h3m1 0h3m2 0h4M4 142.5h2m1 0h5m1 0h2m1 0h3m1 0h1m1 0h1m3 0h1m1 0h1m2 0h2m1 0h4m1 0h2m1 0h1m2 0h1m2 0h3m2 0h1m1 0h5m1 0h1m1 0h3m1 0h1m1 0h2m3 0h2m1 0h2m2 0h3m1 0h3m1 0h3m1 0h1m3 0h5m3 0h2m2 0h1m3 0h6m1 0h3m2 0h3m1 0h2m4 0h1m1 0h2m2 0h1m2 0h4m1 0h2m1 0h2m1 0h1m1 0h5m1 0h1m1 0h2m2 0h1m1 0h1m1 0h1m2 0h2m1 0h2M5 143.5h1m1 0h3m3 0h1m3 0h2m1 0h1m1 0h1m1 0h2m2 0h5m1 0h1m3 0h1m1 0h2m3 0h1m2 0h3m2 0h1m1 0h1m1 0h4m1 0h2m1 0h1m2 0h3m5 0h3m2 0h2m1 0h7m1 0h3m1 0h2m2 0h3m1 0h2m2 0h3m1 0h2m2 0h3m1 0h3m2 0h2m1 0h3m3 0h1m1 0h3m3 0h1m1 0h2m2 0h3m1 0h1m1 0h1m1 0h4m2 0h1m1 0h3m3 0h3m5 0h2M4 144.5h3m1 0h7m4 0h2m1 0h5m5 0h6m1 0h1m1 0h1m2 0h4m1 0h1m2 0h4m1 0h1m1 0h7m3 0h2m1 0h2m3 0h2m1 0h1m1 0h1m2 0h9m3 0h2m2 0h1m3 0h3m1 0h1m3 0h2m1 0h6m3 0h1m1 0h1m1 0h1m3 0h1m1 0h1m1 0h1m4 0h1m1 0h6m1 0h1m2 0h1m2 0h1m1 0h1m2 0h1m2 0h1m2 0h1m1 0h7m1 0h2M4 145.5h2m2 0h1m3 0h1m1 0h2m2 0h1m2 0h4m4 0h1m2 0h1m3 0h1m3 0h3m2 0h1m1 0h1m1 0h2m2 0h1m3 0h4m3 0h1m1 0h1m2 0h2m1 0h2m3 0h2m1 0h1m4 0h4m3 0h1m1 0h1m2 0h2m3 0h1m2 0h4m1 0h1m2 0h2m1 0h1m3 0h1m1 0h1m3 0h1m1 0h1m1 0h1m2 0h1m2 0h1m1 0h1m4 0h2m3 0h4m2 0h1m1 0h3m3 0h1m1 0h3m3 0h1m1 0h1m3 0h1m1 0h2M4 146.5h1m1 0h1m1 0h1m1 0h1m1 0h1m3 0h3m1 0h2m6 0h1m1 0h1m1 0h1m1 0h1m1 0h1m1 0h1m1 0h1m3 0h4m1 0h1m2 0h3m1 0h2m2 0h1m1 0h1m1 0h1m1 0h1m2 0h1m2 0h3m2 0h1m2 0h1m4 0h1m2 0h1m1 0h1m1 0h1m1 0h1m1 0h2m2 0h1m1 0h1m1 0h2m1 0h2m1 0h1m1 0h2m1 0h2m1 0h1m1 0h2m2 0h1m4 0h1m2 0h2m3 0h1m2 0h2m1 0h2m1 0h1m1 0h2m1 0h1m2 0h1m2 0h1m2 0h1m1 0h1m2 0h1m2 0h1m1 0h1m1 0h1m1 0h1m1 0h2m1 0h1M4 147.5h5m3 0h1m1 0h1m1 0h4m2 0h2m1 0h1m4 0h3m3 0h2m6 0h3m1 0h1m1 0h1m1 0h3m1 0h1m1 0h1m1 0h1m3 0h1m5 0h1m1 0h3m3 0h1m1 0h1m1 0h1m3 0h3m3 0h1m1 0h1m2 0h4m1 0h1m2 0h2m1 0h1m1 0h1m2 0h4m3 0h1m1 0h1m1 0h1m1 0h1m3 0h1m1 0h1m1 0h1m3 0h1m1 0h2m2 0h1m3 0h1m1 0h1m1 0h1m5 0h1m1 0h1m5 0h1m1 0h1m3 0h1m3 0h2m2 0h1M4 148.5h10m3 0h1m1 0h3m6 0h9m1 0h1m1 0h4m1 0h1m4 0h2m1 0h1m1 0h1m2 0h7m1 0h1m1 0h2m1 0h1m2 0h1m1 0h2m1 0h1m1 0h2m1 0h2m1 0h6m1 0h1m1 0h2m1 0h2m1 0h1m1 0h2m4 0h1m1 0h2m2 0h5m1 0h1m1 0h2m4 0h1m1 0h1m1 0h1m3 0h1m1 0h9m1 0h1m5 0h1m1 0h2m4 0h1m1 0h2m3 0h8M5 149.5h1m1 0h1m1 0h1m1 0h2m1 0h1m4 0h1m2 0h4m1 0h1m2 0h1m1 0h3m4 0h1m2 0h1m1 0h1m3 0h1m1 0h1m1 0h4m2 0h2m1 0h1m6 0h1m1 0h3m3 0h1m1 0h5m1 0h1m1 0h2m2 0h3m3 0h1m1 0h2m4 0h1m1 0h1m5 0h1m1 0h2m4 0h1m3 0h2m6 0h1m7 0h3m5 0h1m1 0h1m1 0h1m5 0h1m1 0h1m5 0h1m1 0h1m2 0h1m1 0h3m1 0h1m2 0h1M5 150.5h1m4 0h2m4 0h1m2 0h4m1 0h5m2 0h1m1 0h3m1 0h1m1 0h1m2 0h2m3 0h1m2 0h2m1 0h1m1 0h1m2 0h1m2 0h2m1 0h1m3 0h1m1 0h2m4 0h1m1 0h2m1 0h1m2 0h1m1 0h1m4 0h1m3 0h1m2 0h2m3 0h1m2 0h1m1 0h1m2 0h1m2 0h2m6 0h2m1 0h1m2 0h1m1 0h2m1 0h1m2 0h1m1 0h2m2 0h2m6 0h2m4 0h1m1 0h2m4 0h1m1 0h2m5 0h1m1 0h1m1 0h2M5 151.5h1m1 0h1m1 0h1m1 0h1m7 0h2m2 0h1m1 0h3m1 0h2m4 0h1m1 0h3m2 0h3m1 0h3m2 0h2m1 0h1m1 0h1m5 0h1m1 0h1m1 0h1m1 0h1m2 0h2m1 0h1m1 0h1m2 0h2m1 0h1m1 0h1m3 0h1m1 0h1m1 0h1m3 0h1m1 0h1m5 0h1m1 0h3m3 0h1m1 0h2m2 0h1m1 0h1m2 0h2m1 0h1m1 0h1m2 0h3m2 0h1m2 0h2m5 0h1m4 0h2m1 0h1m1 0h1m2 0h2m1 0h1m1 0h1m2 0h2m1 0h2m2 0h1m1 0h3M5 152.5h1m1 0h2m1 0h2m1 0h1m1 0h1m3 0h1m5 0h4m1 0h1m1 0h6m1 0h1m2 0h4m1 0h2m2 0h2m1 0h1m7 0h2m3 0h1m2 0h3m2 0h1m2 0h3m2 0h1m2 0h2m1 0h1m5 0h1m2 0h1m1 0h1m2 0h1m2 0h3m2 0h1m2 0h1m2 0h1m5 0h1m2 0h1m1 0h1m2 0h1m1 0h4m2 0h1m3 0h1m7 0h3m1 0h1m3 0h3m1 0h1m3 0h3m5 0h1m1 0h1m2 0h1M5 153.5h1m1 0h3m1 0h1m2 0h4m3 0h2m1 0h3m1 0h2m1 0h2m1 0h2m5 0h1m1 0h4m1 0h1m2 0h2m1 0h1m1 0h1m3 0h1m3 0h1m1 0h3m2 0h1m2 0h3m2 0h1m2 0h3m3 0h2m4 0h3m3 0h1m1 0h3m2 0h1m2 0h3m3 0h1m1 0h1m3 0h3m3 0h1m1 0h6m2 0h3m1 0h2m2 0h1m4 0h2m1 0h1m1 0h1m2 0h2m1 0h1m1 0h1m2 0h2m1 0h1m1 0h1m1 0h1m1 0h3M4 154.5h2m2 0h1m1 0h3m3 0h1m2 0h3m1 0h8m1 0h3m1 0h1m1 0h8m5 0h3m1 0h1m3 0h2m2 0h1m1 0h1m1 0h1m3 0h3m1 0h1m3 0h3m1 0h1m3 0h3m1 0h1m1 0h1m1 0h2m2 0h1m1 0h1m1 0h2m2 0h1m1 0h1m1 0h2m3 0h2m2 0h1m2 0h3m1 0h1m3 0h2m1 0h2m3 0h4m2 0h1m2 0h1m2 0h3m1 0h1m3 0h3m1 0h1m3 0h3m1 0h1m1 0h1m3 0h1m2 0h1M4 155.5h1m2 0h2m6 0h1m5 0h1m2 0h1m2 0h2m1 0h3m1 0h1m1 0h6m1 0h1m2 0h1m3 0h2m1 0h1m1 0h2m1 0h1m1 0h2m1 0h3m1 0h2m1 0h2m1 0h1m1 0h2m1 0h2m1 0h1m1 0h2m1 0h1m1 0h2m1 0h2m1 0h4m1 0h1m2 0h3m2 0h1m2 0h3m2 0h3m1 0h2m1 0h2m1 0h1m1 0h2m1 0h2m4 0h1m1 0h2m1 0h3m1 0h1m2 0h1m1 0h2m1 0h1m1 0h2m1 0h2m1 0h1m1 0h2m1 0h2m1 0h1m2 0h2m4 0h1m1 0h1M4 156.5h1m1 0h3m1 0h4m2 0h1m1 0h2m1 0h2m6 0h2m3 0h1m1 0h1m1 0h1m2 0h1m1 0h1m2 0h1m1 0h2m1 0h1m1 0h5m1 0h7m1 0h2m2 0h1m1 0h1m1 0h2m2 0h1m1 0h1m1 0h2m3 0h6m1 0h5m1 0h1m1 0h2m2 0h1m1 0h1m1 0h2m2 0h1m1 0h5m1 0h5m1 0h1m1 0h2m3 0h2m1 0h3m3 0h1m2 0h2m1 0h1m1 0h5m1 0h1m1 0h5m1 0h1m1 0h5m4 0h2M5 157.5h2m1 0h1m3 0h1m1 0h3m3 0h1m4 0h2m1 0h1m1 0h1m2 0h4m3 0h1m1 0h2m2 0h3m1 0h2m2 0h1m1 0h1m1 0h1m1 0h6m1 0h1m2 0h1m1 0h2m1 0h1m2 0h1m1 0h2m1 0h1m2 0h1m1 0h4m1 0h1m1 0h1m1 0h2m1 0h2m1 0h1m2 0h1m1 0h2m1 0h1m2 0h1m2 0h1m1 0h1m1 0h1m1 0h1m1 0h2m1 0h2m1 0h1m2 0h1m1 0h2m1 0h1m2 0h1m1 0h2m2 0h1m1 0h2m1 0h1m1 0h2m1 0h2m1 0h1m1 0h2m1 0h2m1 0h1m2 0h1m1 0h1m3 0h1m1 0h1M5 158.5h2m1 0h3m2 0h1m1 0h2m2 0h1m1 0h1m1 0h3m2 0h2m1 0h4m1 0h4m3 0h1m1 0h1m1 0h3m1 0h1m2 0h1m2 0h1m2 0h2m1 0h7m1 0h1m1 0h5m1 0h1m1 0h2m2 0h1m2 0h8m1 0h1m3 0h3m1 0h1m3 0h3m1 0h1m3 0h3m1 0h1m1 0h1m1 0h2m2 0h1m1 0h1m1 0h3m1 0h1m1 0h1m3 0h1m1 0h3m1 0h1m1 0h1m1 0h5m1 0h1m1 0h5m1 0h1m1 0h2m1 0h1m1 0h1m1 0h1m1 0h2M4 159.5h5m2 0h2m5 0h1m3 0h2m2 0h1m2 0h3m1 0h2m1 0h1m2 0h2m3 0h2m1 0h1m1 0h1m2 0h1m4 0h1m1 0h5m1 0h3m1 0h1m2 0h4m1 0h1m2 0h3m2 0h1m1 0h5m1 0h1m1 0h1m4 0h2m1 0h1m1 0h2m1 0h2m1 0h1m2 0h1m1 0h3m2 0h1m2 0h3m2 0h1m2 0h6m2 0h1m1 0h1m1 0h6m2 0h4m1 0h1m2 0h4m1 0h1m2 0h3m1 0h1m3 0h1m2 0h2M4 160.5h1m1 0h1m3 0h5m1 0h2m1 0h1m3 0h4m1 0h1m2 0h3m1 0h1m4 0h2m3 0h3m1 0h2m5 0h3m1 0h2m1 0h1m1 0h3m1 0h1m3 0h3m1 0h1m3 0h2m1 0h2m1 0h3m1 0h1m1 0h3m5 0h3m1 0h1m3 0h3m1 0h1m1 0h3m2 0h4m1 0h1m1 0h1m1 0h3m1 0h1m1 0h1m1 0h3m1 0h1m1 0h5m1 0h2m2 0h1m1 0h1m1 0h2m2 0h1m1 0h1m1 0h2m2 0h1m2 0h2m2 0h1m2 0h2M4 161.5h1m1 0h2m1 0h1m1 0h1m2 0h1m1 0h5m5 0h1m1 0h1m2 0h1m2 0h1m5 0h2m2 0h1m1 0h1m2 0h1m2 0h2m3 0h1m1 0h2m1 0h2m1 0h2m1 0h2m3 0h2m1 0h2m3 0h2m1 0h2m1 0h2m1 0h1m1 0h3m1 0h1m1 0h1m2 0h2m1 0h1m1 0h1m2 0h2m1 0h2m2 0h3m1 0h3m1 0h1m1 0h5m1 0h1m1 0h1m1 0h3m1 0h2m2 0h5m1 0h1m1 0h4m1 0h1m2 0h4m1 0h1m2 0h6m2 0h1m2 0h2M5 162.5h1m3 0h6m2 0h2m1 0h1m1 0h2m2 0h1m1 0h3m1 0h1m2 0h3m1 0h2m5 0h1m1 0h3m2 0h2m1 0h4m2 0h2m1 0h1m1 0h1m1 0h2m2 0h1m2 0h3m2 0h1m1 0h5m1 0h1m1 0h1m1 0h1m3 0h1m2 0h2m4 0h1m1 0h2m3 0h3m1 0h1m1 0h1m1 0h2m2 0h1m1 0h4m2 0h1m3 0h2m2 0h1m3 0h1m1 0h2m1 0h1m2 0h1m1 0h1m1 0h2m2 0h1m1 0h1m1 0h2m2 0h1m1 0h5m3 0h2M6 163.5h2m6 0h1m1 0h3m1 0h1m1 0h1m2 0h1m2 0h1m2 0h4m1 0h1m1 0h3m1 0h1m5 0h3m2 0h2m1 0h3m1 0h1m1 0h1m1 0h1m1 0h1m1 0h3m3 0h1m1 0h3m3 0h2m1 0h2m3 0h1m1 0h3m1 0h3m2 0h2m1 0h1m1 0h1m2 0h2m1 0h1m1 0h1m3 0h2m1 0h2m3 0h2m1 0h2m3 0h1m2 0h2m3 0h1m3 0h2m6 0h1m1 0h3m3 0h1m1 0h3m3 0h7m1 0h2M4 164.5h3m3 0h2m2 0h1m1 0h1m2 0h2m1 0h5m4 0h2m2 0h3m1 0h1m1 0h1m2 0h1m2 0h1m1 0h1m2 0h2m1 0h1m1 0h1m1 0h1m2 0h1m2 0h1m3 0h2m1 0h2m1 0h1m1 0h2m1 0h2m1 0h1m1 0h3m2 0h1m2 0h1m3 0h1m2 0h2m3 0h1m2 0h2m4 0h2m2 0h2m1 0h1m4 0h1m2 0h1m4 0h2m1 0h1m4 0h2m1 0h1m1 0h2m3 0h1m1 0h1m2 0h1m2 0h1m1 0h1m2 0h1m2 0h1m1 0h2m2 0h2m1 0h1m1 0h1M4 165.5h5m2 0h2m5 0h1m2 0h4m7 0h2m3 0h1m2 0h3m2 0h1m2 0h3m5 0h3m5 0h1m1 0h1m2 0h2m1 0h1m1 0h5m1 0h1m1 0h1m1 0h3m7 0h1m3 0h1m1 0h1m1 0h1m2 0h1m2 0h1m1 0h1m4 0h1m2 0h1m1 0h1m1 0h1m7 0h1m4 0h2m1 0h1m4 0h1m2 0h2m1 0h1m4 0h1m1 0h1m5 0h1m1 0h3m3 0h1m4 0h2m1 0h2M4 166.5h1m2 0h1m1 0h5m2 0h3m1 0h3m5 0h1m1 0h2m3 0h1m1 0h1m2 0h1m3 0h4m1 0h1m2 0h1m2 0h1m1 0h1m1 0h1m6 0h2m1 0h1m2 0h1m1 0h2m1 0h1m2 0h1m1 0h1m1 0h2m1 0h1m2 0h1m3 0h1m1 0h1m1 0h2m2 0h1m1 0h4m2 0h1m1 0h1m2 0h1m2 0h1m2 0h1m2 0h1m1 0h1m1 0h2m2 0h1m1 0h4m2 0h1m1 0h1m1 0h1m1 0h2m1 0h2m1 0h1m1 0h1m5 0h1m1 0h1m2 0h1m2 0h1m1 0h2m3 0h3m1 0h1M4 167.5h2m2 0h1m3 0h1m2 0h5m2 0h2m1 0h1m4 0h1m1 0h2m1 0h2m7 0h5m1 0h1m1 0h1m1 0h3m1 0h2m7 0h2m1 0h1m1 0h1m3 0h1m1 0h1m1 0h1m3 0h1m1 0h2m6 0h1m3 0h1m1 0h1m1 0h1m3 0h1m1 0h1m1 0h1m2 0h1m1 0h1m4 0h1m1 0h1m1 0h1m3 0h1m1 0h1m1 0h1m2 0h1m2 0h1m1 0h1m3 0h1m3 0h3m1 0h1m5 0h1m1 0h1m5 0h1m1 0h1m5 0h2m1 0h1m2 0h1M4 168.5h2m1 0h1m1 0h4m4 0h1m1 0h3m6 0h4m1 0h1m2 0h1m1 0h1m1 0h4m1 0h1m1 0h2m1 0h2m1 0h1m1 0h2m1 0h2m4 0h1m1 0h4m1 0h1m2 0h1m2 0h1m1 0h1m2 0h2m1 0h1m6 0h1m1 0h1m1 0h2m1 0h1m2 0h1m1 0h1m1 0h2m2 0h1m1 0h3m4 0h1m2 0h1m1 0h1m2 0h2m1 0h1m1 0h1m5 0h1m1 0h1m3 0h1m1 0h2m1 0h1m1 0h1m4 0h2m1 0h1m4 0h1m1 0h2m3 0h1m3 0h4M5 169.5h1m1 0h2m2 0h2m1 0h1m4 0h1m2 0h1m2 0h1m1 0h1m2 0h2m1 0h2m4 0h1m2 0h1m1 0h1m2 0h2m1 0h1m1 0h5m1 0h2m2 0h1m4 0h1m2 0h3m5 0h3m2 0h2m1 0h2m2 0h1m1 0h1m3 0h2m1 0h2m3 0h1m2 0h2m3 0h3m4 0h2m3 0h1m1 0h2m4 0h1m1 0h1m5 0h1m1 0h3m3 0h1m3 0h1m4 0h2m1 0h1m5 0h1m1 0h1m2 0h1m2 0h2m1 0h1m2 0h1M4 170.5h3m2 0h3m1 0h2m1 0h1m2 0h2m4 0h4m1 0h2m1 0h3m2 0h2m2 0h2m3 0h2m1 0h2m1 0h1m1 0h2m1 0h1m2 0h1m2 0h1m5 0h2m3 0h1m2 0h2m3 0h1m2 0h1m5 0h1m2 0h1m1 0h4m2 0h1m3 0h2m2 0h1m1 0h1m5 0h2m1 0h2m3 0h1m2 0h2m4 0h1m1 0h2m3 0h1m7 0h1m4 0h2m1 0h1m4 0h2m1 0h1m5 0h1m1 0h1m1 0h2M7 171.5h1m3 0h1m7 0h2m4 0h3m4 0h1m2 0h1m2 0h2m2 0h3m1 0h2m3 0h2m1 0h2m6 0h1m1 0h1m1 0h1m4 0h2m1 0h3m2 0h2m1 0h1m1 0h1m3 0h1m1 0h1m1 0h1m3 0h1m1 0h3m3 0h2m1 0h2m3 0h1m3 0h1m1 0h1m1 0h1m2 0h2m1 0h1m1 0h1m2 0h2m1 0h1m1 0h1m2 0h2m1 0h2m2 0h1m3 0h3m1 0h1m1 0h1m1 0h3m1 0h1m1 0h2m1 0h2m1 0h2m1 0h1m2 0h3M5 172.5h1m1 0h1m1 0h3m2 0h3m2 0h1m2 0h1m1 0h5m1 0h1m1 0h5m2 0h1m2 0h4m1 0h1m3 0h2m1 0h2m4 0h5m3 0h1m1 0h3m2 0h2m1 0h3m5 0h7m2 0h1m2 0h3m2 0h1m1 0h4m2 0h1m3 0h6m2 0h1m1 0h1m2 0h1m2 0h1m1 0h1m1 0h2m2 0h1m1 0h1m2 0h6m1 0h3m1 0h1m2 0h4m1 0h1m1 0h5m2 0h6m2 0h1M12 173.5h1m3 0h2m5 0h4m1 0h2m2 0h1m3 0h3m2 0h1m1 0h2m1 0h2m3 0h2m1 0h2m4 0h1m3 0h1m1 0h1m1 0h1m2 0h1m2 0h2m3 0h1m2 0h1m5 0h1m3 0h1m1 0h3m2 0h1m2 0h6m2 0h3m1 0h3m3 0h1m1 0h4m2 0h1m1 0h4m1 0h1m2 0h4m2 0h1m3 0h5m1 0h1m1 0h1m1 0h3m1 0h2m2 0h3m1 0h1m1 0h1m3 0h3M4 174.5h7m1 0h1m6 0h2m1 0h1m1 0h9m1 0h1m1 0h10m1 0h1m3 0h3m1 0h1m3 0h2m1 0h1m1 0h2m1 0h2m2 0h3m5 0h3m1 0h1m3 0h2m1 0h1m1 0h2m1 0h2m2 0h1m1 0h1m1 0h3m1 0h1m1 0h1m1 0h3m1 0h2m1 0h1m1 0h1m2 0h3m1 0h1m3 0h3m1 0h1m3 0h3m1 0h2m1 0h1m1 0h2m1 0h3m1 0h1m1 0h1m1 0h3m1 0h1m2 0h4m1 0h2m1 0h1m1 0h2m2 0h1M4 175.5h1m5 0h1m1 0h3m6 0h1m1 0h2m2 0h3m2 0h1m3 0h6m1 0h1m1 0h1m2 0h1m1 0h2m1 0h1m2 0h1m1 0h1m1 0h1m3 0h2m1 0h1m2 0h2m1 0h1m4 0h2m1 0h1m1 0h2m1 0h1m1 0h1m3 0h1m1 0h4m1 0h1m2 0h3m2 0h1m2 0h5m1 0h1m3 0h1m1 0h2m1 0h1m1 0h2m1 0h2m1 0h1m2 0h1m1 0h2m1 0h1m2 0h1m3 0h1m1 0h2m1 0h1m1 0h3m1 0h1m1 0h1m2 0h1m2 0h1m1 0h1m2 0h1m3 0h1m1 0h1m1 0h1M4 176.5h1m1 0h3m1 0h1m1 0h2m1 0h1m2 0h2m1 0h4m4 0h9m3 0h1m1 0h1m1 0h2m2 0h1m1 0h1m1 0h2m2 0h1m1 0h7m1 0h1m1 0h3m1 0h1m2 0h1m2 0h1m1 0h1m1 0h2m2 0h7m1 0h5m1 0h1m1 0h2m2 0h1m1 0h1m1 0h3m1 0h7m1 0h5m1 0h1m1 0h5m1 0h1m1 0h10m1 0h2m1 0h7m1 0h2m4 0h1m1 0h8m1 0h2M4 177.5h1m1 0h3m1 0h1m4 0h2m3 0h1m4 0h2m1 0h4m3 0h1m1 0h2m1 0h1m1 0h2m1 0h1m2 0h1m1 0h2m1 0h1m2 0h1m1 0h3m1 0h1m1 0h2m2 0h3m1 0h2m2 0h1m1 0h1m1 0h2m1 0h1m2 0h3m1 0h1m1 0h2m1 0h1m1 0h2m1 0h2m1 0h1m2 0h1m1 0h2m1 0h1m2 0h3m1 0h4m1 0h1m1 0h2m1 0h2m1 0h1m1 0h2m1 0h2m1 0h1m1 0h3m3 0h2m1 0h2m1 0h1m2 0h1m1 0h2m1 0h1m2 0h2m1 0h1m1 0h1m2 0h1m1 0h1m1 0h1m1 0h3M4 178.5h1m1 0h3m1 0h1m1 0h3m4 0h1m1 0h1m2 0h2m2 0h2m1 0h3m1 0h1m1 0h3m3 0h1m1 0h2m2 0h1m1 0h1m1 0h2m2 0h1m1 0h1m2 0h2m1 0h2m1 0h2m1 0h1m1 0h5m1 0h1m1 0h2m2 0h1m1 0h2m1 0h1m2 0h3m1 0h1m3 0h3m1 0h1m3 0h3m2 0h4m1 0h3m1 0h1m1 0h2m2 0h1m1 0h1m1 0h2m2 0h1m1 0h1m1 0h3m3 0h3m1 0h1m1 0h2m3 0h2m1 0h3m1 0h3m1 0h3m2 0h2m2 0h3M4 179.5h1m5 0h1m1 0h1m5 0h1m2 0h1m1 0h1m2 0h1m2 0h1m2 0h1m2 0h1m1 0h1m1 0h2m3 0h3m2 0h1m2 0h3m2 0h1m1 0h2m3 0h3m1 0h1m1 0h1m1 0h4m1 0h1m2 0h3m2 0h1m1 0h2m1 0h1m1 0h2m1 0h1m1 0h2m1 0h2m1 0h1m1 0h2m1 0h2m4 0h2m2 0h2m1 0h1m2 0h3m2 0h1m2 0h3m2 0h1m2 0h3m1 0h1m1 0h2m1 0h1m2 0h3m5 0h7m1 0h5m2 0h2M4 180.5h7m1 0h1m1 0h1m2 0h1m1 0h1m3 0h1m1 0h2m1 0h2m3 0h1m1 0h4m1 0h2m3 0h1m2 0h3m2 0h1m2 0h5m1 0h1m2 0h3m5 0h3m1 0h1m3 0h2m1 0h2m1 0h2m1 0h1m2 0h3m1 0h1m3 0h3m1 0h1m3 0h2m1 0h2m1 0h2m1 0h1m2 0h3m1 0h1m3 0h3m1 0h1m3 0h3m1 0h1m3 0h1m1 0h1m1 0h2m2 0h1m2 0h1m4 0h1m1 0h3m3 0h1m1 0h2m2 0h2m3 0h1"/></svg>