<svg xmlns="http://www.w3.org/2000/svg" width="540" height="540" viewBox="0 0 45 45" role="img"><path fill="#fdfaf6" d="M0 0h45v45H0z"/><path fill="#17365d" fill-rule="evenodd" d="M15 4h5v1h-5ZM16 5h1v1h-1ZM18 5h2v1h-2ZM29 5h1v1h-1ZM16 6h2v1h-2ZM19 6h1v1h-1ZM22 6h3v1h-3ZM28 6h4v1h-4ZM14 7h1v1h-1ZM17 7h4v1h-4ZM29 7h4v1h-4ZM14 8h4v1h-4ZM19 8h1v1h-1ZM14 9h3v1h-3ZM24 10h1v2h-1ZM12 11h2v1h-2ZM18 11h2v1h-2ZM26 11h3v1h-3ZM30 11h2v1h-2ZM11 12h5v1h-5ZM27 12h2v1h-2ZM34 12h1v1h-1ZM6 13h1v1h-1ZM13 13h1v1h-1ZM15 13h4v1h-4ZM34 13h2v1h-2ZM4 14h1v1h-1ZM6 14h2v1h-2ZM11 14h3v1h-3ZM17 14h2v1h-2ZM22 14h1v1h-1ZM25 14h4v1h-4ZM31 14h1v2h-1ZM39 14h2v1h-2ZM4 15h2v2h-2ZM7 15h1v1h-1ZM13 15h1v2h-1ZM21 15h2v1h-2ZM26 15h3v1h-3ZM40 15h1v1h-1ZM7 16h3v1h-3ZM31 16h3v1h-3ZM4 17h1v3h-1ZM7 17h1v1h-1ZM12 17h2v1h-2ZM23 17h1v1h-1ZM31 17h2v1h-2ZM7 18h4v1h-4ZM20 18h1v2h-1ZM26 18h2v1h-2ZM31 18h3v1h-3ZM7 19h1v2h-1ZM26 19h1v1h-1ZM32 19h1v1h-1ZM38 19h1v1h-1ZM12 20h1v2h-1ZM20 20h2v2h-2ZM23 20h1v1h-1ZM29 20h1v1h-1ZM37 20h2v2h-2ZM6 21h1v1h-1ZM28 21h3v1h-3ZM33 21h2v2h-2ZM12 22h4v1h-4ZM18 22h1v1h-1ZM29 22h3v1h-3ZM36 22h5v1h-5ZM23 23h1v1h-1ZM26 23h2v1h-2ZM30 23h1v1h-1ZM34 23h2v1h-2ZM39 23h2v1h-2ZM7 24h1v1h-1ZM17 24h3v1h-3ZM22 24h2v1h-2ZM26 24h5v1h-5ZM40 24h1v1h-1ZM23 25h1v1h-1ZM30 25h1v1h-1ZM20 26h2v1h-2ZM38 26h1v1h-1ZM6 27h1v1h-1ZM15 27h1v1h-1ZM25 27h3v1h-3ZM37 27h4v1h-4ZM6 28h3v1h-3ZM11 28h3v1h-3ZM31 28h1v1h-1ZM39 28h1v1h-1ZM13 29h2v1h-2ZM22 29h1v2h-1ZM30 29h2v1h-2ZM5 30h1v1h-1ZM10 30h3v1h-3ZM30 30h1v1h-1ZM12 31h1v1h-1ZM22 31h2v1h-2ZM7 32h1v1h-1ZM16 32h3v1h-3ZM20 32h1v3h-1ZM23 32h1v2h-1ZM30 32h1v1h-1ZM32 32h6v1h-6ZM16 33h2v1h-2ZM29 33h2v1h-2ZM32 33h1v1h-1ZM36 33h4v1h-4ZM12 34h2v1h-2ZM29 34h4v1h-4ZM36 34h1v2h-1ZM29 35h1v1h-1ZM32 35h1v1h-1ZM32 36h4v1h-4ZM39 36h1v2h-1ZM19 37h1v3h-1ZM34 37h2v1h-2ZM22 38h3v1h-3ZM35 38h1v2h-1ZM38 38h2v1h-2ZM24 39h1v1h-1ZM28 39h2v1h-2ZM38 39h3v1h-3ZM28 40h1v1h-1ZM38 40h2v1h-2ZM14 5L15 5L15 4A1 1 0 0 0 14 5ZM22 4L21.5 4A0.5 0.5 0 0 0 21 4.5L21 5L21.5 5A0.5 0.5 0 0 0 22 4.5ZM24 5L25 5L25 4A1 1 0 0 0 24 5ZM26 4L25 4L25 5A1 1 0 0 0 26 4ZM28 4L27.5 4A0.5 0.5 0 0 0 27 4.5L27 5L27.5 5A0.5 0.5 0 0 0 28 4.5ZM33 4L32.5 4A0.5 0.5 0 0 0 32 4.5L32 5L32.5 5A0.5 0.5 0 0 0 33 4.5ZM21 5L20 5L20 6A1 1 0 0 0 21 5ZM23 6L24 6L24 5A1 1 0 0 0 23 6ZM27 5L26.5 5A0.5 0.5 0 0 0 26 5.5L26 6L26.5 6A0.5 0.5 0 0 0 27 5.5ZM28 6L29 6L29 5A1 1 0 0 0 28 6ZM21 7L22 7L22 6A1 1 0 0 0 21 7ZM26 6L25 6L25 7A1 1 0 0 0 26 6ZM27 7L28 7L28 6A1 1 0 0 0 27 7ZM13 8L14 8L14 7A1 1 0 0 0 13 8ZM22 7L21 7L21 8A1 1 0 0 0 22 7ZM24 7L23 7L23 8A1 1 0 0 0 24 7ZM26 8L27 8L27 7A1 1 0 0 0 26 8ZM13 8L12.5 8A0.5 0.5 0 0 0 12 8.5L12 9L12.5 9A0.5 0.5 0 0 0 13 8.5ZM21 8L20 8L20 9A1 1 0 0 0 21 8ZM23 8L22.5 8A0.5 0.5 0 0 0 22 8.5L22 9L22.5 9A0.5 0.5 0 0 0 23 8.5ZM25 9L26 9L26 8A1 1 0 0 0 25 9ZM27 8L26 8L26 9A1 1 0 0 0 27 8ZM29 8L28.5 8A0.5 0.5 0 0 0 28 8.5L28 9L28.5 9A0.5 0.5 0 0 0 29 8.5ZM31 8L30 8L30 9A1 1 0 0 0 31 8ZM33 8L32 8L32 9A1 1 0 0 0 33 8ZM13 10L14 10L14 9A1 1 0 0 0 13 10ZM18 9L17 9L17 10A1 1 0 0 0 18 9ZM20 9L19 9L19 10A1 1 0 0 0 20 9ZM24 10L25 10L25 9A1 1 0 0 0 24 10ZM28 9L27.5 9A0.5 0.5 0 0 0 27 9.5L27 10L27.5 10A0.5 0.5 0 0 0 28 9.5ZM12 11L13 11L13 10A1 1 0 0 0 12 11ZM15 10L14 10L14 11A1 1 0 0 0 15 10ZM17 10L16 10L16 11A1 1 0 0 0 17 10ZM18 11L19 11L19 10A1 1 0 0 0 18 11ZM21 10L20.5 10A0.5 0.5 0 0 0 20 10.5L20 11L20.5 11A0.5 0.5 0 0 0 21 10.5ZM23 10L22.5 10A0.5 0.5 0 0 0 22 10.5L22 11L22.5 11A0.5 0.5 0 0 0 23 10.5ZM26 11L27 11L27 10A1 1 0 0 0 26 11ZM28 11L29 11L29 10A1 1 0 0 0 28 11ZM30 11L31 11L31 10A1 1 0 0 0 30 11ZM32 11L33 11L33 10A1 1 0 0 0 32 11ZM21 12L22 12L22 11A1 1 0 0 0 21 12ZM33 11L32 11L32 12A1 1 0 0 0 33 11ZM6 13L7 13L7 12A1 1 0 0 0 6 13ZM8 12L7 12L7 13A1 1 0 0 0 8 12ZM10 13L11 13L11 12A1 1 0 0 0 10 13ZM20 12L19 12L19 13A1 1 0 0 0 20 12ZM22 12L21 12L21 13A1 1 0 0 0 22 12ZM25 12L24 12L24 13A1 1 0 0 0 25 12ZM30 12L29 12L29 13A1 1 0 0 0 30 12ZM33 13L34 13L34 12A1 1 0 0 0 33 13ZM36 13L37 13L37 12A1 1 0 0 0 36 13ZM4 14L5 14L5 13A1 1 0 0 0 4 14ZM8 14L9 14L9 13A1 1 0 0 0 8 14ZM22 14L23 14L23 13A1 1 0 0 0 22 14ZM24 13L23 13L23 14A1 1 0 0 0 24 13ZM25 14L26 14L26 13A1 1 0 0 0 25 14ZM31 14L32 14L32 13A1 1 0 0 0 31 14ZM37 13L36 13L36 14A1 1 0 0 0 37 13ZM9 14L8 14L8 15A1 1 0 0 0 9 14ZM10 15L11 15L11 14A1 1 0 0 0 10 15ZM20 14L19 14L19 15A1 1 0 0 0 20 14ZM21 15L22 15L22 14A1 1 0 0 0 21 15ZM30 14L29 14L29 15A1 1 0 0 0 30 14ZM33 14L32 14L32 15A1 1 0 0 0 33 14ZM38 15L39 15L39 14A1 1 0 0 0 38 15ZM9 16L10 16L10 15A1 1 0 0 0 9 16ZM15 15L14 15L14 16A1 1 0 0 0 15 15ZM17 15L16.5 15A0.5 0.5 0 0 0 16 15.5L16 16L16.5 16A0.5 0.5 0 0 0 17 15.5ZM24 15L23 15L23 16A1 1 0 0 0 24 15ZM34 16L35 16L35 15A1 1 0 0 0 34 16ZM11 16L10 16L10 17A1 1 0 0 0 11 16ZM12 17L13 17L13 16A1 1 0 0 0 12 17ZM18 17L19 17L19 16A1 1 0 0 0 18 17ZM20 17L21 17L21 16A1 1 0 0 0 20 17ZM22 16L21 16L21 17A1 1 0 0 0 22 16ZM24 17L25 17L25 16A1 1 0 0 0 24 17ZM26 16L25 16L25 17A1 1 0 0 0 26 16ZM29 16L28 16L28 17A1 1 0 0 0 29 16ZM35 16L34 16L34 17A1 1 0 0 0 35 16ZM38 16L37.5 16A0.5 0.5 0 0 0 37 16.5L37 17L37.5 17A0.5 0.5 0 0 0 38 16.5ZM39 17L40 17L40 16A1 1 0 0 0 39 17ZM41 16L40 16L40 17A1 1 0 0 0 41 16ZM6 17L5 17L5 18A1 1 0 0 0 6 17ZM11 18L12 18L12 17A1 1 0 0 0 11 18ZM15 17L14 17L14 18A1 1 0 0 0 15 17ZM19 17L18 17L18 18A1 1 0 0 0 19 17ZM22 18L23 18L23 17A1 1 0 0 0 22 18ZM25 17L24 17L24 18A1 1 0 0 0 25 17ZM36 18L37 18L37 17A1 1 0 0 0 36 18ZM40 17L39 17L39 18A1 1 0 0 0 40 17ZM6 19L7 19L7 18A1 1 0 0 0 6 19ZM12 18L11 18L11 19A1 1 0 0 0 12 18ZM16 18L15.5 18A0.5 0.5 0 0 0 15 18.5L15 19L15.5 19A0.5 0.5 0 0 0 16 18.5ZM18 18L17.5 18A0.5 0.5 0 0 0 17 18.5L17 19L17.5 19A0.5 0.5 0 0 0 18 18.5ZM19 19L20 19L20 18A1 1 0 0 0 19 19ZM25 19L26 19L26 18A1 1 0 0 0 25 19ZM29 18L28 18L28 19A1 1 0 0 0 29 18ZM30 19L31 19L31 18A1 1 0 0 0 30 19ZM37 18L36 18L36 19A1 1 0 0 0 37 18ZM6 19L5 19L5 20A1 1 0 0 0 6 19ZM9 19L8 19L8 20A1 1 0 0 0 9 19ZM12 20L13 20L13 19A1 1 0 0 0 12 20ZM23 20L24 20L24 19A1 1 0 0 0 23 20ZM28 19L27 19L27 20A1 1 0 0 0 28 19ZM29 20L30 20L30 19A1 1 0 0 0 29 20ZM34 19L33 19L33 20A1 1 0 0 0 34 19ZM35 20L36 20L36 19A1 1 0 0 0 35 20ZM37 20L38 20L38 19A1 1 0 0 0 37 20ZM5 20L4 20L4 21A1 1 0 0 0 5 20ZM6 21L7 21L7 20A1 1 0 0 0 6 21ZM11 20L10.5 20A0.5 0.5 0 0 0 10 20.5L10 21L10.5 21A0.5 0.5 0 0 0 11 20.5ZM18 20L17.5 20A0.5 0.5 0 0 0 17 20.5L17 21L17.5 21A0.5 0.5 0 0 0 18 20.5ZM25 20L24 20L24 21A1 1 0 0 0 25 20ZM28 21L29 21L29 20A1 1 0 0 0 28 21ZM36 20L35 20L35 21A1 1 0 0 0 36 20ZM40 20L39 20L39 21A1 1 0 0 0 40 20ZM5 22L6 22L6 21A1 1 0 0 0 5 22ZM8 21L7 21L7 22A1 1 0 0 0 8 21ZM10 21L9.5 21A0.5 0.5 0 0 0 9 21.5L9 22L9.5 22A0.5 0.5 0 0 0 10 21.5ZM14 22L15 22L15 21A1 1 0 0 0 14 22ZM18 22L19 22L19 21A1 1 0 0 0 18 22ZM25 22L26 22L26 21A1 1 0 0 0 25 22ZM27 21L26 21L26 22A1 1 0 0 0 27 21ZM32 22L33 22L33 21A1 1 0 0 0 32 22ZM36 22L37 22L37 21A1 1 0 0 0 36 22ZM8 23L9 23L9 22A1 1 0 0 0 8 23ZM11 22L10.5 22A0.5 0.5 0 0 0 10 22.5L10 23L10.5 23A0.5 0.5 0 0 0 11 22.5ZM20 22L19 22L19 23A1 1 0 0 0 20 22ZM22 22L21 22L21 23A1 1 0 0 0 22 22ZM23 23L24 23L24 22A1 1 0 0 0 23 23ZM27 23L28 23L28 22A1 1 0 0 0 27 23ZM4 24L5 24L5 23A1 1 0 0 0 4 24ZM7 24L8 24L8 23A1 1 0 0 0 7 24ZM9 23L8 23L8 24A1 1 0 0 0 9 23ZM16 23L15 23L15 24A1 1 0 0 0 16 23ZM17 24L18 24L18 23A1 1 0 0 0 17 24ZM20 24L21 24L21 23A1 1 0 0 0 20 24ZM22 24L23 24L23 23A1 1 0 0 0 22 24ZM25 24L26 24L26 23A1 1 0 0 0 25 24ZM32 23L31 23L31 24A1 1 0 0 0 32 23ZM37 23L36 23L36 24A1 1 0 0 0 37 23ZM5 24L4 24L4 25A1 1 0 0 0 5 24ZM9 25L10 25L10 24A1 1 0 0 0 9 25ZM11 24L10 24L10 25A1 1 0 0 0 11 24ZM15 24L14.5 24A0.5 0.5 0 0 0 14 24.5L14 25L14.5 25A0.5 0.5 0 0 0 15 24.5ZM16 25L17 25L17 24A1 1 0 0 0 16 25ZM21 24L20 24L20 25A1 1 0 0 0 21 24ZM36 24L35 24L35 25A1 1 0 0 0 36 24ZM8 25L7 25L7 26A1 1 0 0 0 8 25ZM10 25L9 25L9 26A1 1 0 0 0 10 25ZM13 25L12.5 25A0.5 0.5 0 0 0 12 25.5L12 26L12.5 26A0.5 0.5 0 0 0 13 25.5ZM25 25L24 25L24 26A1 1 0 0 0 25 25ZM27 25L26 25L26 26A1 1 0 0 0 27 25ZM29 25L28 25L28 26A1 1 0 0 0 29 25ZM32 25L31 25L31 26A1 1 0 0 0 32 25ZM34 25L33.5 25A0.5 0.5 0 0 0 33 25.5L33 26L33.5 26A0.5 0.5 0 0 0 34 25.5ZM37 25L36.5 25A0.5 0.5 0 0 0 36 25.5L36 26L36.5 26A0.5 0.5 0 0 0 37 25.5ZM41 25L40 25L40 26A1 1 0 0 0 41 25ZM5 26L4.5 26A0.5 0.5 0 0 0 4 26.5L4 27L4.5 27A0.5 0.5 0 0 0 5 26.5ZM6 27L7 27L7 26A1 1 0 0 0 6 27ZM10 27L11 27L11 26A1 1 0 0 0 10 27ZM12 26L11 26L11 27A1 1 0 0 0 12 26ZM14 26L13.5 26A0.5 0.5 0 0 0 13 26.5L13 27L13.5 27A0.5 0.5 0 0 0 14 26.5ZM15 27L16 27L16 26A1 1 0 0 0 15 27ZM19 27L20 27L20 26A1 1 0 0 0 19 27ZM25 27L26 27L26 26A1 1 0 0 0 25 27ZM27 27L28 27L28 26A1 1 0 0 0 27 27ZM29 27L30 27L30 26A1 1 0 0 0 29 27ZM33 26L32.5 26A0.5 0.5 0 0 0 32 26.5L32 27L32.5 27A0.5 0.5 0 0 0 33 26.5ZM37 27L38 27L38 26A1 1 0 0 0 37 27ZM5 28L6 28L6 27A1 1 0 0 0 5 28ZM17 27L16 27L16 28A1 1 0 0 0 17 27ZM19 27L18.5 27A0.5 0.5 0 0 0 18 27.5L18 28L18.5 28A0.5 0.5 0 0 0 19 27.5ZM22 27L21 27L21 28A1 1 0 0 0 22 27ZM30 27L29 27L29 28A1 1 0 0 0 30 27ZM31 28L32 28L32 27A1 1 0 0 0 31 28ZM34 28L35 28L35 27A1 1 0 0 0 34 28ZM10 29L11 29L11 28A1 1 0 0 0 10 29ZM16 28L15 28L15 29A1 1 0 0 0 16 28ZM17 29L18 29L18 28A1 1 0 0 0 17 29ZM22 29L23 29L23 28A1 1 0 0 0 22 29ZM26 28L25 28L25 29A1 1 0 0 0 26 28ZM28 28L27 28L27 29A1 1 0 0 0 28 28ZM30 29L31 29L31 28A1 1 0 0 0 30 29ZM35 28L34 28L34 29A1 1 0 0 0 35 28ZM41 28L40 28L40 29A1 1 0 0 0 41 28ZM5 30L6 30L6 29A1 1 0 0 0 5 30ZM9 29L8 29L8 30A1 1 0 0 0 9 29ZM18 29L17 29L17 30A1 1 0 0 0 18 29ZM25 29L24.5 29A0.5 0.5 0 0 0 24 29.5L24 30L24.5 30A0.5 0.5 0 0 0 25 29.5ZM26 30L27 30L27 29A1 1 0 0 0 26 30ZM29 29L28.5 29A0.5 0.5 0 0 0 28 29.5L28 30L28.5 30A0.5 0.5 0 0 0 29 29.5ZM36 30L37 30L37 29A1 1 0 0 0 36 30ZM38 29L37 29L37 30A1 1 0 0 0 38 29ZM40 29L39 29L39 30A1 1 0 0 0 40 29ZM7 30L6 30L6 31A1 1 0 0 0 7 30ZM9 31L10 31L10 30A1 1 0 0 0 9 31ZM15 30L14 30L14 31A1 1 0 0 0 15 30ZM20 30L19.5 30A0.5 0.5 0 0 0 19 30.5L19 31L19.5 31A0.5 0.5 0 0 0 20 30.5ZM25 31L26 31L26 30A1 1 0 0 0 25 31ZM27 30L26 30L26 31A1 1 0 0 0 27 30ZM32 30L31 30L31 31A1 1 0 0 0 32 30ZM35 31L36 31L36 30A1 1 0 0 0 35 31ZM37 30L36 30L36 31A1 1 0 0 0 37 30ZM5 31L4.5 31A0.5 0.5 0 0 0 4 31.5L4 32L4.5 32A0.5 0.5 0 0 0 5 31.5ZM8 32L9 32L9 31A1 1 0 0 0 8 32ZM14 31L13 31L13 32A1 1 0 0 0 14 31ZM16 32L17 32L17 31A1 1 0 0 0 16 32ZM18 32L19 32L19 31A1 1 0 0 0 18 32ZM20 32L21 32L21 31A1 1 0 0 0 20 32ZM26 31L25 31L25 32A1 1 0 0 0 26 31ZM27 32L28 32L28 31A1 1 0 0 0 27 32ZM32 32L33 32L33 31A1 1 0 0 0 32 32ZM6 33L7 33L7 32A1 1 0 0 0 6 33ZM9 32L8 32L8 33A1 1 0 0 0 9 32ZM10 33L11 33L11 32A1 1 0 0 0 10 33ZM12 32L11 32L11 33A1 1 0 0 0 12 32ZM15 33L16 33L16 32A1 1 0 0 0 15 33ZM22 32L21 32L21 33A1 1 0 0 0 22 32ZM28 32L27 32L27 33A1 1 0 0 0 28 32ZM29 33L30 33L30 32A1 1 0 0 0 29 33ZM39 33L40 33L40 32A1 1 0 0 0 39 33ZM12 34L13 34L13 33A1 1 0 0 0 12 34ZM19 33L18 33L18 34A1 1 0 0 0 19 33ZM41 33L40 33L40 34A1 1 0 0 0 41 33ZM15 34L14 34L14 35A1 1 0 0 0 15 34ZM24 34L23 34L23 35A1 1 0 0 0 24 34ZM27 34L26.5 34A0.5 0.5 0 0 0 26 34.5L26 35L26.5 35A0.5 0.5 0 0 0 27 34.5ZM28 35L29 35L29 34A1 1 0 0 0 28 35ZM35 34L34.5 34A0.5 0.5 0 0 0 34 34.5L34 35L34.5 35A0.5 0.5 0 0 0 35 34.5ZM14 35L13 35L13 36A1 1 0 0 0 14 35ZM16 35L15.5 35A0.5 0.5 0 0 0 15 35.5L15 36L15.5 36A0.5 0.5 0 0 0 16 35.5ZM17 36L18 36L18 35A1 1 0 0 0 17 36ZM19 35L18 35L18 36A1 1 0 0 0 19 35ZM21 35L20 35L20 36A1 1 0 0 0 21 35ZM22 36L23 36L23 35A1 1 0 0 0 22 36ZM25 36L26 36L26 35A1 1 0 0 0 25 36ZM38 35L37 35L37 36A1 1 0 0 0 38 35ZM39 36L40 36L40 35A1 1 0 0 0 39 36ZM41 35L40 35L40 36A1 1 0 0 0 41 35ZM15 36L14.5 36A0.5 0.5 0 0 0 14 36.5L14 37L14.5 37A0.5 0.5 0 0 0 15 36.5ZM16 37L17 37L17 36A1 1 0 0 0 16 37ZM19 37L20 37L20 36A1 1 0 0 0 19 37ZM23 36L22 36L22 37A1 1 0 0 0 23 36ZM26 36L25 36L25 37A1 1 0 0 0 26 36ZM28 37L29 37L29 36A1 1 0 0 0 28 37ZM30 36L29 36L29 37A1 1 0 0 0 30 36ZM37 36L36 36L36 37A1 1 0 0 0 37 36ZM38 37L39 37L39 36A1 1 0 0 0 38 37ZM12 38L13 38L13 37A1 1 0 0 0 12 38ZM17 37L16 37L16 38A1 1 0 0 0 17 37ZM18 38L19 38L19 37A1 1 0 0 0 18 38ZM21 37L20 37L20 38A1 1 0 0 0 21 37ZM24 38L25 38L25 37A1 1 0 0 0 24 38ZM26 38L27 38L27 37A1 1 0 0 0 26 38ZM28 37L27 37L27 38A1 1 0 0 0 28 37ZM31 38L32 38L32 37A1 1 0 0 0 31 38ZM33 37L32 37L32 38A1 1 0 0 0 33 37ZM41 37L40 37L40 38A1 1 0 0 0 41 37ZM13 38L12 38L12 39A1 1 0 0 0 13 38ZM14 39L15 39L15 38A1 1 0 0 0 14 39ZM21 39L22 39L22 38A1 1 0 0 0 21 39ZM26 38L25 38L25 39A1 1 0 0 0 26 38ZM29 39L30 39L30 38A1 1 0 0 0 29 39ZM33 39L34 39L34 38A1 1 0 0 0 33 39ZM37 39L38 39L38 38A1 1 0 0 0 37 39ZM15 39L14 39L14 40A1 1 0 0 0 15 39ZM17 40L18 40L18 39A1 1 0 0 0 17 40ZM21 39L20 39L20 40A1 1 0 0 0 21 39ZM27 40L28 40L28 39A1 1 0 0 0 27 40ZM31 39L30 39L30 40A1 1 0 0 0 31 39ZM34 39L33 39L33 40A1 1 0 0 0 34 39ZM37 39L36 39L36 40A1 1 0 0 0 37 39ZM14 40L13.5 40A0.5 0.5 0 0 0 13 40.5L13 41L13.5 41A0.5 0.5 0 0 0 14 40.5ZM16 41L17 41L17 40A1 1 0 0 0 16 41ZM18 40L17 40L17 41A1 1 0 0 0 18 40ZM22 40L21.5 40A0.5 0.5 0 0 0 21 40.5L21 41L21.5 41A0.5 0.5 0 0 0 22 40.5ZM23 41L24 41L24 40A1 1 0 0 0 23 41ZM25 40L24 40L24 41A1 1 0 0 0 25 40ZM30 40L29 40L29 41A1 1 0 0 0 30 40ZM33 40L32.5 40A0.5 0.5 0 0 0 32 40.5L32 41L32.5 41A0.5 0.5 0 0 0 33 40.5ZM36 40L35 40L35 41A1 1 0 0 0 36 40ZM37 41L38 41L38 40A1 1 0 0 0 37 41ZM41 40L40 40L40 41A1 1 0 0 0 41 40Z"/><path fill="#234e3f" fill-rule="evenodd" d="M4.5 4A0.5 0.5 0 1 1 4.5 5A0.5 0.5 0 1 1 4.5 4ZM5.5 4A0.5 0.5 0 1 1 5.5 5A0.5 0.5 0 1 1 5.5 4ZM6.5 4A0.5 0.5 0 1 1 6.5 5A0.5 0.5 0 1 1 6.5 4ZM7.5 4A0.5 0.5 0 1 1 7.5 5A0.5 0.5 0 1 1 7.5 4ZM8.5 4A0.5 0.5 0 1 1 8.5 5A0.5 0.5 0 1 1 8.5 4ZM9.5 4A0.5 0.5 0 1 1 9.5 5A0.5 0.5 0 1 1 9.5 4ZM10.5 4A0.5 0.5 0 1 1 10.5 5A0.5 0.5 0 1 1 10.5 4ZM4.5 5A0.5 0.5 0 1 1 4.5 6A0.5 0.5 0 1 1 4.5 5ZM10.5 5A0.5 0.5 0 1 1 10.5 6A0.5 0.5 0 1 1 10.5 5ZM4.5 6A0.5 0.5 0 1 1 4.5 7A0.5 0.5 0 1 1 4.5 6ZM10.5 6A0.5 0.5 0 1 1 10.5 7A0.5 0.5 0 1 1 10.5 6ZM4.5 7A0.5 0.5 0 1 1 4.5 8A0.5 0.5 0 1 1 4.5 7ZM10.5 7A0.5 0.5 0 1 1 10.5 8A0.5 0.5 0 1 1 10.5 7ZM4.5 8A0.5 0.5 0 1 1 4.5 9A0.5 0.5 0 1 1 4.5 8ZM10.5 8A0.5 0.5 0 1 1 10.5 9A0.5 0.5 0 1 1 10.5 8ZM4.5 9A0.5 0.5 0 1 1 4.5 10A0.5 0.5 0 1 1 4.5 9ZM10.5 9A0.5 0.5 0 1 1 10.5 10A0.5 0.5 0 1 1 10.5 9ZM4.5 10A0.5 0.5 0 1 1 4.5 11A0.5 0.5 0 1 1 4.5 10ZM5.5 10A0.5 0.5 0 1 1 5.5 11A0.5 0.5 0 1 1 5.5 10ZM6.5 10A0.5 0.5 0 1 1 6.5 11A0.5 0.5 0 1 1 6.5 10ZM7.5 10A0.5 0.5 0 1 1 7.5 11A0.5 0.5 0 1 1 7.5 10ZM8.5 10A0.5 0.5 0 1 1 8.5 11A0.5 0.5 0 1 1 8.5 10ZM9.5 10A0.5 0.5 0 1 1 9.5 11A0.5 0.5 0 1 1 9.5 10ZM10.5 10A0.5 0.5 0 1 1 10.5 11A0.5 0.5 0 1 1 10.5 10ZM34.5 4A0.5 0.5 0 1 1 34.5 5A0.5 0.5 0 1 1 34.5 4ZM35.5 4A0.5 0.5 0 1 1 35.5 5A0.5 0.5 0 1 1 35.5 4ZM36.5 4A0.5 0.5 0 1 1 36.5 5A0.5 0.5 0 1 1 36.5 4ZM37.5 4A0.5 0.5 0 1 1 37.5 5A0.5 0.5 0 1 1 37.5 4ZM38.5 4A0.5 0.5 0 1 1 38.5 5A0.5 0.5 0 1 1 38.5 4ZM39.5 4A0.5 0.5 0 1 1 39.5 5A0.5 0.5 0 1 1 39.5 4ZM40.5 4A0.5 0.5 0 1 1 40.5 5A0.5 0.5 0 1 1 40.5 4ZM34.5 5A0.5 0.5 0 1 1 34.5 6A0.5 0.5 0 1 1 34.5 5ZM40.5 5A0.5 0.5 0 1 1 40.5 6A0.5 0.5 0 1 1 40.5 5ZM34.5 6A0.5 0.5 0 1 1 34.5 7A0.5 0.5 0 1 1 34.5 6ZM40.5 6A0.5 0.5 0 1 1 40.5 7A0.5 0.5 0 1 1 40.5 6ZM34.5 7A0.5 0.5 0 1 1 34.5 8A0.5 0.5 0 1 1 34.5 7ZM40.5 7A0.5 0.5 0 1 1 40.5 8A0.5 0.5 0 1 1 40.5 7ZM34.5 8A0.5 0.5 0 1 1 34.5 9A0.5 0.5 0 1 1 34.5 8ZM40.5 8A0.5 0.5 0 1 1 40.5 9A0.5 0.5 0 1 1 40.5 8ZM34.5 9A0.5 0.5 0 1 1 34.5 10A0.5 0.5 0 1 1 34.5 9ZM40.5 9A0.5 0.5 0 1 1 40.5 10A0.5 0.5 0 1 1 40.5 9ZM34.5 10A0.5 0.5 0 1 1 34.5 11A0.5 0.5 0 1 1 34.5 10ZM35.5 10A0.5 0.5 0 1 1 35.5 11A0.5 0.5 0 1 1 35.5 10ZM36.5 10A0.5 0.5 0 1 1 36.5 11A0.5 0.5 0 1 1 36.5 10ZM37.5 10A0.5 0.5 0 1 1 37.5 11A0.5 0.5 0 1 1 37.5 10ZM38.5 10A0.5 0.5 0 1 1 38.5 11A0.5 0.5 0 1 1 38.5 10ZM39.5 10A0.5 0.5 0 1 1 39.5 11A0.5 0.5 0 1 1 39.5 10ZM40.5 10A0.5 0.5 0 1 1 40.5 11A0.5 0.5 0 1 1 40.5 10ZM4.5 34A0.5 0.5 0 1 1 4.5 35A0.5 0.5 0 1 1 4.5 34ZM5.5 34A0.5 0.5 0 1 1 5.5 35A0.5 0.5 0 1 1 5.5 34ZM6.5 34A0.5 0.5 0 1 1 6.5 35A0.5 0.5 0 1 1 6.5 34ZM7.5 34A0.5 0.5 0 1 1 7.5 35A0.5 0.5 0 1 1 7.5 34ZM8.5 34A0.5 0.5 0 1 1 8.5 35A0.5 0.5 0 1 1 8.5 34ZM9.5 34A0.5 0.5 0 1 1 9.5 35A0.5 0.5 0 1 1 9.5 34ZM10.5 34A0.5 0.5 0 1 1 10.5 35A0.5 0.5 0 1 1 10.5 34ZM4.5 35A0.5 0.5 0 1 1 4.5 36A0.5 0.5 0 1 1 4.5 35ZM10.5 35A0.5 0.5 0 1 1 10.5 36A0.5 0.5 0 1 1 10.5 35ZM4.5 36A0.5 0.5 0 1 1 4.5 37A0.5 0.5 0 1 1 4.5 36ZM10.5 36A0.5 0.5 0 1 1 10.5 37A0.5 0.5 0 1 1 10.5 36ZM4.5 37A0.5 0.5 0 1 1 4.5 38A0.5 0.5 0 1 1 4.5 37ZM10.5 37A0.5 0.5 0 1 1 10.5 38A0.5 0.5 0 1 1 10.5 37ZM4.5 38A0.5 0.5 0 1 1 4.5 39A0.5 0.5 0 1 1 4.5 38ZM10.5 38A0.5 0.5 0 1 1 10.5 39A0.5 0.5 0 1 1 10.5 38ZM4.5 39A0.5 0.5 0 1 1 4.5 40A0.5 0.5 0 1 1 4.5 39ZM10.5 39A0.5 0.5 0 1 1 10.5 40A0.5 0.5 0 1 1 10.5 39ZM4.5 40A0.5 0.5 0 1 1 4.5 41A0.5 0.5 0 1 1 4.5 40ZM5.5 40A0.5 0.5 0 1 1 5.5 41A0.5 0.5 0 1 1 5.5 40ZM6.5 40A0.5 0.5 0 1 1 6.5 41A0.5 0.5 0 1 1 6.5 40ZM7.5 40A0.5 0.5 0 1 1 7.5 41A0.5 0.5 0 1 1 7.5 40ZM8.5 40A0.5 0.5 0 1 1 8.5 41A0.5 0.5 0 1 1 8.5 40ZM9.5 40A0.5 0.5 0 1 1 9.5 41A0.5 0.5 0 1 1 9.5 40ZM10.5 40A0.5 0.5 0 1 1 10.5 41A0.5 0.5 0 1 1 10.5 40Z"/><path fill="#4c285e" fill-rule="evenodd" d="M7 6h1v1h-1ZM37 6h1v1h-1ZM6 7h3v1h-3ZM36 7h3v1h-3ZM7 8h1v1h-1ZM37 8h1v1h-1ZM7 36h1v1h-1ZM6 37h3v1h-3ZM7 38h1v1h-1ZM6 7L7 7L7 6L6.5 6A0.5 0.5 0 0 0 6 6.5ZM8 6L8 7L9 7L9 6.5A0.5 0.5 0 0 0 8.5 6ZM7 9L7 8L6 8L6 8.5A0.5 0.5 0 0 0 6.5 9ZM9 8L8 8L8 9L8.5 9A0.5 0.5 0 0 0 9 8.5ZM36 7L37 7L37 6L36.5 6A0.5 0.5 0 0 0 36 6.5ZM38 6L38 7L39 7L39 6.5A0.5 0.5 0 0 0 38.5 6ZM37 9L37 8L36 8L36 8.5A0.5 0.5 0 0 0 36.5 9ZM39 8L38 8L38 9L38.5 9A0.5 0.5 0 0 0 39 8.5ZM6 37L7 37L7 36L6.5 36A0.5 0.5 0 0 0 6 36.5ZM8 36L8 37L9 37L9 36.5A0.5 0.5 0 0 0 8.5 36ZM7 39L7 38L6 38L6 38.5A0.5 0.5 0 0 0 6.5 39ZM9 38L8 38L8 39L8.5 39A0.5 0.5 0 0 0 9 38.5Z"/></svg>