<svg xmlns="http://www.w3.org/2000/svg" width="540" height="540" viewBox="0 0 45 45"><path fill="#ffffff" d="M0 0h45v45H0z"/><path fill="#000000" fill-rule="evenodd" d="M12 4h1v1h-1ZM14 4h2v1h-2ZM17 4h5v1h-5ZM25 4h1v1h-1ZM28 4h1v1h-1ZM31 4h1v1h-1ZM13 5h2v1h-2ZM16 5h2v1h-2ZM19 5h3v1h-3ZM23 5h1v1h-1ZM25 5h2v1h-2ZM28 5h5v1h-5ZM15 6h1v1h-1ZM17 6h1v1h-1ZM19 6h1v1h-1ZM21 6h4v1h-4ZM26 6h1v1h-1ZM28 6h1v1h-1ZM31 6h1v1h-1ZM12 7h3v1h-3ZM16 7h3v1h-3ZM20 7h1v2h-1ZM23 7h1v1h-1ZM26 7h3v1h-3ZM30 7h1v1h-1ZM13 8h3v1h-3ZM22 8h2v1h-2ZM25 8h1v1h-1ZM28 8h1v1h-1ZM31 8h1v1h-1ZM17 9h2v1h-2ZM21 9h2v1h-2ZM26 9h1v2h-1ZM29 9h4v1h-4ZM12 10h1v1h-1ZM14 10h1v2h-1ZM16 10h1v1h-1ZM18 10h1v1h-1ZM20 10h1v1h-1ZM22 10h1v1h-1ZM24 10h1v1h-1ZM28 10h1v1h-1ZM30 10h1v1h-1ZM32 10h1v1h-1ZM17 11h1v1h-1ZM21 11h1v1h-1ZM23 11h1v1h-1ZM25 11h5v1h-5ZM31 11h1v1h-1ZM6 12h1v1h-1ZM8 12h3v1h-3ZM12 12h4v1h-4ZM18 12h6v1h-6ZM25 12h1v1h-1ZM28 12h2v1h-2ZM31 12h3v1h-3ZM37 12h1v1h-1ZM40 12h1v1h-1ZM5 13h1v1h-1ZM7 13h2v1h-2ZM13 13h1v2h-1ZM15 13h1v1h-1ZM18 13h1v1h-1ZM22 13h1v1h-1ZM24 13h1v1h-1ZM27 13h1v1h-1ZM29 13h1v1h-1ZM32 13h1v2h-1ZM34 13h1v1h-1ZM39 13h2v1h-2ZM4 14h1v1h-1ZM8 14h1v2h-1ZM10 14h1v1h-1ZM16 14h1v2h-1ZM18 14h5v1h-5ZM24 14h3v1h-3ZM28 14h3v1h-3ZM34 14h7v1h-7ZM5 15h2v1h-2ZM11 15h2v1h-2ZM18 15h3v2h-3ZM22 15h3v1h-3ZM28 15h4v1h-4ZM33 15h1v1h-1ZM35 15h1v1h-1ZM37 15h1v1h-1ZM6 16h2v1h-2ZM9 16h4v1h-4ZM23 16h1v1h-1ZM27 16h1v1h-1ZM29 16h1v1h-1ZM32 16h3v1h-3ZM39 16h2v1h-2ZM4 17h3v1h-3ZM12 17h1v1h-1ZM14 17h3v1h-3ZM18 17h4v1h-4ZM24 17h5v1h-5ZM32 17h1v1h-1ZM34 17h2v1h-2ZM40 17h1v1h-1ZM8 18h5v1h-5ZM14 18h2v2h-2ZM19 18h1v1h-1ZM21 18h1v1h-1ZM25 18h2v1h-2ZM30 18h1v1h-1ZM32 18h2v1h-2ZM35 18h1v1h-1ZM38 18h3v1h-3ZM5 19h3v1h-3ZM9 19h1v1h-1ZM11 19h1v1h-1ZM17 19h1v1h-1ZM26 19h1v1h-1ZM29 19h1v1h-1ZM32 19h4v1h-4ZM39 19h2v1h-2ZM9 20h4v1h-4ZM15 20h1v2h-1ZM17 20h3v2h-3ZM22 20h2v1h-2ZM25 20h3v1h-3ZM29 20h2v1h-2ZM32 20h1v1h-1ZM34 20h1v1h-1ZM40 20h1v1h-1ZM8 21h1v1h-1ZM21 21h1v1h-1ZM23 21h2v1h-2ZM26 21h2v1h-2ZM29 21h1v1h-1ZM32 21h3v1h-3ZM37 21h1v1h-1ZM6 22h2v1h-2ZM9 22h3v1h-3ZM13 22h2v1h-2ZM16 22h2v1h-2ZM21 22h2v1h-2ZM24 22h2v1h-2ZM28 22h3v1h-3ZM32 22h1v1h-1ZM34 22h2v1h-2ZM39 22h2v1h-2ZM6 23h1v1h-1ZM8 23h2v1h-2ZM15 23h3v1h-3ZM19 23h1v1h-1ZM22 23h1v1h-1ZM24 23h4v1h-4ZM29 23h1v1h-1ZM32 23h2v1h-2ZM40 23h1v1h-1ZM5 24h1v1h-1ZM7 24h2v2h-2ZM10 24h2v1h-2ZM13 24h1v1h-1ZM15 24h1v1h-1ZM20 24h2v1h-2ZM23 24h1v1h-1ZM25 24h3v1h-3ZM29 24h2v1h-2ZM32 24h3v1h-3ZM4 25h2v1h-2ZM11 25h1v1h-1ZM13 25h2v1h-2ZM17 25h2v1h-2ZM21 25h3v1h-3ZM26 25h2v1h-2ZM32 25h4v1h-4ZM38 25h3v1h-3ZM5 26h1v1h-1ZM8 26h1v1h-1ZM10 26h1v1h-1ZM12 26h1v1h-1ZM14 26h1v1h-1ZM16 26h1v2h-1ZM18 26h2v1h-2ZM24 26h3v1h-3ZM28 26h2v1h-2ZM35 26h6v1h-6ZM4 27h1v1h-1ZM6 27h4v1h-4ZM11 27h1v1h-1ZM13 27h1v1h-1ZM20 27h5v1h-5ZM26 27h1v1h-1ZM29 27h6v1h-6ZM39 27h1v1h-1ZM7 28h1v2h-1ZM10 28h2v1h-2ZM13 28h3v1h-3ZM17 28h1v1h-1ZM20 28h1v1h-1ZM23 28h7v1h-7ZM32 28h3v1h-3ZM37 28h1v2h-1ZM11 29h1v1h-1ZM16 29h3v1h-3ZM20 29h3v1h-3ZM26 29h3v1h-3ZM34 29h1v2h-1ZM40 29h1v1h-1ZM4 30h1v1h-1ZM6 30h6v1h-6ZM13 30h1v1h-1ZM21 30h2v1h-2ZM26 30h5v1h-5ZM36 30h1v2h-1ZM38 30h3v1h-3ZM5 31h3v1h-3ZM9 31h1v1h-1ZM11 31h1v1h-1ZM14 31h1v1h-1ZM18 31h4v1h-4ZM23 31h2v1h-2ZM26 31h1v1h-1ZM28 31h4v1h-4ZM39 31h2v1h-2ZM4 32h1v1h-1ZM6 32h1v1h-1ZM8 32h3v1h-3ZM12 32h1v2h-1ZM18 32h2v1h-2ZM21 32h1v1h-1ZM24 32h13v1h-13ZM18 33h1v1h-1ZM20 33h2v1h-2ZM28 33h2v1h-2ZM32 33h1v1h-1ZM36 33h5v1h-5ZM13 34h3v1h-3ZM20 34h7v1h-7ZM28 34h1v1h-1ZM30 34h3v1h-3ZM34 34h1v1h-1ZM36 34h1v2h-1ZM38 34h3v1h-3ZM12 35h1v2h-1ZM14 35h1v1h-1ZM16 35h1v1h-1ZM20 35h1v1h-1ZM22 35h2v1h-2ZM27 35h3v1h-3ZM32 35h1v1h-1ZM39 35h1v1h-1ZM15 36h1v1h-1ZM17 36h1v2h-1ZM22 36h1v1h-1ZM25 36h1v1h-1ZM28 36h2v1h-2ZM32 36h5v1h-5ZM40 36h1v1h-1ZM14 37h2v1h-2ZM20 37h2v1h-2ZM27 37h1v1h-1ZM29 37h1v1h-1ZM32 37h1v1h-1ZM36 37h1v1h-1ZM38 37h3v1h-3ZM12 38h1v1h-1ZM15 38h3v1h-3ZM19 38h3v1h-3ZM23 38h1v1h-1ZM25 38h2v2h-2ZM30 38h2v1h-2ZM33 38h1v1h-1ZM35 38h3v1h-3ZM40 38h1v1h-1ZM14 39h1v1h-1ZM20 39h1v1h-1ZM22 39h2v1h-2ZM28 39h2v1h-2ZM31 39h3v1h-3ZM35 39h1v1h-1ZM39 39h1v1h-1ZM13 40h1v1h-1ZM16 40h1v1h-1ZM19 40h4v1h-4ZM29 40h1v1h-1ZM31 40h2v1h-2ZM34 40h1v1h-1ZM36 40h2v1h-2ZM39 40h2v1h-2ZM7.5 4A3.5 3.5 0 1 1 7.5 11A3.5 3.5 0 1 1 7.5 4ZM7.5 5A2.5 2.5 0 1 1 7.5 10A2.5 2.5 0 1 1 7.5 5ZM37.5 4A3.5 3.5 0 1 1 37.5 11A3.5 3.5 0 1 1 37.5 4ZM37.5 5A2.5 2.5 0 1 1 37.5 10A2.5 2.5 0 1 1 37.5 5ZM7.5 34A3.5 3.5 0 1 1 7.5 41A3.5 3.5 0 1 1 7.5 34ZM7.5 35A2.5 2.5 0 1 1 7.5 40A2.5 2.5 0 1 1 7.5 35ZM6.5 6A0.5 0.5 0 1 1 6.5 7A0.5 0.5 0 1 1 6.5 6ZM7.5 6A0.5 0.5 0 1 1 7.5 7A0.5 0.5 0 1 1 7.5 6ZM8.5 6A0.5 0.5 0 1 1 8.5 7A0.5 0.5 0 1 1 8.5 6ZM6.5 7A0.5 0.5 0 1 1 6.5 8A0.5 0.5 0 1 1 6.5 7ZM7.5 7A0.5 0.5 0 1 1 7.5 8A0.5 0.5 0 1 1 7.5 7ZM8.5 7A0.5 0.5 0 1 1 8.5 8A0.5 0.5 0 1 1 8.5 7ZM6.5 8A0.5 0.5 0 1 1 6.5 9A0.5 0.5 0 1 1 6.5 8ZM7.5 8A0.5 0.5 0 1 1 7.5 9A0.5 0.5 0 1 1 7.5 8ZM8.5 8A0.5 0.5 0 1 1 8.5 9A0.5 0.5 0 1 1 8.5 8ZM36.5 6A0.5 0.5 0 1 1 36.5 7A0.5 0.5 0 1 1 36.5 6ZM37.5 6A0.5 0.5 0 1 1 37.5 7A0.5 0.5 0 1 1 37.5 6ZM38.5 6A0.5 0.5 0 1 1 38.5 7A0.5 0.5 0 1 1 38.5 6ZM36.5 7A0.5 0.5 0 1 1 36.5 8A0.5 0.5 0 1 1 36.5 7ZM37.5 7A0.5 0.5 0 1 1 37.5 8A0.5 0.5 0 1 1 37.5 7ZM38.5 7A0.5 0.5 0 1 1 38.5 8A0.5 0.5 0 1 1 38.5 7ZM36.5 8A0.5 0.5 0 1 1 36.5 9A0.5 0.5 0 1 1 36.5 8ZM37.5 8A0.5 0.5 0 1 1 37.5 9A0.5 0.5 0 1 1 37.5 8ZM38.5 8A0.5 0.5 0 1 1 38.5 9A0.5 0.5 0 1 1 38.5 8ZM6.5 36A0.5 0.5 0 1 1 6.5 37A0.5 0.5 0 1 1 6.5 36ZM7.5 36A0.5 0.5 0 1 1 7.5 37A0.5 0.5 0 1 1 7.5 36ZM8.5 36A0.5 0.5 0 1 1 8.5 37A0.5 0.5 0 1 1 8.5 36ZM6.5 37A0.5 0.5 0 1 1 6.5 38A0.5 0.5 0 1 1 6.5 37ZM7.5 37A0.5 0.5 0 1 1 7.5 38A0.5 0.5 0 1 1 7.5 37ZM8.5 37A0.5 0.5 0 1 1 8.5 38A0.5 0.5 0 1 1 8.5 37ZM6.5 38A0.5 0.5 0 1 1 6.5 39A0.5 0.5 0 1 1 6.5 38ZM7.5 38A0.5 0.5 0 1 1 7.5 39A0.5 0.5 0 1 1 7.5 38ZM8.5 38A0.5 0.5 0 1 1 8.5 39A0.5 0.5 0 1 1 8.5 38Z"/></svg>